<svg xmlns:dc="http://purl.org/dc/elements/1.1/" xmlns:cc="http://creativecommons.org/ns#" xmlns:rdf="http://www.w3.org/1999/02/22-rdf-syntax-ns#" xmlns:svg="http://www.w3.org/2000/svg" xmlns="http://www.w3.org/2000/svg" xmlns:xlink="http://www.w3.org/1999/xlink" xmlns:sodipodi="http://sodipodi.sourceforge.net/DTD/sodipodi-0.dtd" xmlns:inkscape="http://www.inkscape.org/namespaces/inkscape" width="2454.425048828125" height="1024.0" id="svgoverlay" version="1.1" sodipodi:docname="overlays.svg">
  <defs id="defs4">
    <clipPath id="edgeclip">
      <path id="clippath" d="M1265.464600 452.447205 L1265.689453 457.445068, 1266.220947 463.171692, 1266.257690 468.531921, 1267.260742 473.619751, 1266.455933 480.427124, 1266.322388 487.481384, 1264.947144 491.867920, 1264.232788 496.611023, 1262.196411 499.936218, 1258.368652 504.046021, 1254.379883 507.450317, 1250.257202 510.634216, 1245.566895 514.974304, 1242.264038 516.538208, 1237.919556 519.721802, 1234.017090 521.179932, 1230.918213 524.104431, 1229.396362 527.162231, 1226.827026 530.930786, 1222.924927 534.941162, 1219.623657 536.752136, 1216.894775 539.752869, 1213.314819 543.715027, 1210.755859 543.702759, 1209.448486 546.119141, 1206.824097 549.594971, 1206.626953 553.796509, 1203.818848 556.058350, 1203.135010 558.827881, 1203.534180 561.455444, 1201.490967 563.097046, 1199.824951 565.268799, 1197.989990 568.127319, 1197.770874 571.614868, 1197.594360 574.951660, 1196.622314 577.964417, 1194.885376 581.183594, 1192.481689 585.154785, 1190.235352 589.692871, 1187.828247 593.681885, 1185.868164 597.903442, 1184.096436 601.121216, 1183.920532 604.381104, 1183.010132 606.099243, 1182.644409 608.572205, 1183.329224 612.108887, 1182.881104 614.415039, 1182.551392 617.346313, 1181.216309 618.562927, 1182.322632 619.184326, 1184.535156 620.623901, 1185.818115 625.552551, 1185.426636 629.927063, 1184.663818 632.993408, 1186.752441 634.489746, 1187.202637 640.935486, 1187.658936 645.941895, 1186.722534 651.113586, 1185.559326 656.308167, 1184.731567 660.606567, 1185.345337 665.059326, 1184.212158 668.370605, 1185.293701 670.537170, 1185.379761 675.414490, 1186.900024 678.879883, 1188.912842 683.028137, 1189.660522 686.151123, 1191.746704 688.814758, 1192.793701 691.746948, 1193.873047 694.636230, 1197.046509 696.013428, 1197.672729 697.781738, 1197.403687 699.397522, 1199.002930 700.553589, 1201.056885 701.653564, 1201.573120 704.492798, 1202.054199 707.095581, 1201.557983 708.642761, 1203.527954 709.757690, 1202.320312 711.676392, 1203.565918 712.658447, 1204.712158 714.863159, 1205.595093 716.552856, 1206.304321 718.548462, 1206.690063 720.568848, 1208.788208 720.364685, 1209.679565 725.511353, 1211.934082 728.738281, 1214.401245 731.279663, 1214.608398 734.724121, 1217.901733 736.983521, 1221.410645 739.239014, 1223.420288 741.587585, 1225.961670 743.202271, 1228.685547 744.940613, 1228.655396 747.190796, 1230.672241 748.903320, 1232.900146 750.866211, 1236.130005 750.271606, 1238.740601 752.314087, 1241.736572 753.969116, 1243.644653 756.242188, 1244.544312 757.470825, 1244.835327 758.435486, 1246.630615 756.965332, 1250.626953 756.451904, 1252.258789 758.978882, 1253.849976 760.168091, 1255.428711 758.782959, 1256.890503 760.800720, 1259.399170 761.638794, 1260.740967 762.103516, 1262.198975 761.226929, 1265.171509 763.146362, 1268.193848 764.756287, 1270.603638 766.924194, 1273.232666 768.479980, 1276.044922 769.911011, 1278.634766 771.050781, 1280.740234 769.988037, 1281.843506 768.342834, 1284.500854 768.489746, 1287.157227 767.270569, 1289.897095 766.958862, 1292.259033 766.681030, 1292.600342 769.175842, 1293.196533 768.977417, 1295.039307 769.230225, 1294.945679 771.662537, 1296.475220 772.251770, 1298.453613 773.310730, 1299.664185 774.846130, 1300.879883 775.045166, 1302.533813 774.912292, 1304.853760 777.067261, 1307.025635 778.723389, 1309.269287 779.035034, 1311.833862 780.327576, 1315.560303 781.288818, 1316.811646 783.681274, 1320.188110 784.779236, 1323.528320 786.023560, 1327.219849 787.425110, 1330.995239 786.648560, 1334.156006 788.441956, 1337.059692 789.531738, 1339.968872 790.494507, 1343.344116 791.262573, 1346.377197 793.377563, 1348.691162 795.105652, 1350.838257 796.955688, 1354.330078 796.228699, 1356.836670 795.680603, 1359.038086 795.177979, 1361.593994 796.572510, 1362.432617 798.651978, 1364.850464 799.646729, 1365.627441 802.006226, 1368.713013 802.622131, 1372.148926 802.705566, 1373.226440 805.375122, 1375.929321 805.988892, 1376.543335 808.169128, 1376.466187 810.711914, 1377.201416 813.640076, 1379.297974 815.045166, 1379.343872 817.490417, 1381.435669 816.237305, 1383.232666 817.234009, 1383.829224 819.051880, 1385.466309 819.773865, 1387.310547 820.182983, 1389.284180 820.136902, 1391.487183 819.544495, 1393.554321 821.733887, 1395.698486 823.781799, 1395.819214 826.520020, 1397.975098 827.914490, 1400.879639 829.054993, 1404.586792 830.514099, 1408.894897 832.323120, 1411.045532 834.473267, 1413.603271 835.720825, 1416.281128 837.585693, 1419.640869 838.327576, 1422.482666 841.376831, 1421.737183 843.522583, 1423.248291 844.566772, 1424.001465 847.453918, 1424.546387 849.919495, 1425.736938 851.619934, 1426.863403 854.540771, 1429.226562 855.564575, 1432.560425 856.581421, 1436.002563 857.935730, 1437.010010 860.281433, 1439.011353 861.016785, 1441.493652 862.954529, 1442.906128 865.563171, 1444.392212 867.367188, 1446.438232 869.322021, 1448.640747 870.127747, 1450.924072 871.809204, 1451.240967 874.511902, 1449.762329 877.131531, 1449.422241 880.528076, 1447.297363 883.731140, 1446.391479 885.166260, 1446.271484 886.481323, 1445.911987 887.522766, 1448.169922 888.846863, 1446.244263 891.363953, 1445.995728 895.022461, 1445.857544 899.032227, 1446.862183 903.480347, 1447.158936 908.683533, 1445.669800 911.547058, 1444.403931 914.142883, 1445.880859 917.294800, 1447.668335 920.521057, 1449.439941 923.551270, 1451.038696 926.400879, 1452.736694 928.699219, 1452.532959 930.204773, 1452.116821 930.925903, 1454.245483 931.596558, 1456.019287 933.920898, 1457.812134 935.648682, 1457.957397 937.878662, 1457.971558 940.195251, 1457.427124 942.011597, 1458.899414 943.955017, 1457.401611 945.682495, 1455.012329 945.743469, 1453.753906 947.019165, 1452.481445 947.855957, 1454.214600 949.875610, 1451.834839 950.296936, 1452.257690 951.083923, 1452.965332 952.599792, 1451.268311 954.959717, 1452.112549 957.555542, 1450.718018 959.883789, 1447.640991 963.067322, 1444.741821 965.084351, 1444.280273 967.708374, 1444.390015 971.542786, 1443.793823 973.311157, 1444.281494 974.538086, 1445.282959 977.385742, 1444.068604 979.174011, 1444.895264 982.023315, 1447.114990 983.957092, 1446.054932 985.294067, 1448.059692 985.917847, 1451.403076 986.962341, 1450.089966 984.482971, 1448.335938 982.191040, 1448.839722 980.623901, 1447.967285 979.789307, 1447.673950 979.193787, 1447.098511 977.744629, 1445.979614 974.893188, 1446.611206 971.999573, 1448.399292 969.919495, 1449.156128 966.922485, 1450.709961 964.025940, 1454.447876 964.683716, 1457.513062 965.678894, 1459.553345 963.878601, 1462.178223 964.929810, 1464.356812 963.652039, 1466.758789 965.035645, 1468.934204 966.187866, 1470.989136 965.391296, 1473.388184 966.856079, 1476.148926 967.898010, 1478.698608 968.796509, 1480.622681 967.241516, 1482.564819 965.953491, 1484.330566 964.557007, 1486.123657 965.132935, 1487.009888 962.923706, 1489.073730 963.822327, 1490.635132 961.927551, 1492.801392 960.786133, 1494.458374 959.826721, 1497.614258 959.358521, 1501.688232 957.329407, 1505.028564 955.897400, 1506.523560 955.478394, 1506.600586 953.649963, 1509.577148 952.713501, 1512.065308 953.194275, 1512.427612 951.457825, 1515.551025 948.561035, 1518.123169 945.459839, 1520.168091 942.307373, 1522.702637 941.309143, 1525.409058 938.847839, 1527.855347 937.817505, 1529.682495 936.575562, 1531.668945 934.186462, 1530.940796 932.566223, 1530.404907 931.113464, 1531.582520 928.871338, 1530.950928 928.480225, 1530.579834 927.266602, 1529.758179 925.458984, 1528.888794 922.744873, 1526.401123 920.836731, 1524.513672 918.364990, 1522.820312 917.563538, 1520.425903 916.396729, 1521.238281 914.141846, 1521.581665 912.650940, 1520.674683 910.891541, 1521.177979 909.190002, 1520.557861 906.906006, 1518.052124 905.664490, 1517.990601 901.935669, 1518.982666 899.338074, 1518.658569 896.931335, 1516.946411 894.441040, 1517.830444 891.675232, 1517.310913 887.941772, 1515.540405 884.006165, 1514.212158 880.600952, 1513.805542 877.729858, 1514.454224 875.095825, 1516.142700 874.911255, 1516.228027 874.018494, 1515.663818 873.111389, 1515.020020 871.080017, 1516.635498 868.951660, 1516.195068 866.409668, 1515.530273 863.649353, 1514.592896 860.910400, 1513.432007 858.058716, 1512.368530 855.060608, 1511.559082 851.718750, 1511.719116 849.655396, 1511.610229 848.048157, 1511.477417 845.666565, 1511.314209 842.946289, 1511.276733 840.204590, 1508.329468 838.838684, 1509.077759 835.888611, 1509.013672 833.166565, 1508.543213 830.461609, 1507.250610 827.518311, 1507.172607 824.258850, 1507.073608 821.298218, 1506.912231 818.499512, 1506.726807 815.741272, 1503.835083 814.051636, 1503.256836 810.907898, 1505.737061 807.564636, 1507.176880 806.153442, 1506.916138 804.670654, 1504.957764 803.507019, 1502.959229 801.559143, 1504.640381 799.769775, 1503.722290 798.752319, 1501.629883 798.218506, 1498.650757 797.735962, 1498.011353 794.843262, 1497.044556 792.453247, 1496.233887 790.163696, 1493.437622 789.506714, 1493.538208 786.836365, 1492.681030 784.761292, 1490.723389 783.604980, 1490.177490 781.180603, 1491.191040 778.779541, 1491.783936 777.674561, 1490.480835 776.985291, 1489.529297 775.091187, 1490.229126 773.577148, 1491.613403 773.312744, 1490.092773 771.174561, 1492.868774 768.801514, 1496.052246 766.718323, 1499.167969 764.932495, 1502.318115 766.396790, 1505.501343 767.439880, 1509.224609 767.044189, 1511.746948 766.920044, 1513.345825 765.693604, 1513.621826 764.046997, 1516.249756 761.736450, 1518.731812 758.839844, 1521.954468 757.152222, 1523.126953 754.464600, 1526.352539 752.767822, 1529.800781 750.855469, 1532.521851 749.467285, 1535.805054 747.517212, 1541.678345 745.210815, 1548.799927 745.240601, 1555.458496 748.291016, 1559.734375 752.025696, 1563.997559 754.984619, 1568.369385 759.999146, 1567.964111 761.901978, 1569.766602 763.759033, 1572.456055 766.951538, 1574.995605 769.159424, 1574.878418 770.842529, 1576.167358 773.124695, 1576.035156 774.268677, 1576.663086 775.557800, 1576.963135 778.290710, 1577.786743 781.394714, 1579.154663 784.977356, 1580.534302 788.765686, 1582.376465 792.196655, 1586.802002 793.201172, 1591.329346 795.707520, 1593.387573 797.319153, 1595.718506 797.203552, 1597.427368 798.288452, 1599.308350 798.174316, 1603.295776 798.455017, 1605.860840 800.155396, 1607.877686 800.501343, 1608.725708 801.721436, 1609.576172 801.963562, 1611.680176 802.710571, 1613.424927 804.763916, 1615.302490 806.639709, 1617.583984 808.641479, 1618.061157 809.617920, 1619.372681 809.340393, 1622.766724 810.992554, 1625.536499 813.908813, 1628.604980 815.200195, 1630.759155 818.012085, 1633.806274 819.657288, 1638.393799 820.843994, 1642.384399 824.286804, 1646.174194 825.557068, 1651.439087 828.504211, 1653.700073 830.987122, 1658.256470 832.375183, 1662.554565 833.804749, 1665.930908 834.986084, 1670.454590 836.229797, 1674.041626 838.851196, 1676.960083 841.065552, 1680.349121 842.869934, 1684.221436 845.093201, 1689.177734 846.425415, 1693.422363 848.939697, 1695.313477 850.097168, 1697.363647 849.245239, 1700.209839 850.461243, 1703.249634 851.789551, 1706.496582 852.223816, 1709.612549 853.029541, 1711.656128 854.692261, 1715.343140 854.847229, 1720.009521 855.476868, 1722.838745 856.963379, 1725.544067 856.513916, 1728.856934 855.766235, 1732.770752 856.861145, 1736.102905 858.756287, 1737.483398 860.472595, 1738.735840 859.602234, 1741.562134 858.330566, 1744.991821 856.622009, 1748.669678 854.452026, 1752.030029 851.053162, 1755.308105 850.265869, 1757.444702 848.416687, 1759.253784 846.133545, 1762.506348 845.041992, 1766.203491 843.669617, 1769.608032 841.121155, 1774.727905 840.685059, 1778.292236 841.480591, 1781.236572 841.590881, 1782.771851 842.293579, 1785.018188 840.399048, 1785.929932 842.040161, 1787.180054 840.905151, 1789.871948 839.079285, 1794.312988 838.350891, 1798.240479 838.759460, 1801.088501 837.610962, 1803.509399 835.895447, 1806.998779 835.488647, 1808.906860 834.086426, 1810.032837 832.744690, 1811.401245 831.667114, 1814.099121 830.321411, 1818.262817 829.593323, 1822.612305 828.114929, 1826.697754 825.873413, 1830.843018 825.688538, 1834.015747 825.384766, 1835.802246 825.017456, 1836.775024 823.640076, 1838.494873 821.138306, 1841.621460 820.536499, 1844.013794 818.544373, 1846.453735 818.767334, 1847.575195 819.308960, 1848.522827 818.500366, 1849.552490 816.389038, 1851.743286 813.203125, 1854.610718 810.362976, 1857.316895 807.369019, 1859.403809 803.121582, 1861.676758 801.745483, 1862.779053 799.169922, 1865.064209 794.272278, 1867.425903 792.058472, 1868.708008 788.532043, 1870.899536 784.827332, 1872.426025 782.798645, 1875.081177 779.981323, 1876.405640 777.130920, 1879.483521 772.858704, 1883.015869 769.663513, 1885.502441 766.139526, 1888.848389 762.911316, 1892.236572 759.283813, 1895.634155 755.955750, 1897.872314 752.037476, 1903.710083 746.923340, 1906.819214 745.296143, 1909.044312 743.545166, 1911.984863 742.375244, 1914.098877 740.323242, 1917.702148 737.333801, 1922.456543 734.964417, 1927.494019 732.510986, 1932.591309 729.670776, 1937.175293 726.706482, 1944.401733 723.163269, 1950.468506 722.565430, 1953.929810 722.869141, 1956.728271 723.545166, 1959.195312 724.753357, 1960.773682 724.803101, 1962.312012 724.708130, 1964.150757 723.249878, 1968.903320 722.872681, 1971.042603 724.812744, 1973.773315 724.167847, 1979.525146 723.992920, 1983.279541 723.776428, 1987.064941 725.176636, 1990.381104 726.511963, 1994.213257 727.480591, 1994.893555 728.426270, 1996.054565 728.594666, 1998.199829 728.376587, 2002.526123 729.916382, 2006.917603 730.802490, 2008.108276 732.105225, 2011.099365 731.975220, 2015.188232 731.874939, 2019.152222 733.510742, 2021.114258 735.136902, 2023.686157 735.515991, 2028.226440 737.787537, 2032.359985 740.084961, 2034.777710 742.166138, 2038.998291 743.966492, 2042.116333 746.373047, 2044.169678 748.750549, 2046.048828 749.620911, 2048.234375 751.333252, 2050.081055 753.672302, 2051.268555 755.028076, 2052.392334 755.743103, 2054.782715 756.259399, 2057.354980 758.008789, 2062.446777 760.161255, 2067.579346 762.485779, 2071.658936 763.850342, 2074.258545 766.253174, 2075.829590 767.319641, 2076.974609 768.200378, 2078.845703 769.899902, 2081.904541 768.560669, 2085.757812 766.955566, 2090.196045 765.989746, 2094.870850 766.404785, 2099.080078 765.498047, 2102.749268 765.279541, 2107.203613 764.458374, 2110.673584 764.509094, 2113.365967 763.304138, 2116.678955 762.834595, 2120.331299 761.470459, 2123.913086 760.332642, 2127.604736 759.261841, 2131.303955 758.194946, 2134.938965 757.090759, 2137.889404 755.239319, 2140.404785 755.393494, 2141.784424 753.614807, 2144.611328 754.119507, 2146.128662 754.291626, 2146.861816 752.839478, 2149.289551 753.103027, 2150.318359 753.392334, 2151.214844 751.626465, 2153.434326 751.890381, 2155.065918 750.318909, 2157.864502 748.325867, 2162.148926 747.554565, 2166.241699 746.970337, 2169.451660 744.233643, 2174.287109 741.662415, 2179.497314 740.674194, 2183.858398 739.380737, 2187.835205 737.861084, 2191.802734 735.832092, 2194.784668 735.243835, 2197.135010 733.718262, 2199.128174 731.595032, 2201.192383 731.167236, 2202.208984 728.995544, 2204.687012 728.421875, 2206.870605 727.583008, 2208.834717 727.337097, 2209.406738 724.616638, 2211.924561 725.121948, 2212.797119 723.056580, 2212.231201 721.123291, 2213.585205 718.902100, 2214.865479 715.858521, 2217.133057 716.109863, 2218.203369 713.833252, 2219.537842 711.272095, 2220.536377 708.158447, 2223.433594 703.763062, 2225.931641 699.703674, 2228.396484 695.153564, 2230.337891 690.011841, 2233.228027 684.565063, 2235.325439 679.621765, 2237.378662 675.025391, 2240.966797 671.155029, 2243.540771 667.076111, 2247.212402 664.610352, 2250.245117 660.507080, 2252.526611 658.409180, 2254.654785 655.496521, 2256.392090 652.448181, 2257.526123 650.665161, 2258.030518 649.154846, 2259.057373 647.626709, 2260.314453 645.513916, 2261.235107 642.605103, 2262.883545 640.520874, 2264.927979 637.793579, 2266.747803 635.770386, 2265.838867 632.503418, 2268.295654 631.841736, 2269.423096 629.945862, 2270.253662 628.877686, 2269.201172 627.653687, 2269.071045 624.745483, 2270.453857 623.322021, 2269.812744 621.086426, 2271.061523 617.652527, 2272.910156 614.910156, 2275.349121 611.647461, 2276.919678 608.564880, 2278.697510 607.012939, 2278.442139 604.893738, 2279.867188 602.501221, 2280.389160 599.895752, 2282.375732 596.406372, 2283.770752 593.585815, 2284.337646 590.597717, 2284.555664 587.620178, 2287.015869 584.875854, 2287.364990 581.560486, 2289.190918 579.278076, 2290.227051 576.378418, 2290.182861 572.718872, 2292.329102 570.346008, 2291.942871 567.119751, 2291.864746 564.055420, 2290.631104 561.555237, 2291.621582 558.355957, 2291.097168 555.031128, 2291.408203 550.032349, 2292.138184 546.026001, 2293.329102 545.502075, 2293.847412 543.868042, 2294.427002 541.028381, 2295.991455 538.132629, 2297.766357 535.363647, 2298.802246 533.828735, 2300.577393 532.149902, 2303.152832 529.378906, 2302.090332 526.008789, 2302.467285 522.316284, 2302.616943 520.907104, 2301.548340 520.572815, 2300.755127 517.932617, 2299.937988 514.447510, 2298.699951 511.623108, 2297.746826 508.442078, 2297.137695 504.357483, 2296.719238 498.674561, 2297.673828 494.822388, 2298.975098 492.622498, 2299.079102 489.718262, 2299.445801 486.609192, 2299.421875 483.141785, 2299.610107 476.964355, 2299.649414 473.435242, 2299.653564 471.011108, 2300.570801 469.603882, 2300.450684 467.840881, 2299.320068 466.480408, 2297.944824 463.121338, 2297.117432 457.497253, 2296.493896 451.804626, 2296.846680 450.401550, 2295.936768 448.217712, 2295.458252 443.911133, 2293.330566 439.224670, 2292.097656 432.370789, 2290.549805 426.262085, 2288.947998 421.322693, 2287.057373 417.630737, 2287.438477 412.459290, 2287.484863 409.450500, 2287.497070 405.431885, 2288.353271 400.671631, 2289.792725 397.770996, 2291.286865 397.496338, 2291.664062 395.415039, 2293.558105 391.306885, 2294.420898 391.922424, 2295.229248 391.742493, 2295.434570 390.915466, 2295.950195 388.961487, 2297.784668 384.917908, 2300.753906 384.564819, 2301.497559 387.205139, 2301.988770 387.142273, 2302.294922 384.797852, 2303.989990 386.379395, 2306.663330 387.928345, 2309.460449 389.806213, 2311.808350 389.161255, 2313.860596 390.538635, 2316.188477 390.513977, 2318.942627 389.176208, 2323.197266 389.292114, 2325.329102 387.003540, 2329.376709 385.655579, 2331.635010 385.058777, 2333.311035 383.731750, 2335.355957 384.566040, 2336.877686 383.042419, 2339.510010 380.674377, 2343.185303 380.022278, 2346.705322 379.822815, 2349.257080 379.182800, 2350.422119 377.867737, 2351.908203 377.362244, 2354.275635 377.922180, 2356.859863 378.161316, 2359.515869 377.142456, 2362.517334 375.923401, 2364.425049 376.746521, 2365.878174 375.331665, 2366.927490 376.712708, 2367.946289 376.607727, 2369.418701 374.932007, 2371.592529 375.717529, 2374.145752 375.435303, 2377.209229 375.689697, 2379.589111 374.669495, 2381.704346 374.606873, 2383.776123 372.137268, 2386.013184 370.733276, 2387.343506 370.272949, 2389.018555 368.662170, 2391.060059 366.855225, 2393.445312 364.979065, 2396.623291 363.031189, 2398.945801 362.900818, 2400.132080 361.547485, 2403.138916 360.371094, 2404.727295 358.420654, 2406.468506 356.504700, 2408.136230 353.910156, 2408.580078 350.841614, 2409.812988 348.868958, 2408.411865 347.001465, 2409.637451 344.807922, 2412.364258 343.923645, 2413.297119 342.612549, 2410.721191 340.763000, 2412.201660 338.132812, 2413.962158 335.869080, 2415.620605 334.002686, 2415.996338 330.844788, 2419.118896 328.719238, 2421.776611 328.220032, 2423.784424 326.504639, 2426.500000 324.263062, 2429.064941 322.861938, 2430.877930 320.477783, 2431.185059 317.967773, 2430.564697 314.738098, 2428.719482 311.453735, 2430.125732 308.490356, 2432.573730 305.838501, 2432.033447 303.025330, 2431.572021 300.044983, 2432.442627 297.095398, 2433.805908 294.230896, 2434.258301 292.129578, 2434.360107 289.906921, 2436.735596 289.643494, 2436.404053 287.561523, 2436.273438 284.738342, 2433.677490 282.952698, 2434.701416 280.493408, 2435.655518 276.909851, 2437.649902 275.807190, 2436.055176 274.208252, 2437.417969 271.273193, 2437.894287 269.340942, 2439.153320 267.199768, 2441.673096 266.735657, 2443.551025 265.340271, 2445.183838 264.079590, 2443.821289 261.845398, 2446.450928 260.219971, 2448.109131 258.432556, 2447.707031 255.918579, 2448.303467 253.381531, 2449.896240 250.422546, 2451.328857 246.858948, 2452.334229 244.194031, 2452.268799 241.589050, 2453.425781 238.782349, 2454.425049 236.696777, 2452.907471 234.716980, 2454.061035 232.267395, 2452.606689 229.888550, 2451.605225 226.480164, 2451.588135 224.012817, 2451.496582 221.529663, 2450.694824 219.315002, 2448.888916 217.417664, 2447.031738 214.499634, 2445.849365 210.691528, 2444.685547 206.186829, 2444.125732 202.103760, 2441.272705 200.055359, 2440.011963 196.982666, 2438.800293 194.140320, 2437.764404 192.023376, 2436.069824 190.645691, 2435.202393 188.674133, 2434.132812 186.092346, 2432.579346 184.026245, 2429.614990 182.254700, 2429.759033 178.021240, 2429.712158 174.579163, 2426.932617 172.941406, 2426.816895 170.150818, 2426.095703 168.139465, 2424.637207 167.567078, 2422.442871 167.178040, 2422.929199 165.355774, 2420.962158 164.804138, 2419.067627 164.092957, 2417.968994 162.847229, 2417.008057 162.817322, 2416.168213 163.722412, 2413.909180 164.540405, 2412.633057 166.447998, 2411.707520 169.005371, 2411.189453 172.253662, 2409.131348 175.026917, 2408.106934 178.017822, 2407.099609 181.018433, 2405.576416 183.831299, 2402.142090 182.953308, 2399.970459 185.338623, 2397.493896 187.517700, 2395.269775 186.065979, 2393.315674 186.082642, 2391.519043 187.588623, 2388.822998 186.599548, 2386.457764 185.188293, 2383.678711 186.366455, 2380.830811 187.025574, 2377.843262 187.766113, 2375.939697 190.608643, 2373.887695 189.408813, 2372.110596 190.370056, 2370.993164 192.381836, 2368.036865 192.536926, 2365.054443 192.606445, 2363.574707 194.475037, 2360.486328 194.922241, 2357.584717 195.554138, 2355.006592 197.564209, 2352.753418 197.540771, 2351.146240 199.110352, 2347.690430 199.368530, 2344.757080 199.387939, 2342.459229 199.590454, 2341.219238 198.137085, 2340.549805 199.631958, 2338.749268 200.060486, 2337.163086 202.269287, 2335.124268 201.829956, 2333.592285 202.768738, 2331.099365 204.028748, 2327.871826 206.768372, 2325.074951 205.648743, 2322.302979 205.071777, 2320.352295 207.554138, 2317.406982 207.397827, 2316.091309 204.296814, 2313.395020 204.388916, 2310.623779 204.348511, 2309.714600 202.550110, 2307.450195 204.056641, 2306.336182 201.901611, 2305.824707 200.839905, 2304.021973 203.060547, 2303.046875 201.018738, 2302.340820 199.594299, 2299.770752 199.010315, 2297.439209 195.927002, 2295.914551 193.188354, 2294.372070 191.001831, 2291.222168 191.162964, 2288.700195 190.869080, 2285.667236 191.391479, 2284.763672 189.824768, 2284.484619 188.936462, 2282.533691 191.280762, 2281.655029 188.679565, 2280.341797 187.934143, 2278.473389 188.403992, 2276.532471 187.981140, 2274.444580 187.882446, 2273.705811 185.672424, 2271.557861 184.760498, 2271.769287 182.602783, 2272.238525 181.407166, 2270.340088 180.540344, 2270.144531 178.268005, 2268.104980 178.559509, 2267.852295 176.399658, 2266.079834 177.196716, 2264.226318 175.952942, 2264.667725 174.075989, 2262.132568 174.249207, 2259.647949 174.184448, 2256.792480 173.701050, 2255.894531 171.168701, 2255.576904 169.978271, 2255.048340 167.729553, 2254.752686 165.538879, 2254.885986 164.174744, 2252.270508 165.682678, 2249.071045 162.431580, 2248.192139 160.321472, 2247.946533 159.334229, 2246.239014 160.428223, 2244.981201 157.896301, 2245.062988 156.366699, 2242.600098 156.091980, 2243.274414 153.523071, 2241.550049 152.380188, 2239.208496 150.206299, 2236.835693 147.990417, 2237.072021 145.996399, 2234.805420 145.204468, 2231.880859 143.122131, 2229.390381 140.789368, 2226.812256 138.112366, 2225.561279 135.035706, 2223.689209 132.721680, 2221.795654 133.326111, 2220.084717 133.977417, 2218.718262 134.971985, 2217.208252 136.542114, 2215.653564 138.408508, 2213.925293 137.706787, 2213.761475 139.997131, 2211.062500 139.890137, 2209.356934 141.846069, 2206.869873 141.442200, 2206.104980 143.245911, 2205.575439 145.455872, 2203.259766 144.073242, 2202.171875 144.181396, 2202.714111 146.500610, 2200.552490 147.971741, 2198.529297 146.290344, 2196.306396 146.386475, 2194.271484 147.932678, 2192.186279 148.917847, 2189.758545 149.538025, 2187.096680 150.081421, 2186.647461 152.650146, 2184.226562 153.908569, 2182.049072 152.448486, 2181.637695 154.412415, 2179.282959 155.045105, 2177.489746 153.749329, 2177.006104 155.783081, 2174.767334 156.589600, 2172.787109 155.581238, 2170.848877 157.149658, 2168.333008 156.086609, 2166.603027 158.204956, 2163.966553 157.584229, 2161.319092 157.559143, 2160.091064 159.987122, 2157.687500 160.373718, 2155.661133 160.749146, 2153.838867 161.191284, 2152.153809 161.877869, 2150.917725 161.158752, 2149.240967 160.914612, 2147.116699 161.039307, 2145.616211 162.104126, 2143.158936 162.657166, 2139.938232 164.142029, 2136.216553 164.718384, 2133.085938 164.779724, 2131.530762 167.171509, 2129.122803 166.645142, 2126.931641 167.238953, 2124.237305 167.450256, 2121.484863 167.503784, 2118.511475 167.566772, 2115.336914 167.794373, 2112.015381 168.194458, 2108.338379 168.644348, 2105.501465 168.295410, 2103.508057 169.739441, 2101.813477 171.884216, 2098.307861 172.731079, 2095.292236 174.404846, 2092.613281 176.035828, 2089.136475 176.408264, 2086.167969 177.461792, 2084.534424 178.473511, 2081.866699 180.231140, 2077.285156 182.373108, 2074.680664 183.843018, 2072.396484 185.445312, 2069.039795 185.774719, 2065.903320 187.354431, 2063.259766 186.853210, 2060.968994 187.887817, 2059.057617 188.782654, 2059.362305 187.915466, 2059.090088 187.581665, 2057.712402 188.079163, 2056.406250 190.377380, 2052.546875 191.092896, 2047.476562 190.527466, 2040.968506 189.805847, 2035.410767 189.139587, 2026.498901 186.497009, 2025.067017 184.784790, 2021.989746 184.173340, 2016.320923 182.904602, 2014.617676 182.036621, 2009.795654 180.991150, 2004.500000 179.739807, 2001.893188 177.099548, 1996.266479 175.539551, 1993.418091 173.966431, 1991.736572 173.107971, 1989.275757 171.358887, 1987.445923 169.397522, 1985.199097 168.557861, 1984.284790 166.283386, 1981.170532 165.469421, 1980.184692 163.041748, 1979.336060 160.262878, 1977.673340 158.433594, 1975.082397 157.539978, 1972.145386 156.642517, 1971.547485 154.797913, 1972.457886 153.419189, 1971.100220 153.489929, 1970.225342 152.036194, 1969.197876 149.844482, 1967.970337 147.576843, 1966.679565 145.171814, 1965.324951 142.731323, 1964.119995 140.393921, 1962.416504 138.309265, 1959.987427 136.216125, 1957.138184 135.239624, 1955.384277 133.019958, 1953.225708 130.738586, 1951.467163 128.616577, 1948.513428 127.499084, 1949.589355 125.155457, 1947.910034 124.439758, 1945.993042 123.201416, 1944.629883 122.341858, 1942.288452 123.399109, 1942.762085 121.659973, 1939.831177 123.186768, 1939.962524 121.408142, 1937.595581 120.974548, 1937.320068 116.316345, 1937.181885 113.881714, 1935.277222 113.295227, 1934.312866 110.877869, 1934.115479 109.598328, 1931.609131 110.765503, 1930.986694 108.272278, 1930.806030 107.009399, 1927.733643 108.495972, 1927.996826 105.804993, 1928.080444 104.529541, 1925.027710 106.022095, 1922.136108 104.639709, 1920.646973 102.864319, 1917.453003 103.540222, 1917.356689 101.153503, 1917.370728 99.027222, 1919.615234 97.713135, 1920.468872 95.911133, 1920.857666 93.724792, 1922.918335 92.931396, 1921.057861 91.592651, 1921.305786 89.128296, 1921.114990 86.537109, 1920.642822 84.060364, 1919.577515 82.058044, 1919.933228 79.620239, 1919.729248 76.710266, 1918.596558 74.046936, 1917.538330 71.636108, 1918.860107 69.845947, 1916.727905 68.325134, 1916.823853 65.741882, 1918.050049 63.008545, 1914.519897 61.767212, 1911.011475 61.409424, 1907.634644 61.247437, 1904.642700 60.788269, 1901.885986 59.961487, 1898.914307 61.275269, 1896.338013 62.898621, 1893.172241 62.773315, 1890.124756 62.214417, 1887.133911 63.338745, 1884.268188 64.181030, 1881.781616 62.892090, 1879.710327 61.967957, 1878.169678 62.063965, 1876.017456 62.103699, 1872.656128 63.000427, 1869.953247 62.011414, 1866.753174 63.932861, 1863.647583 61.876587, 1861.931519 62.220032, 1861.332397 64.266846, 1858.886719 62.681213, 1857.142334 62.906860, 1854.870972 63.594971, 1855.199097 61.511902, 1853.114990 61.625732, 1850.711548 61.833313, 1849.187744 61.718689, 1847.235962 61.296692, 1846.174927 58.551514, 1844.795044 56.058411, 1841.469360 56.314758, 1838.600708 55.262207, 1837.531860 53.136658, 1835.490723 51.202637, 1833.101074 49.145569, 1830.850952 47.008484, 1828.711060 45.041748, 1826.935791 43.528687, 1823.783081 43.554810, 1819.839600 41.998047, 1819.499390 38.358154, 1817.328369 37.342102, 1816.325928 35.280945, 1814.757202 37.317932, 1813.284424 37.632385, 1812.512939 37.736084, 1813.638550 39.242920, 1811.259033 39.955139, 1809.230469 41.321899, 1807.259399 43.551636, 1804.602051 45.238647, 1802.716187 46.836853, 1801.107178 48.144836, 1799.132935 48.841553, 1797.337524 50.337830, 1793.580078 50.924622, 1789.710449 51.758240, 1786.276733 53.374268, 1784.243774 57.784790, 1781.963867 60.221741, 1782.238037 63.250183, 1783.145996 66.485840, 1781.820557 70.632385, 1780.399292 73.923645, 1779.593872 76.317505, 1778.960815 78.279419, 1779.436401 79.416626, 1781.001221 80.079834, 1780.586426 84.563721, 1779.684937 86.769165, 1779.268188 87.824524, 1780.837158 88.418945, 1779.972778 90.220032, 1780.811035 92.645325, 1780.163208 94.975098, 1781.369629 97.407654, 1782.493896 102.105652, 1783.046753 105.841492, 1783.836060 108.997864, 1781.873535 109.963257, 1782.906738 111.426086, 1781.466064 113.725403, 1780.308716 115.464966, 1778.965088 116.038330, 1778.897339 116.833679, 1779.385254 117.436157, 1780.029175 118.987122, 1778.535522 120.779419, 1777.044556 123.113342, 1777.195557 125.744385, 1775.950195 127.958679, 1776.293823 130.433960, 1778.044678 132.266479, 1780.401733 134.176270, 1780.262695 137.369202, 1778.697998 138.732239, 1779.376343 139.844116, 1778.209106 141.484863, 1778.239258 143.007446, 1775.499390 144.551880, 1773.125244 145.690002, 1771.469116 147.894287, 1768.606323 149.319031, 1766.279053 150.390137, 1765.555664 152.821777, 1764.969116 155.630676, 1764.761719 158.916748, 1763.348999 162.039185, 1763.845337 164.716187, 1762.598633 166.724121, 1762.191528 169.043213, 1761.659424 172.117065, 1760.786743 175.405701, 1758.912842 177.140320, 1758.056030 179.180664, 1757.210693 182.040894, 1757.051514 186.770325, 1753.932251 190.527466, 1752.895264 195.134460, 1751.391724 199.792419, 1748.220459 203.493469, 1745.197144 206.957092, 1741.786133 210.702576, 1738.331299 215.109741, 1735.819702 216.564331, 1733.997314 218.866333, 1728.677002 222.999451, 1723.380127 225.696533, 1717.173096 226.351196, 1710.615967 224.970825, 1709.022217 223.915283, 1706.045166 223.126160, 1701.362183 220.515198, 1698.914673 217.628052, 1697.162109 215.471008, 1695.229492 213.542480, 1692.784668 212.033081, 1690.237915 211.372986, 1685.323975 208.320984, 1682.923584 206.022583, 1679.421631 203.734558, 1675.782104 201.640137, 1672.642944 200.059265, 1667.243652 194.339355, 1661.780640 188.192261, 1658.150146 183.064697, 1654.775513 180.521545, 1653.972900 177.405701, 1652.622070 175.270325, 1651.017456 173.493469, 1649.901245 172.914612, 1647.870239 172.208191, 1645.669800 170.485046, 1645.046021 169.866577, 1644.052734 170.003235, 1640.670776 170.359863, 1637.843994 170.259155, 1635.860718 170.122803, 1632.582642 170.407532, 1630.377441 167.892761, 1627.257446 167.666382, 1625.436279 163.414978, 1624.513672 161.339783, 1622.284058 160.895569, 1619.609985 158.351990, 1618.030396 156.382263, 1616.355713 155.822510, 1614.000488 154.499451, 1610.694336 152.336426, 1607.339722 149.738220, 1602.856812 148.058105, 1598.795776 146.985779, 1594.488525 146.505615, 1592.097656 145.595581, 1590.303345 144.583984, 1587.544800 146.213074, 1583.911377 147.416870, 1582.321411 149.557983, 1578.180054 150.598328, 1575.714111 149.353943, 1573.334351 148.229614, 1573.021851 145.903259, 1571.693359 143.780396, 1570.949463 140.885803, 1570.379517 138.418213, 1569.365967 136.513245, 1568.468872 135.951660, 1567.549438 137.101807, 1565.178223 133.239258, 1561.942505 131.997925, 1558.175903 131.319763, 1555.140869 130.608582, 1552.968994 129.775391, 1550.056030 130.055176, 1545.855103 130.252808, 1541.893921 129.124512, 1538.239136 128.789001, 1536.869995 128.387024, 1534.858765 128.348633, 1532.207642 128.809204, 1528.865112 128.728760, 1525.826904 127.248413, 1522.578369 126.393799, 1519.714478 125.793640, 1517.100830 124.279297, 1514.970459 122.029968, 1512.458618 123.329834, 1511.155029 126.225464, 1510.106445 129.161743, 1509.701172 132.308167, 1507.016357 133.323486, 1505.313965 135.571289, 1502.646729 138.104004, 1501.322510 140.960571, 1495.754272 143.662659, 1491.335083 145.212524, 1488.119385 146.369812, 1485.102783 147.412659, 1482.250122 149.465698, 1478.306885 151.856995, 1474.625244 152.472900, 1472.400757 152.434082, 1470.815308 153.738342, 1465.205688 154.863953, 1462.947998 154.682373, 1460.318970 155.549316, 1454.613770 156.161926, 1449.421387 157.253052, 1443.800781 157.010010, 1439.337524 155.848877, 1435.822021 156.433105, 1432.060547 157.066101, 1428.330566 158.138916, 1425.875854 157.077026, 1421.522095 158.477844, 1419.986206 156.301758, 1418.042969 155.780334, 1415.996582 154.730957, 1413.885498 153.258789, 1411.739380 151.605591, 1411.574707 149.945740, 1409.816772 150.250183, 1407.930786 147.946777, 1409.542480 145.460327, 1407.248047 145.044800, 1404.080811 147.371277, 1402.464600 149.842712, 1401.352783 152.390503, 1400.189819 155.052307, 1399.154175 157.583557, 1400.988281 159.705017, 1399.882568 162.317932, 1398.477661 165.406799, 1396.445923 166.594849, 1397.148438 168.573792, 1395.313110 172.254944, 1394.341919 174.967285, 1393.569092 176.835266, 1390.892578 179.530334, 1388.669922 180.585327, 1388.266235 182.750977, 1385.521729 185.353577, 1382.590332 188.004883, 1380.335693 190.056396, 1379.599976 192.651794, 1376.926514 195.113647, 1373.953613 197.691711, 1370.327637 200.227844, 1367.330200 204.136108, 1364.475220 207.773926, 1361.958618 211.398560, 1359.819946 215.314331, 1358.238892 219.245361, 1354.871582 221.927185, 1352.631836 222.868774, 1350.833374 224.416687, 1349.459717 228.643005, 1345.361694 229.764282, 1342.918213 230.920044, 1340.275269 232.414795, 1337.028442 233.884338, 1335.579468 235.880310, 1333.342896 237.138855, 1330.671143 237.786072, 1328.762329 238.855530, 1325.962524 240.396240, 1323.393188 239.764709, 1320.734619 240.139526, 1319.007446 239.848633, 1318.681152 242.692322, 1315.669800 247.182312, 1313.927734 247.594116, 1313.703735 250.356384, 1311.175659 253.537170, 1308.088501 255.511536, 1306.000977 258.189148, 1302.803955 260.552246, 1299.298584 263.817627, 1297.090820 265.730408, 1298.333008 267.442139, 1296.651123 271.408997, 1292.417969 274.907410, 1289.892334 277.857605, 1288.105469 278.838806, 1286.318848 281.277771, 1284.498779 283.864441, 1283.988037 286.244141, 1281.615234 289.375549, 1280.273193 292.639160, 1279.108276 297.098511, 1275.811035 302.790588, 1273.252808 307.606689, 1271.179565 312.611938, 1268.402710 315.878662, 1266.217896 317.822693, 1266.093384 320.437134, 1264.133423 324.358154, 1263.643677 328.886780, 1261.400757 331.569641, 1258.715576 331.379089, 1256.766113 334.248474, 1255.799316 337.510681, 1254.102539 340.306885, 1252.481201 342.566650, 1251.370483 344.675781, 1250.408203 347.948120, 1249.737427 351.224670, 1250.202515 354.865234, 1249.244385 358.135315, 1250.569336 360.286072, 1251.839966 362.865601, 1251.937744 366.559753, 1253.611816 368.590393, 1253.547485 371.877197, 1252.231445 373.636108, 1253.372559 375.038025, 1253.009521 378.125061, 1253.310669 381.085144, 1254.573120 383.436707, 1255.769287 388.223389, 1255.647705 390.624390, 1256.967041 393.063293, 1255.732788 396.450439, 1257.190308 399.047546, 1257.070923 403.290771, 1257.333130 407.477600, 1257.462036 412.018005, 1259.183472 417.274048, 1259.578491 420.257751, 1261.076538 422.814758, 1260.077881 425.325256, 1260.960083 427.342285, 1262.016113 432.417358, 1264.158813 438.433411, 1264.925537 445.179626, 1264.960327 449.429199, 1265.464600 452.447205Z M1107.373047 543.925171 L1107.255371 549.042542, 1106.560425 553.970215, 1105.890503 557.974365, 1104.822632 559.669312, 1103.749146 565.544556, 1103.321411 571.701843, 1103.595581 578.234741, 1105.593750 585.024414, 1108.514038 589.853149, 1112.716919 594.250305, 1115.633789 595.590332, 1119.204468 598.816162, 1122.334229 601.238831, 1124.377319 603.496765, 1126.977417 606.706055, 1128.152954 605.922119, 1128.952393 607.789062, 1130.246582 609.818115, 1129.870972 612.387573, 1133.563721 614.360107, 1135.971802 616.856628, 1139.542480 618.308472, 1143.805420 620.353027, 1146.799683 623.193726, 1148.791138 626.029785, 1150.929077 626.622803, 1151.189209 628.162964, 1154.166504 630.171387, 1157.404907 632.500244, 1160.276245 634.856506, 1161.805542 636.717346, 1163.832764 638.458496, 1165.524170 640.914917, 1167.090088 644.041626, 1167.191528 647.753052, 1168.727173 650.224854, 1170.853027 652.404907, 1171.839600 654.910889, 1173.184814 656.877258, 1173.461304 658.964661, 1175.070068 662.849609, 1177.772949 667.238770, 1179.503540 671.402832, 1181.216309 672.316345, 1180.592773 675.228516, 1179.982788 678.548340, 1180.656372 680.590393, 1179.043945 682.018982, 1179.921021 685.151123, 1180.068726 688.764282, 1180.818237 692.183105, 1180.168701 694.757874, 1180.336426 697.721069, 1180.694946 699.472900, 1178.667603 700.336426, 1177.604248 704.429810, 1177.910889 708.500854, 1176.391479 711.601685, 1174.732910 715.250977, 1174.483765 719.201660, 1174.528687 722.753052, 1174.150269 727.114258, 1175.389160 728.496765, 1174.185425 730.579102, 1173.844849 734.104858, 1174.656128 736.783752, 1173.975952 739.146606, 1173.089722 741.265808, 1174.265137 741.961548, 1173.569824 743.490601, 1172.104980 744.841187, 1170.978638 748.628662, 1169.364746 753.813354, 1169.266479 758.370056, 1168.688843 763.010986, 1168.080200 767.580444, 1167.131592 772.153381, 1165.701660 776.294922, 1164.173828 780.240784, 1162.337524 783.530823, 1162.419556 785.528015, 1162.887085 786.788330, 1161.422363 787.828430, 1159.405151 790.631714, 1157.233154 793.199341, 1158.361084 795.802734, 1157.385498 797.742432, 1154.571899 798.217102, 1151.775635 800.670837, 1149.475586 802.744690, 1147.149780 804.386841, 1144.604614 806.036316, 1142.115601 807.664917, 1139.607544 809.336304, 1136.018555 808.789917, 1133.312256 810.526428, 1130.532715 812.458618, 1126.992432 813.011719, 1123.785889 813.971008, 1120.214355 814.499878, 1116.923828 814.885254, 1113.241089 815.396362, 1111.064209 817.442688, 1108.851196 816.669800, 1105.344116 817.744019, 1103.366943 819.700012, 1101.927246 821.310913, 1099.396484 821.662781, 1097.648071 823.534607, 1098.023438 825.492798, 1096.854736 826.326294, 1096.291382 825.171143, 1093.195312 824.954834, 1090.659058 822.552185, 1087.342285 822.376953, 1085.154907 820.315979, 1082.829956 821.248474, 1081.042480 821.927002, 1079.628174 821.450928, 1077.167236 822.139404, 1074.614136 821.960449, 1074.148682 819.835876, 1068.582397 820.991943, 1064.270752 822.141052, 1060.407837 822.695862, 1057.515015 825.046692, 1053.463135 826.169434, 1049.129272 827.775696, 1045.226074 830.152466, 1041.320190 832.131042, 1037.994385 833.841125, 1034.954956 835.161743, 1034.344604 836.882874, 1032.200439 836.693542, 1031.051514 838.256836, 1029.719849 837.841309, 1027.188354 838.222900, 1024.328125 840.204163, 1021.328430 841.572998, 1018.522034 842.488342, 1015.515625 843.011719, 1012.471924 842.536255, 1010.554688 844.576233, 1008.644043 844.884033, 1007.918213 842.597107, 1004.817200 843.774414, 1003.191406 844.498779, 1000.190369 846.110291, 998.151611 847.295471, 996.335632 847.010742, 993.213318 848.434753, 989.920654 849.799011, 986.804321 850.757446, 983.839417 851.489197, 980.604370 852.354309, 980.709351 854.117126, 978.628601 854.376831, 974.839844 854.766846, 971.765442 854.775696, 968.230896 854.111816, 965.474121 854.569397, 963.871460 855.024475, 962.786377 856.302917, 961.286316 854.810608, 958.900635 856.305725, 958.451111 858.052734, 955.795776 856.863525, 954.123047 859.577393, 951.401733 859.129150, 950.130005 860.652649, 948.569824 858.863342, 945.725525 858.820190, 942.594177 859.870300, 940.527649 861.510315, 938.348145 861.754883, 936.456543 863.104248, 934.796875 863.414734, 932.628601 864.592773, 931.991333 866.005127, 930.726013 865.750671, 928.476746 867.203064, 926.021057 868.791260, 924.125793 871.709839, 922.352722 875.278015, 918.983704 877.521729, 917.782715 880.028931, 916.902710 881.733215, 915.287720 883.534363, 913.012756 885.454773, 910.380981 887.946350, 907.549194 890.646240, 905.061951 892.719604, 905.210449 894.252380, 903.694458 895.164368, 899.870056 895.231201, 896.520691 898.017639, 894.420166 900.922302, 891.144104 901.517578, 887.500732 901.873596, 884.163940 903.528687, 881.917175 905.026062, 879.658569 905.451904, 877.430054 906.825439, 875.038391 908.070679, 872.609680 908.246521, 869.674133 909.640076, 867.290283 912.451965, 863.372742 912.872742, 861.783020 915.474182, 860.341431 917.008301, 858.254456 917.923828, 855.363403 918.596008, 854.665588 921.711853, 853.896423 924.324829, 852.045349 926.232605, 851.029114 929.004761, 849.371765 930.702087, 848.309082 933.767334, 847.763367 936.866211, 846.388428 939.727173, 844.592957 943.758545, 844.466003 946.969421, 842.734314 948.017395, 843.235229 951.388062, 843.752136 954.892883, 843.622681 958.526367, 841.290649 959.758728, 839.479492 962.934937, 838.397095 965.718140, 835.437500 967.324890, 833.486450 969.457397, 832.397705 971.279846, 830.369873 973.437561, 832.487854 974.395630, 832.038940 975.450317, 831.822205 977.294861, 831.819763 979.008850, 830.281555 980.279602, 827.527222 981.882996, 824.932678 983.711792, 821.560486 984.836060, 819.392212 986.984863, 817.767334 988.176270, 818.153137 990.201965, 817.777222 990.775879, 816.799744 990.733398, 815.428101 992.182556, 813.276794 994.257446, 814.478149 996.036011, 812.883850 996.384521, 810.975464 997.684326, 811.139893 1000.416504, 812.434448 1001.766541, 811.354248 1002.208984, 808.999146 1002.790466, 809.030029 1005.923950, 807.395081 1008.892212, 809.942261 1010.947205, 809.471375 1013.653687, 808.338379 1016.359314, 807.990540 1019.787170, 807.550720 1021.876587, 809.820923 1022.283081, 805.212891 1024.000000, 805.752502 1023.127197, 804.894653 1021.606934, 802.931641 1019.654236, 803.159668 1016.952881, 800.423645 1014.599670, 798.747253 1012.788818, 796.869934 1012.046997, 796.236572 1010.243958, 794.652954 1009.712585, 795.757690 1008.505310, 795.145874 1006.740479, 793.492004 1006.248291, 794.713074 1004.903687, 794.180969 1002.850952, 792.041504 1001.925476, 791.676453 999.166687, 790.362122 996.897034, 790.691162 994.268066, 788.638000 992.611206, 788.030029 990.025757, 788.612305 987.014709, 786.199463 985.331177, 786.777954 981.029846, 787.403931 976.483826, 785.010071 975.190857, 786.218201 973.679016, 784.439697 971.463623, 784.152283 968.640991, 781.583984 965.893677, 779.332520 962.763062, 777.449646 959.716064, 776.796021 956.949463, 777.241455 954.071960, 777.918823 950.601868, 778.825439 947.216797, 780.391907 943.713745, 779.864807 940.861755, 782.375549 940.012451, 784.793396 936.530212, 787.997131 932.708313, 789.759460 928.735168, 789.441101 926.589355, 788.479492 923.388184, 787.977112 920.480103, 790.224243 918.269043, 790.957703 915.166077, 792.466492 914.528442, 795.004395 913.917358, 797.965332 912.408569, 801.032776 911.520630, 802.061584 909.640320, 801.357849 907.537659, 803.682922 906.043518, 804.104004 903.934143, 805.119690 902.922974, 807.198853 902.489441, 809.861816 901.873718, 812.591736 901.243408, 814.962463 900.257446, 816.584900 899.056885, 817.488037 897.411987, 818.190735 895.885254, 816.676453 894.712769, 818.415649 894.572144, 817.999451 893.438354, 820.293030 893.587097, 820.065613 890.949280, 819.784912 888.924805, 821.128601 887.445618, 821.601074 883.633423, 823.565491 882.288635, 823.123901 879.913940, 823.202454 878.242126, 823.536011 876.848816, 824.344238 877.274658, 826.541138 875.818542, 829.238281 874.266602, 831.715027 872.513062, 830.614624 869.831909, 829.665100 866.971436, 831.991211 864.827515, 833.684998 862.226929, 835.515015 859.366943, 836.575378 856.200439, 835.833313 853.245850, 835.554138 850.944885, 836.635864 849.082703, 837.520569 847.243530, 838.443298 846.132202, 840.168884 845.182129, 843.397705 843.979004, 841.308167 839.872925, 841.806396 838.420227, 843.520325 840.494629, 845.622375 839.665771, 846.297058 837.338074, 845.694885 836.136475, 846.082764 835.233948, 847.381958 836.400879, 849.861633 837.864929, 851.814392 835.686829, 855.182251 836.368286, 857.004211 834.134399, 856.277832 832.579102, 855.103516 832.276123, 856.038086 831.803833, 857.398071 830.979370, 859.117065 829.236328, 856.516846 825.479126, 853.314270 825.056213, 850.059143 822.090149, 849.015442 817.844055, 848.702454 814.804321, 849.200378 812.011414, 852.215759 809.967102, 853.177368 807.755310, 855.238098 808.412109, 857.931335 807.021362, 861.111206 806.171631, 861.460327 804.016541, 863.597168 801.913940, 863.052917 799.066223, 862.067749 796.833252, 864.349976 795.653687, 863.319641 793.368896, 861.865173 791.048462, 860.323486 788.691345, 858.626343 785.739441, 858.848999 783.158752, 858.072632 781.520020, 859.119385 779.533936, 857.702759 777.806641, 855.837585 776.025024, 856.806213 773.498901, 856.985596 771.304138, 856.878052 769.236389, 856.206421 766.812866, 854.113098 763.628357, 850.300354 760.619690, 846.928345 758.405273, 844.746704 756.164062, 843.067078 753.930786, 841.645752 752.156067, 841.086365 749.690613, 841.339355 746.197571, 841.606445 742.337952, 841.707214 738.252930, 840.847473 734.111450, 838.991150 730.043152, 834.966187 729.213501, 831.099731 730.572144, 827.486389 736.606567, 825.579834 739.623779, 823.513489 740.658569, 819.883911 743.874023, 816.090210 746.222046, 811.235168 749.726562, 807.661255 752.862610, 805.246033 756.191650, 803.825867 757.693176, 802.715515 759.744019, 802.098022 764.094849, 803.135254 766.223328, 802.234253 766.606689, 800.246277 768.162537, 800.076965 770.420532, 797.311096 771.497131, 793.648010 774.353760, 790.049500 775.122803, 786.483704 775.688721, 782.258728 775.958801, 778.161865 776.621643, 773.884583 777.728516, 770.718384 780.865967, 767.656250 783.764526, 763.182617 784.640808, 759.024353 785.745972, 756.255798 787.691895, 753.780334 789.169556, 752.847168 790.343262, 750.604248 790.140747, 745.617554 791.983337, 741.728821 793.583923, 738.609741 796.169678, 736.380981 798.422241, 733.785950 800.771729, 730.622253 800.471069, 727.373108 803.129028, 724.008484 805.331726, 722.148987 807.622986, 719.984741 806.776611, 715.861511 806.999329, 713.548340 807.249390, 712.364929 807.580261, 710.116821 808.088318, 706.092651 809.685486, 703.592346 811.766968, 700.854980 812.303284, 698.276489 815.052734, 696.086487 817.696899, 696.045227 819.708801, 694.636475 820.027222, 693.362122 822.486206, 692.152710 824.471924, 689.133545 825.913025, 687.805603 827.847412, 686.097107 827.266479, 683.593994 825.566162, 681.130005 825.247437, 678.591125 824.874207, 673.951782 823.840576, 673.044861 826.941711, 670.623718 827.375122, 667.812866 829.098145, 665.044617 829.661743, 662.247131 831.036987, 658.682983 831.078796, 654.072449 832.505005, 649.766602 833.525879, 645.858948 833.974304, 641.680237 834.004395, 638.216187 833.544983, 634.760071 834.613403, 631.409790 835.642334, 628.626160 835.091431, 625.814209 834.455688, 622.988037 836.423523, 621.138794 837.215820, 620.196838 835.160034, 617.018860 834.954956, 614.132996 834.215149, 611.890259 833.151062, 609.157349 831.910522, 605.607117 831.236816, 602.210632 830.620361, 599.277588 829.797485, 596.559143 829.900024, 593.339111 829.609253, 590.953430 829.532715, 588.256042 828.222046, 584.639893 827.261475, 581.027771 826.464844, 577.473694 825.923279, 575.467468 826.166382, 572.868103 824.704712, 569.144043 823.422791, 567.858337 824.362793, 566.059570 823.233276, 563.572937 821.128662, 561.722900 820.041992, 559.189026 819.211182, 555.538452 818.031189, 551.870361 816.541626, 549.912964 817.041077, 548.956909 813.736328, 543.908386 811.615234, 538.926636 810.319458, 535.022095 807.673767, 531.446411 806.205872, 527.699951 803.101807, 523.280457 802.075928, 520.794739 801.508972, 518.279968 799.667969, 516.385193 797.046997, 512.485779 793.891602, 508.870850 793.366150, 504.664520 791.106628, 500.568115 789.340942, 496.841644 787.477661, 491.959839 786.844604, 488.133820 784.358093, 484.991577 781.822327, 482.916901 782.051697, 481.319031 779.868042, 479.806244 776.728394, 478.846130 773.874390, 478.602356 770.660461, 477.351227 766.693359, 475.261993 764.264648, 474.003815 760.375549, 473.196289 755.440918, 472.879120 750.488708, 471.242676 746.896423, 469.564392 742.980469, 469.933075 738.322571, 468.290344 735.860352, 467.484009 731.643494, 468.119659 727.012695, 466.683807 722.012451, 464.773499 721.810242, 464.839630 720.069946, 463.885895 718.827087, 465.171356 717.280518, 463.819641 715.202759, 463.085510 714.203979, 463.832611 712.392700, 462.641632 709.870361, 461.986145 708.756226, 460.892639 706.560303, 459.298218 704.906982, 460.214935 702.764343, 460.380493 699.687622, 458.593109 695.258545, 457.659912 692.212524, 457.122192 689.555054, 454.793976 685.429077, 454.261963 682.810425, 450.461945 680.527954, 446.989777 680.138306, 446.428528 679.058472, 443.328339 678.453857, 440.453033 677.086182, 438.563202 676.969604, 437.127014 675.694458, 435.411255 673.164185, 434.279388 672.015930, 435.072968 670.291809, 433.353455 669.152832, 432.420288 667.373657, 430.854523 666.512817, 428.764709 664.564819, 426.455200 663.485107, 425.874298 661.863403, 423.234192 660.156372, 422.490021 658.252441, 421.117340 656.528687, 419.324860 656.469116, 418.598633 655.131226, 415.106384 653.931030, 412.672638 654.018799, 411.630676 654.158203, 411.550598 652.651367, 407.102264 652.148804, 403.646362 652.833008, 401.699249 653.390503, 400.457245 652.182251, 398.919159 650.513184, 394.456085 650.298340, 390.671417 649.749512, 389.713196 651.993530, 388.428101 650.706116, 386.194122 648.948486, 384.756348 648.510864, 384.725464 645.121765, 381.025269 643.180786, 377.488922 642.287292, 373.342377 640.114380, 369.524597 639.941040, 365.066803 639.725098, 361.989227 642.102417, 359.475006 641.710693, 355.699402 643.517700, 353.279449 642.137024, 350.010376 642.814331, 346.610382 642.405579, 343.085052 644.057678, 339.354034 643.686768, 336.421387 646.177490, 333.582153 648.476440, 330.750641 650.522705, 327.798767 651.988647, 325.689667 654.610229, 323.315613 656.213745, 320.740845 657.388550, 317.530640 658.537231, 315.420227 661.014771, 311.973022 661.687744, 309.577789 663.941284, 306.929565 666.085266, 303.819427 664.977783, 300.838043 665.638184, 297.454559 665.394897, 294.029572 663.673645, 290.415680 661.549072, 286.622131 660.158081, 284.393585 660.342041, 281.591492 658.916992, 279.097229 655.843262, 274.602051 655.234192, 271.013458 653.065674, 267.066681 650.486389, 264.020844 649.460083, 262.356873 647.885010, 259.859619 645.734009, 259.006317 647.003906, 258.082642 645.913513, 256.087585 644.009705, 255.099503 644.924805, 253.389420 643.393677, 251.542725 640.312500, 247.509460 638.802979, 244.139984 636.188232, 241.054276 634.753174, 237.718674 632.423096, 234.168610 631.892578, 230.788498 631.696167, 227.074188 629.248779, 223.197052 626.683350, 219.127213 623.979614, 214.830032 621.259033, 212.780746 621.940735, 210.345108 620.090515, 208.535553 620.965454, 206.391907 619.189819, 202.326355 616.201904, 200.609085 616.984192, 198.210510 614.798828, 194.076828 611.387512, 189.954636 608.130981, 187.063126 606.001160, 184.761032 604.385254, 182.996368 601.844360, 181.006607 600.935303, 179.323212 598.845337, 175.300873 596.316528, 172.765945 595.211426, 172.223007 593.032227, 170.363617 592.110596, 169.110153 589.703552, 167.466797 585.104187, 164.225632 580.304443, 162.621841 577.023560, 162.120621 574.098999, 162.977951 570.995850, 162.156464 565.105591, 160.449371 560.075073, 160.547638 554.776489, 161.011703 549.881348, 161.197601 544.272156, 161.677551 538.736877, 159.646820 533.327637, 157.199142 528.144531, 154.697342 523.406555, 152.816589 522.942383, 152.643570 521.222046, 151.290726 519.519165, 150.403351 516.544434, 148.744125 513.432495, 148.391663 510.551392, 148.206421 506.505859, 147.178787 503.053467, 146.930466 500.337708, 147.702118 497.185181, 146.050552 492.261047, 143.858673 487.028503, 142.209534 485.983398, 142.479965 483.165894, 140.895035 479.041077, 139.600784 476.901306, 141.202713 474.987000, 139.516891 471.549744, 137.923370 469.791077, 136.725143 468.368652, 138.819427 468.082947, 138.517441 464.152466, 136.793091 460.938416, 136.865692 457.137695, 134.910553 455.375000, 135.503876 453.097473, 135.218781 449.191162, 134.248459 446.755920, 133.954681 443.463806, 134.342056 439.423462, 134.908310 434.990112, 134.592148 432.403870, 135.799698 428.872864, 135.848602 425.480591, 135.577042 421.254761, 135.214676 416.367188, 134.008530 413.772461, 133.831314 410.870361, 133.674164 408.146179, 133.905975 405.991211, 135.302582 404.219482, 137.397980 402.108704, 135.974869 399.173889, 136.471878 396.506042, 138.256332 393.889221, 139.110489 388.539368, 140.079895 385.465454, 140.649048 382.968567, 140.658096 378.944763, 141.082520 375.172791, 142.097733 371.224792, 142.998352 365.937134, 143.724472 360.221069, 144.296707 354.048462, 144.817810 348.448364, 145.748947 341.964172, 145.833679 339.848206, 147.335464 338.624023, 149.116760 333.901611, 151.197876 326.762573, 151.994629 320.594299, 152.278412 314.795959, 150.589615 310.366394, 148.595749 308.732605, 146.180923 306.233459, 143.071426 302.924438, 139.712494 300.242676, 136.191833 297.875305, 132.686478 295.878174, 129.619812 294.675720, 126.982887 293.953613, 125.643562 291.764648, 123.625999 290.985779, 121.448486 289.787048, 118.737556 288.216980, 115.421265 286.575867, 112.018089 284.690369, 108.671844 282.636536, 105.703537 280.316467, 103.258385 280.208740, 101.122864 278.412354, 98.446648 276.292786, 96.078110 275.975220, 94.434380 274.877014, 93.074532 275.781006, 92.533371 273.677246, 89.559845 274.516663, 86.660599 274.675232, 84.557457 273.593323, 83.456100 271.355347, 81.051544 271.726440, 80.482475 272.985107, 79.549004 271.887024, 78.560661 270.958191, 77.293472 269.678528, 75.341141 269.527100, 73.506851 268.406921, 71.461479 266.131897, 67.560074 265.682983, 65.563507 266.647095, 63.919033 265.280762, 61.086601 263.640625, 57.255188 262.049622, 55.591022 260.403137, 54.550323 259.190552, 53.868343 256.631287, 51.261654 255.180359, 51.884190 252.159912, 49.265926 250.096802, 47.002369 248.596497, 45.741066 246.609131, 42.889599 246.283630, 42.248867 247.508118, 41.059978 247.428894, 39.500984 247.173950, 37.804157 247.306091, 38.542408 245.908630, 37.550606 243.530884, 35.482651 243.656555, 35.793308 241.143982, 34.807205 238.572144, 34.146690 237.460876, 35.023239 235.656189, 33.376152 232.973450, 30.434816 231.734436, 29.059381 229.131714, 25.043381 226.750671, 23.172794 222.455872, 22.242025 218.491272, 20.351002 215.051331, 16.790213 213.773682, 15.085455 211.496155, 14.195747 208.505432, 12.881063 206.096191, 11.291088 204.116455, 9.777167 201.337769, 9.207266 197.974060, 7.909939 194.466125, 5.368105 191.205505, 1.980331 187.626709, 0.881402 184.846436, 0.286957 182.371277, 0.000000 179.662354, 0.430389 176.649109, 0.710347 171.733215, 0.956617 167.594238, 3.204588 164.720154, 3.832161 160.340332, 2.432930 157.781860, 3.296788 155.263855, 4.463374 152.661072, 2.517198 151.698730, 3.506943 149.645630, 2.432277 147.125061, 3.965888 143.824829, 5.633226 140.658020, 7.469845 137.507874, 9.493942 134.588623, 8.990018 131.572449, 7.139307 130.063477, 8.516982 128.565552, 10.524282 125.523804, 13.679598 122.595581, 14.342072 119.533264, 14.038131 117.097900, 14.865594 115.412048, 14.873059 113.067688, 17.011940 110.430420, 17.051321 107.668213, 19.067579 106.388062, 18.803299 103.891663, 20.298557 102.237122, 20.171082 100.097595, 22.501640 97.378845, 29.016455 95.048340, 37.303963 94.385315, 40.334511 94.719910, 41.365692 95.791382, 41.409180 97.289368, 42.409561 98.302490, 42.720036 102.001221, 45.492836 102.020996, 47.329826 104.182556, 49.230370 105.937317, 51.708374 105.736877, 53.440384 108.407532, 56.968136 107.425415, 58.101871 103.603455, 60.122517 106.307556, 63.204952 105.208618, 65.757423 104.122253, 67.305405 105.462158, 69.238701 105.258911, 70.693085 105.220459, 72.263184 105.760315, 74.126961 105.427734, 76.130623 106.573608, 78.075211 105.532349, 78.717812 108.236145, 81.318901 109.958130, 83.374817 112.433411, 86.234688 113.985107, 88.350891 115.639038, 90.477264 117.822388, 91.287094 121.004395, 93.553078 122.653015, 95.849571 124.486694, 98.483047 126.736450, 99.542595 130.031189, 102.189598 131.706177, 104.952881 133.139587, 107.988556 134.080444, 111.759781 134.492126, 115.426208 136.362854, 119.289070 137.991638, 122.600792 139.452515, 125.722420 137.423889, 129.550095 135.222473, 130.998795 132.978149, 131.847809 131.817993, 133.034271 131.609497, 134.768799 131.115356, 138.078934 130.413635, 141.999374 129.745361, 146.326218 128.638062, 150.950577 127.094177, 153.741852 124.835938, 156.018570 122.712463, 159.179474 120.298523, 161.933792 116.982056, 163.971436 114.225952, 165.755234 112.811035, 168.277191 111.460388, 170.863907 110.443909, 172.677948 110.299194, 174.106201 108.816528, 175.695984 108.822693, 176.939835 108.704712, 179.523483 107.070251, 182.956421 106.108032, 185.981277 101.869568, 186.961227 97.704895, 188.780014 94.329895, 190.590317 92.760071, 191.833237 91.540405, 194.064423 89.963928, 197.873993 87.547241, 200.816818 84.413025, 202.562271 81.183350, 204.311356 78.011047, 207.178589 74.715088, 208.703430 72.010498, 211.352951 70.306396, 214.681198 70.312744, 216.694275 66.736023, 218.551895 63.813965, 219.862289 60.493286, 220.226135 56.917297, 221.382553 54.386597, 222.718140 52.449951, 224.435959 50.862000, 226.135117 49.501038, 227.645218 47.135498, 229.931351 45.634460, 231.420364 43.599976, 234.783035 42.965942, 238.289795 40.810547, 241.708923 38.923950, 245.142319 37.045349, 246.258698 34.089966, 248.820694 35.364380, 251.000824 36.496704, 254.070847 35.566406, 256.453186 36.943420, 257.621643 35.659058, 258.294098 36.092346, 259.941010 37.056885, 261.768311 39.910339, 264.092041 42.734009, 267.179810 43.802551, 268.715820 45.386292, 270.879822 46.534058, 273.169678 47.615417, 275.595154 48.904236, 278.237854 50.299500, 280.628815 51.695618, 282.876038 50.855286, 282.804077 52.747131, 285.057281 53.738831, 286.824371 52.792053, 287.332123 54.654114, 289.963440 55.546631, 293.050720 56.855042, 295.885681 57.218933, 298.432831 56.326050, 300.633301 55.553467, 301.111847 57.754028, 304.079407 57.658081, 306.390747 59.437988, 309.493988 60.281494, 312.170563 61.087830, 314.551331 61.664917, 316.272064 61.890198, 318.039612 61.375854, 320.045624 61.319641, 321.707245 62.305176, 323.038910 63.207153, 324.593811 63.521973, 326.166809 62.993835, 327.373596 63.394775, 328.974609 64.226929, 331.724243 65.881042, 334.838043 67.577209, 337.662170 69.426025, 340.024353 71.345032, 343.226257 71.948242, 347.355804 72.890137, 351.124878 73.639893, 354.066132 74.708008, 355.813354 76.898315, 358.464752 78.204102, 361.450684 78.700195, 363.422058 79.617004, 364.666290 81.382751, 366.813568 84.127869, 368.694031 86.233398, 369.661591 88.486694, 373.368774 88.801086, 376.440399 89.141174, 379.198364 90.797791, 381.387543 93.438721, 385.090637 93.980042, 387.794922 95.825073, 390.347504 96.281006, 392.388123 98.024414, 394.109955 97.953796, 395.194244 100.026794, 397.704437 102.273926, 401.885040 103.045776, 405.163727 103.768494, 406.975708 105.350525, 408.435425 104.766724, 409.498230 105.404663, 411.052094 106.965332, 417.393616 107.368958, 420.746857 106.846741, 423.896851 107.088623, 425.228882 106.776001, 426.577393 107.306335, 428.257141 107.853027, 428.906433 108.992432, 436.840912 108.928223, 445.463074 107.756409, 454.341003 106.439392, 457.475006 104.195740, 462.120850 102.912781, 465.793579 101.320862, 466.942657 100.484863, 469.786072 100.785461, 473.766083 98.209473, 476.805511 95.511719, 479.920868 94.997681, 481.176910 93.084839, 481.745117 91.989258, 483.521637 92.717163, 487.917267 89.856384, 491.263947 87.410278, 494.719574 85.970703, 497.142822 83.435059, 499.174896 81.101318, 502.293823 80.364868, 504.370361 78.449524, 506.882538 76.531738, 509.887604 74.347717, 511.881805 72.259277, 513.941772 72.343689, 515.870483 71.411987, 518.778442 71.743530, 520.903625 70.214294, 522.328552 68.639648, 523.693665 67.658875, 526.335876 67.447083, 529.115906 66.285767, 531.148499 64.735779, 532.889038 62.509033, 534.337402 60.395630, 536.850586 60.573914, 539.119019 57.738037, 541.395508 55.156494, 543.917847 52.927734, 544.173279 49.466248, 546.146606 48.157532, 547.437256 46.935425, 548.715759 45.797180, 550.480652 44.783203, 552.724731 43.631042, 555.723389 42.149536, 556.348022 39.519958, 558.669006 40.279114, 561.566528 39.162292, 561.996643 37.008484, 564.619202 38.147583, 565.295410 35.553711, 566.351379 33.035828, 567.366882 30.738403, 569.358582 32.015320, 570.141541 29.729431, 571.663208 31.262878, 573.495300 30.531921, 573.686462 28.362122, 575.140747 29.996521, 577.154907 29.027039, 579.437256 28.210327, 581.114807 26.755188, 582.692200 25.535767, 580.486938 22.750000, 583.463379 23.237610, 582.116943 20.669067, 583.084839 19.190491, 583.836975 17.083191, 584.035583 15.971863, 584.304199 15.416199, 584.426270 13.821960, 586.257568 12.078369, 584.493042 9.798401, 585.128174 8.045410, 585.365723 5.867310, 585.724182 3.360107, 585.711853 0.747070, 589.182068 0.306152, 592.418945 0.000061, 595.410950 2.391785, 598.677734 1.408508, 602.188110 0.555786, 605.710693 2.495850, 609.373901 2.587769, 612.340820 1.697815, 615.551208 1.185913, 618.632446 0.873535, 621.947937 2.910400, 625.251160 4.045837, 628.050598 5.546753, 630.745850 7.726807, 633.990417 7.304626, 637.136230 7.089417, 639.608215 6.796021, 641.741882 7.490723, 643.539307 9.327698, 646.024597 11.475647, 649.624634 11.391174, 653.149963 11.505127, 656.281128 11.788330, 659.132019 11.993164, 661.849487 12.247559, 664.975281 13.272278, 668.135803 12.582764, 670.771423 14.533508, 673.235535 16.424988, 676.488159 16.104919, 678.117371 15.823730, 679.956482 16.217896, 683.424622 15.740295, 686.763855 15.679749, 689.680481 14.930664, 691.549805 12.870178, 694.296265 14.197571, 696.509827 12.434753, 698.806824 12.168396, 700.353638 10.989258, 702.144165 10.055420, 704.546570 10.698730, 707.661438 11.679688, 709.655823 8.855591, 710.729370 12.256348, 711.691162 14.076721, 712.804321 15.212402, 712.498657 16.213989, 712.032166 17.918945, 712.130920 19.675476, 713.349487 21.445801, 713.479492 24.254883, 715.885498 25.621521, 715.976440 27.845703, 714.478516 30.373169, 717.320679 31.974792, 717.509216 34.929321, 718.171814 37.944275, 719.242188 42.245850, 719.947021 47.843140, 720.691467 51.610901, 721.365906 54.746887, 720.304382 58.510742, 721.356934 61.801208, 719.770142 65.809998, 719.037415 69.452698, 716.801636 71.746338, 713.834473 75.006226, 712.472046 78.955627, 710.799011 82.412476, 710.169495 84.932739, 711.499573 87.938843, 714.558838 90.122253, 715.544189 92.685425, 717.526184 93.412170, 717.797607 95.006592, 718.878357 97.599976, 720.882141 100.770630, 722.461182 102.177856, 723.733948 104.005554, 724.461670 107.360474, 725.107971 110.512207, 723.519165 114.250916, 725.808960 117.085449, 725.755737 120.253479, 725.305420 123.928284, 727.166138 125.670288, 726.324463 127.542908, 729.098083 129.905029, 729.670837 133.062805, 730.163086 136.443298, 730.901794 139.357849, 731.162109 141.682495, 732.334412 142.744202, 730.924866 144.417053, 732.110046 145.851746, 731.190918 147.752808, 731.980957 150.558105, 732.771667 154.222107, 731.980042 158.132874, 732.822937 162.045349, 732.353943 166.470642, 733.680115 170.476562, 734.931091 174.166809, 736.336548 177.862061, 737.504944 180.800110, 738.333435 184.079834, 739.689453 189.237854, 742.340149 195.177368, 745.412598 201.640869, 749.182861 203.501282, 751.961243 205.858276, 757.802246 208.681702, 764.244446 210.355103, 769.561890 210.494080, 771.528198 208.440308, 776.763184 206.892212, 781.902466 205.080994, 786.283508 203.553894, 790.067566 202.091492, 793.451233 200.521790, 796.495117 198.801697, 798.584961 197.357910, 801.045471 196.960327, 803.857788 197.404358, 806.254639 196.146606, 809.196960 195.951721, 812.521301 196.396667, 815.994019 194.457886, 819.080994 192.403076, 822.920471 192.300903, 823.236328 190.637390, 824.162903 191.031006, 826.334534 191.470276, 830.325073 190.310669, 833.795776 188.936096, 836.974976 187.781921, 839.889526 186.560364, 841.751953 183.781799, 844.527405 182.814514, 847.584412 182.037048, 850.914673 181.572083, 853.313721 179.755249, 856.635620 179.923584, 860.587524 180.523621, 864.231934 179.104980, 867.619690 177.857300, 871.718567 178.570007, 875.398132 176.922729, 879.478638 175.208618, 879.872437 172.491516, 880.811584 173.337585, 881.085388 174.154358, 883.215881 175.345520, 886.910034 174.238403, 890.113770 175.501892, 892.818726 174.548462, 895.920227 174.760803, 899.768311 174.623108, 902.997925 174.019287, 904.927490 174.284119, 907.913208 175.007812, 911.019531 172.182068, 915.596863 171.452393, 919.154602 171.295715, 923.420593 170.126648, 928.466736 169.243713, 931.250000 167.488770, 934.848572 166.917664, 940.218750 166.422791, 944.874451 167.009827, 948.387329 167.414551, 951.316650 168.870544, 954.711304 170.591003, 958.327087 172.400513, 961.721191 172.004761, 964.008118 171.915955, 966.480957 172.149536, 970.379639 172.310669, 973.231018 172.602295, 976.078857 172.997986, 978.265991 172.649597, 979.968506 172.113770, 981.393311 170.655640, 982.206421 170.260742, 981.671753 172.362732, 984.149109 173.526001, 987.499084 174.656372, 991.136230 174.891602, 991.302429 176.997253, 988.635559 178.196594, 989.965454 179.839111, 987.846069 181.341736, 988.265625 184.465332, 988.541016 186.907410, 988.889282 189.401917, 991.070740 191.164062, 990.402344 193.969666, 991.550964 197.448120, 992.637756 201.228577, 993.836060 204.965271, 994.527832 207.696655, 995.502441 208.990906, 997.034790 210.496521, 1000.020630 213.118958, 1003.513733 215.080200, 1006.505676 216.244507, 1009.481812 216.600342, 1012.269592 216.753174, 1015.708923 216.918945, 1017.390442 218.458435, 1020.566284 219.053528, 1023.165283 217.218384, 1025.095947 216.997131, 1026.051270 218.461853, 1028.492676 220.962097, 1032.541016 222.023865, 1036.715698 223.085876, 1039.053223 222.256531, 1040.959351 221.855042, 1043.218750 223.447937, 1046.225708 223.168152, 1049.207397 222.956726, 1052.102295 222.747009, 1054.053955 222.416565, 1055.184326 224.465027, 1057.377930 223.768555, 1059.399414 223.629517, 1062.397949 223.776672, 1064.847046 223.215637, 1067.601929 223.427124, 1068.039551 220.999878, 1069.955322 222.216858, 1071.950317 221.169922, 1073.726440 220.949097, 1074.459351 222.875122, 1074.164673 225.566650, 1074.322632 228.963379, 1075.869263 232.339417, 1076.609375 234.302307, 1076.201782 236.378662, 1075.842041 239.442627, 1075.710205 241.376526, 1075.402100 243.803345, 1074.592285 246.913635, 1075.403320 250.185974, 1077.416870 250.337036, 1077.751099 252.664734, 1078.399292 256.912842, 1079.015991 260.515503, 1080.556885 264.431641, 1082.769287 267.753906, 1082.810669 272.037964, 1084.420776 275.026672, 1085.574341 277.731262, 1086.106323 280.648743, 1086.310791 284.067932, 1086.542114 287.650146, 1086.259644 291.072754, 1085.713013 294.210815, 1084.978027 297.427002, 1084.466553 300.692932, 1084.507690 304.763123, 1088.633301 305.719177, 1089.510132 308.664246, 1090.388916 311.614197, 1091.751221 314.904846, 1093.713745 318.545471, 1096.119385 322.118896, 1099.565552 326.045227, 1103.220093 328.752747, 1106.038330 332.169983, 1107.098145 334.861694, 1107.892090 337.335327, 1108.899292 341.392090, 1111.516357 345.743408, 1113.590332 350.157104, 1115.447510 351.398865, 1115.303589 352.283386, 1116.835815 355.878296, 1119.331543 360.414307, 1120.391602 365.082825, 1122.363403 370.553589, 1122.730957 374.435730, 1123.408081 379.227722, 1124.093750 383.999084, 1125.357178 390.607361, 1125.643921 394.174377, 1125.362061 399.171570, 1125.619141 403.211548, 1125.554565 407.074036, 1126.147339 409.575745, 1125.103271 411.597107, 1125.203491 413.731262, 1124.578735 416.445068, 1124.494141 420.678162, 1124.782715 424.651367, 1123.050659 427.634888, 1124.129150 431.867004, 1125.137817 436.343933, 1126.239258 441.003418, 1127.116577 446.014587, 1127.323242 449.053284, 1125.434814 450.366821, 1126.030640 453.263977, 1124.959961 454.487244, 1124.562622 458.137390, 1122.674194 461.587585, 1120.966797 466.698486, 1121.042114 469.236633, 1119.157715 471.057983, 1117.558228 475.236694, 1117.696533 480.987549, 1118.041626 484.420166, 1117.845459 486.875305, 1117.809570 490.488037, 1116.258179 494.076477, 1114.685181 497.260010, 1114.299805 502.080566, 1112.525879 507.028503, 1111.035278 511.850281, 1108.828613 515.383362, 1109.283081 520.711670, 1109.921875 524.967163, 1109.254639 528.662476, 1109.313354 532.833374, 1109.389038 536.715881, 1110.096558 538.048706, 1109.363281 539.741577, 1108.881104 542.644958, 1107.373047 543.925171Z "/>
    </clipPath>
    <filter id="dropshadow">
      <feGaussianBlur in="SourceAlpha" stdDeviation="2" id="feGaussianBlur12"/>
      <feMerge id="feMerge18">
        <feMergeNode id="feMergeNode14"/>
        <feMergeNode in="SourceGraphic" id="feMergeNode16"/>
      </feMerge>
    </filter>
  </defs>
  <g inkscape:label="rois" inkscape:groupmode="layer" id="rois" transform="translate(0,0)" style="display:inline;" class="display_layer">
    <g inkscape:label="shapes" inkscape:groupmode="layer" id="rois_shapes" transform="translate(0,0)" style="display:inline;" clip-path="url(#edgeclip)">
      <g inkscape:groupmode="layer" id="layer12" inkscape:label="mPCS" style="display:inline">
        <path id="path486" style="stroke:white;fill:none;display:inline;filter:url(#dropshadow);stroke-width:2;stroke-opacity:1;fill-opacity:0" d="m 2004.0605,98.900391 c -7.7617,0.06307 -15.542,0.541415 -23.3339,1.513669 -10.1564,1.23821 -20.7705,1.27221 -30.1856,5.78321 -32.9115,21.01449 -47.701,63.98659 -36.9765,101.14648 4.7952,23.57334 20.7204,43.33239 40.7363,56.86523 13.7656,3.64647 27.1846,8.9629 38.6015,16.76954 35.6876,6.74122 70.8184,-8.42248 105.0059,-16.88868 36.886,-11.88784 78.3906,-38.39658 78.3301,-81.85156 4.1767,-41.68694 -39.0788,-60.30606 -72.9336,-66.96484 -32.3283,-9.10489 -65.6101,-16.646335 -99.2442,-16.373049 z"/>
        <path id="path675" style="stroke:white;fill:none;display:inline;filter:url(#dropshadow);stroke-width:2;stroke-opacity:1;fill-opacity:0" d="m 448.32227,25.730469 c -32.53132,-0.103413 -65.41677,3.168306 -97.69727,1.503906 -16.74327,-0.23259 -33.65737,-2.236515 -50.25391,0.925781 -17.49231,9.606169 -24.72413,33.750991 -13.38281,50.691406 10.20534,18.928652 29.27891,32.250768 49.98828,37.287108 32.31336,20.55091 67.9175,38.42287 105.29688,48.12695 1.60958,-1.04756 3.28936,-2.04018 5.05468,-2.95898 23.1482,-12.04792 57.32784,-10.22991 87.3125,3.53711 29.56536,-15.64453 48.03265,-52.85743 39.19922,-85.503906 C 567.98527,55.476243 544.6209,43.17991 523.13477,36.007812 498.71201,27.932012 473.6244,25.810901 448.32227,25.730469 Z"/>
      </g>
      <g inkscape:groupmode="layer" id="layer11" inkscape:label="sPCS" style="display:inline">
        <path id="path471" style="stroke:white;fill:none;display:inline;filter:url(#dropshadow);stroke-width:2;stroke-opacity:1;fill-opacity:0" d="m 1920.1152,258.69922 c -17.6029,0.0818 -39.9139,6.21423 -48.041,24.04492 -11.2384,25.49072 -16.3338,57.9168 0.4375,82.23828 12.0538,25.10812 38.1772,43.76723 66.0957,45.21094 12.8235,-12.93118 35.8115,-16.09855 52.502,-17.0625 6.5661,-0.0323 13.5078,1.29192 20.5703,3.5 12.2047,-9.70953 14.0634,-27.30799 14.5488,-42.04492 2.782,-23.34656 -3.8865,-47.41869 -23.4707,-65.73828 -19.1834,-17.96356 -47.5239,-25.94337 -73.4687,-29.60743 -2.817,-0.3639 -5.9141,-0.55616 -9.1739,-0.54101 z"/>
        <path id="path658" style="stroke:white;fill:none;display:inline;filter:url(#dropshadow);stroke-width:2;stroke-opacity:1;fill-opacity:0" d="m 443.70364,280.7022 c 57.93074,71.81707 191.64837,-1.55675 131.43776,-85.82101 -32.84511,-38.3965 -92.88839,-51.75069 -127.81272,-33.57365 -42.69515,22.22151 -39.57202,83.43092 -3.62504,119.39466 z" sodipodi:nodetypes="ccsc"/>
      </g>
      <g inkscape:groupmode="layer" id="layer10" inkscape:label="iPCS" style="display:inline">
        <path id="path459" style="stroke:white;fill:none;display:inline;filter:url(#dropshadow);stroke-width:2;stroke-opacity:1;fill-opacity:0" d="m 2051.7864,500.10286 c 24.7646,1.72269 45.7924,-24.53786 39.8136,-48.36463 -2.0984,-10.92746 -10.4029,-19.32621 -20.1367,-24.07065 -21.9337,-13.20126 -54.14,-34.66511 -80.3538,-34.53623 -25.2806,1.46007 -65.0242,7.95877 -61.9795,45.81873 -0.7678,29.67394 50.565,41.63171 67.5667,49.51683 17.0946,8.28219 36.2825,10.9916 55.0897,11.63595 z" sodipodi:nodetypes="ccccccc"/>
        <path id="path645" style="stroke:white;fill:none;display:inline;filter:url(#dropshadow);stroke-width:2;stroke-opacity:1;fill-opacity:0" d="m 369.59671,273.38423 c -23.13996,-8.20768 -52.06373,-14.36418 -73.35513,1.54092 -17.48629,17.44258 -7.5447,45.18425 5.38826,62.27449 20.6978,26.38421 52.79819,39.84337 82.35364,53.61783 32.67618,13.52127 74.87336,18.94719 104.30124,-4.67683 19.09818,-15.56785 11.56182,-44.71298 -4.50587,-59.52454 -19.95473,-22.89491 -51.58886,-26.9531 -76.51069,-42.16624 -11.82669,-5.67094 -24.41443,-10.55166 -37.67145,-11.06563 z"/>
      </g>
      <g inkscape:groupmode="layer" id="layer9" inkscape:label="sIPS" style="display:inline">
        <path id="path441" style="stroke:white;fill:none;display:inline;filter:url(#dropshadow);stroke-width:2;stroke-opacity:1;fill-opacity:0" d="m 1636.1953,213.31836 c -51.779,-0.56988 -99.6957,34.55178 -136.1211,71.50976 18.2621,11.15624 34.3954,26.13529 49.4844,40.98829 19.0262,22.37957 30.645,59.35617 11.4726,84.74804 -7.6662,4.43283 -15.9295,6.74063 -24.5117,7.84961 46.8551,35.99336 118.7889,45.81777 162.0606,2.98047 34.0047,-59.01642 38.4094,-160.72667 -26.334,-201.67578 -12.1571,-4.27167 -24.2047,-6.27001 -36.0508,-6.40039 z"/>
        <path id="path628" style="stroke:white;fill:none;display:inline;filter:url(#dropshadow);stroke-width:2;stroke-opacity:1;fill-opacity:0" d="m 810.03125,267.32812 c -9.58975,0.0539 -19.34406,1.79151 -29.00781,5.50196 -58.57977,10.19012 -62.51981,88.44281 -16.61133,118.05859 22.10147,21.73519 55.18221,31.00912 84.7207,25.11133 -2.86937,-9.25514 -2.62102,-19.39067 2.14844,-29.4082 13.42235,-21.88405 24.38862,-47.30983 48.66406,-59.13086 -17.00889,-34.47003 -52.18068,-60.34478 -89.91406,-60.13282 z m 195.33985,250.11133 v 0.42188 c 8e-4,-0.14045 4e-4,-0.28173 0,-0.42188 z m 0.014,2.40625 c 0,0.1121 0.012,0.2256 0.012,0.33789 0,-0.1123 -0.012,-0.22579 -0.012,-0.33789 z"/>
      </g>
      <g inkscape:groupmode="layer" id="layer8" inkscape:label="iIPS" style="display:inline">
        <path id="path428" style="stroke:white;fill:none;display:inline;filter:url(#dropshadow);stroke-width:2;stroke-opacity:1;fill-opacity:0" d="m 1457.5312,268.57422 c -29.4931,-0.62338 -49.9128,34.54515 -43.6953,63.60547 12.9793,8.3809 19.5977,24.05537 27.4668,36.90234 6.0533,9.57227 3.0464,25.09279 14.9121,30.54297 6.8613,4.57713 10.8538,11.329 13.3106,18.82812 0.2401,0.0349 0.4774,0.0755 0.7187,0.10743 29.6869,-2.99637 63.8985,7.55167 90.7871,-7.9961 19.1723,-25.39187 7.5536,-62.36847 -11.4726,-84.74804 -22.0813,-21.73596 -46.3956,-43.74825 -76.3516,-53.64258 -5.4285,-2.36122 -10.682,-3.49406 -15.6758,-3.59961 z"/>
        <path id="path610" style="stroke:white;fill:none;display:inline;filter:url(#dropshadow);stroke-width:2;stroke-opacity:1;fill-opacity:0" d="m 932.29492,320.77539 c -49.03723,-0.40925 -62.73051,36.00722 -81.01367,65.81641 -13.16056,27.64176 7.96189,56.22013 34.6582,64.54882 13.47313,-7.36054 31.8468,-10.42408 43.54493,-19.86328 18.37672,-13.10619 -13.36269,-82.94189 26.45117,-84.2539 4.37573,0.13104 8.60198,1.17278 12.69336,2.87109 -4.05439,-16.52197 -14.45633,-29.35265 -36.33399,-29.11914 z m 73.07618,196.66406 c 4e-4,0.14015 8e-4,0.28143 0,0.42188 z m 0.014,2.40625 c 0,0.1121 0.012,0.22559 0.012,0.33789 0,-0.11229 -0.012,-0.22579 -0.012,-0.33789 z"/>
      </g>
      <g inkscape:groupmode="layer" id="layer7" inkscape:label="VO" style="display:inline">
        <path id="path408" style="stroke:white;fill:none;display:inline;filter:url(#dropshadow);stroke-width:2;stroke-opacity:1;fill-opacity:0" d="m 1348.541,514.10352 c -4.3769,20.51593 -8.2578,41.17534 -16.2715,60.7207 -12.1203,29.50283 -25.5515,62.58602 -54.1679,79.65625 -1.3176,0.82086 -2.6257,1.44362 -3.92,1.91015 6.4106,27.39195 32.8253,47.85705 60.2168,52.53907 36.4966,8.03499 74.479,-12.49137 92.8438,-44.00586 7.7058,-12.72651 13.2486,-26.57494 16.8555,-40.95117 -24.6997,-17.20271 -40.63,-47.93651 -20.0821,-70.2793 -14.3378,-4.95219 -29.2176,-11.7958 -37.459,-24.33398 -6.477,0.83171 -13.2667,-0.20107 -19.3515,-3.38086 -8.2007,-1.48816 -14.4218,-5.91443 -18.6641,-11.875 z m 79.4219,40.9082 c 1.8324,0.59973 3.6494,1.18263 5.4258,1.73828 -1.7738,-0.55484 -3.5964,-1.14022 -5.4258,-1.73828 z"/>
        <path id="path688" style="stroke:white;fill:none;display:inline;filter:url(#dropshadow);stroke-width:2;stroke-opacity:1;fill-opacity:0" d="m 1035.0176,593.44531 c -0.82,1.79387 -1.8547,3.52485 -3.1699,5.16797 -8.0632,10.97439 -23.2553,15.80756 -36.08403,12.33203 -4.16114,13.41274 -19.49158,21.12608 -33.28125,20.72071 -11.17836,-0.40437 -22.30957,-3.14853 -32.57226,-7.82813 -1.56643,5.59343 -4.72043,10.80223 -9.40235,15.42188 -12.99113,13.41375 -33.14236,19.5684 -52.39843,18.30664 -15.18576,27.52974 -11.50309,65.37664 11.01953,89.66797 31.98735,47.84946 95.93787,64.75734 149.55079,48.57226 18.8369,-4.66339 28.9869,-15.5363 33.8848,-29.43945 -28.0339,-13.67274 -43.0856,-63.91174 -33.9004,-97.21485 8.2061,-25.03345 12.0289,-51.20222 6.3535,-75.70703 z m -104.64846,28.52735 c -0.006,0.0261 -0.0119,0.0521 -0.0176,0.0781 0.006,-0.0261 0.012,-0.052 0.0176,-0.0781 z"/>
      </g>
      <g inkscape:groupmode="layer" id="layer6" inkscape:label="hMT+" style="display:inline">
        <path id="path389" style="stroke:white;fill:none;display:inline;filter:url(#dropshadow);stroke-width:2;stroke-opacity:1;fill-opacity:0" d="m 1481.3066,527.06641 c -0.4741,2.09184 -1.0795,4.1492 -1.8613,6.14453 -5.3056,19.51123 -27.6916,27.5411 -46.0566,23.53906 -3.0454,-0.9526 -6.1963,-1.9594 -9.3731,-3.05664 -30.6536,33.33123 19.8724,85.3412 59.5918,83.23437 56.1158,5.80159 69.86,-83.8117 20.3086,-103.3125 -6.9159,-3.51855 -14.6864,-5.7408 -22.6094,-6.54882 z"/>
        <path id="path529" style="stroke:white;fill:none;display:inline;filter:url(#dropshadow);stroke-width:2;stroke-opacity:1;fill-opacity:0" d="m 917.60901,584.91352 c -28.44599,-37.84482 -107.76913,-22.86313 -102.22247,30.53436 8.20568,47.20586 75.40292,54.49746 105.122,23.81157 14.61344,-14.41909 14.42482,-34.55045 -2.89953,-54.34593 z" sodipodi:nodetypes="cccc"/>
      </g>
      <g inkscape:groupmode="layer" id="layer5" inkscape:label="V3AB" style="display:inline">
        <path id="path371" style="stroke:white;fill:none;display:inline;filter:url(#dropshadow);stroke-width:2;stroke-opacity:1;fill-opacity:0" d="m 1399.2441,327.01953 c -1.5805,-0.0324 -3.1525,0.11113 -4.7031,0.4043 1.1091,2.42674 1.9069,5.07345 2.3164,7.95508 3.6828,17.5047 -9.3721,45.29113 -14.2304,67.90039 -2.9238,18.69772 -9.1362,36.37482 -15.8243,53.90625 0.14,-0.36695 0.2843,-0.73253 0.4239,-1.09961 2.599,-0.62822 5.2695,-0.99062 7.9453,-1.04492 0.4546,-0.009 0.9088,-0.01 1.3633,-0.002 3.1812,0.0563 6.3504,0.53816 9.3886,1.47656 8.4015,1.79677 16.3266,6.65513 22.0352,13.21876 9.9388,-2.88611 21.3534,-2.70381 31.164,-1.88282 5.5814,-0.14694 10.771,0.91623 15.4825,2.91211 10.4188,-6.12423 19.1954,-15.54646 19.0507,-28.14258 -1.3506,-15.34264 -3.465,-33.67242 -17.4414,-42.99609 -11.8657,-5.45018 -8.8588,-20.9707 -14.9121,-30.54297 -9.0275,-14.73817 -16.4063,-33.20109 -33.6347,-40.09961 -2.7995,-1.29922 -5.6266,-1.90546 -8.4239,-1.96289 z"/>
        <path id="path585" style="stroke:white;fill:none;display:inline;filter:url(#dropshadow);stroke-width:2;stroke-opacity:1;fill-opacity:0" d="m 955.93651,347.02331 c -39.81386,1.31201 -8.07543,71.14849 -26.45216,84.25468 -13.46887,10.868 -35.79533,13.27654 -49.29187,23.53288 -12.40497,9.42684 -16.83545,26.64237 -11.34873,37.77895 6.15198,11.44599 20.16556,32.61618 32.14258,30.95899 7.31906,-4.81701 15.84225,-7.00874 24.53711,-7.03711 13.29084,-0.0434 26.96391,4.98311 37.35742,13.38672 0.34711,-1.04737 0.71445,-2.09085 1.12695,-3.125 5.06867,-10.35159 15.79428,-15.04293 26.69727,-14.86133 5.05184,0.0841 10.13912,1.21676 14.72262,3.31445 0,0.09 0,0.1814 -0.01,0.27149 0.8766,-22.96149 12.2836,-41.9607 5.0489,-63.03516 -7.1494,-28.77779 -5.8544,-53.60586 3.8671,-63.61914 -16.68291,-15.69712 -35.50071,-41.13475 -58.39719,-41.82042 z m 49.43459,170.41614 v 0.42188 c 8e-4,-0.14045 4e-4,-0.28173 0,-0.42188 z m 0.014,2.40625 c 0,0.1121 0.01,0.2256 0.012,0.33789 0,-0.1123 -0.01,-0.22579 -0.012,-0.33789 z" sodipodi:nodetypes="ccsccsccsccccccccccc"/>
      </g>
      <g inkscape:groupmode="layer" id="layer4" inkscape:label="LO" style="display:inline">
        <path id="path339" style="stroke:white;fill:none;display:inline;filter:url(#dropshadow);stroke-width:2;stroke-opacity:1;fill-opacity:0" d="m 1376.5352,455.03906 c -0.4545,-0.008 -0.9087,-0.007 -1.3633,0.002 -2.6758,0.0543 -5.3463,0.4167 -7.9453,1.04492 -4.6341,12.19243 -9.5259,24.30673 -13.7442,36.63281 -1.8503,7.06437 -3.4373,14.20233 -4.9629,21.35742 4.2427,5.9749 10.4719,10.41183 18.6856,11.90235 6.0848,3.17979 12.8745,4.21258 19.3515,3.38086 10.0674,15.31624 30.0419,22.13863 46.8321,27.39062 18.365,4.00204 40.751,-4.02783 46.0566,-23.53906 10.8057,-27.57732 -8.4002,-66.1998 -40.3223,-65.35938 -9.8106,-0.82099 -21.2252,-1.00329 -31.164,1.88282 -5.7086,-6.56362 -13.6337,-11.42199 -22.0352,-13.21876 -3.0382,-0.93841 -6.2074,-1.42027 -9.3886,-1.47656 z"/>
        <path id="path547" style="stroke:white;fill:none;display:inline;filter:url(#dropshadow);stroke-width:2;stroke-opacity:1;fill-opacity:0" d="m 990.70508,511.91211 c -10.90299,-0.1816 -21.6286,4.50974 -26.69727,14.86133 -0.4125,1.03415 -0.77984,2.07763 -1.12695,3.125 -10.39351,-8.40361 -24.06658,-13.4301 -37.35742,-13.38672 -11.61644,0.0379 -22.92882,3.935 -31.46875,12.79883 -8.96719,9.88442 -12.09543,22.86264 -10.83594,35.64257 13.53967,2.42478 26.118,8.95498 34.39063,19.96094 11.7739,13.45332 15.62355,27.05875 12.30078,38.92383 10.26269,4.6796 21.3939,7.42376 32.57226,7.82813 13.78967,0.40537 29.12011,-7.30797 33.28125,-20.72071 12.82873,3.47553 28.02083,-1.35764 36.08403,-12.33203 1.3191,-1.64795 2.3566,-3.38408 3.1777,-5.18359 -2.9825,-12.87673 -8.5875,-25.2943 -17.5645,-36.84375 -10.0614,-15.55587 -12.5496,-29.02593 -12.0332,-41.35938 -4.5835,-2.09769 -9.67078,-3.23031 -14.72262,-3.31445 z"/>
      </g>
      <g inkscape:groupmode="layer" id="layer3" inkscape:label="V3" style="display:inline">
        <path id="path326" style="stroke:white;fill:none;display:inline;filter:url(#dropshadow);stroke-width:2;stroke-opacity:1;fill-opacity:0" d="m 1355.7266,307.37109 c -5.1614,0.10754 -10.2051,0.95338 -14.7188,2.51563 -2.3147,1.04576 -4.3255,2.30122 -6.1016,3.7168 9.5063,13.8777 7.3729,35.46746 2.5176,51.02343 -6.0122,38.9904 -5.8262,76.98582 -7.9922,116.36719 -3.0263,22.25321 -17.5376,26.27494 -29.1386,45.63477 -14.7112,24.55007 -27.2647,64.17836 -33.5157,91.51953 -2.8096,9.52204 -10.8811,14.2404 -19.1035,14.69531 0.5272,15.35883 14.9484,31.28071 30.4278,21.63672 28.6164,-17.07023 42.0476,-50.15342 54.1679,-79.65625 10.8109,-26.36795 14.0554,-54.77807 21.2129,-82.10547 10.1592,-29.68584 24.2494,-58.13382 29.1446,-89.43945 4.8583,-22.60926 17.9132,-50.39569 14.2304,-67.90039 -2.7522,-19.36811 -22.6975,-28.39189 -41.1308,-28.00782 z"/>
        <path id="path519" style="stroke:white;fill:none;display:inline;filter:url(#dropshadow);stroke-width:2;stroke-opacity:1;fill-opacity:0" d="m 1025.3672,384.11328 c -19.2289,0.15885 -24.1946,30.92987 -14.8984,68.34961 11.0977,32.32711 -21.70175,59.75973 6.9921,104.12305 26.0635,33.53247 23.7229,74.37417 11.2032,112.5664 -11.5925,42.03167 15.418,111.05287 58.414,99.47266 21.6271,-7.95862 33.741,-19.68852 37.5117,-31.99609 -30.7168,-2.29488 -56.7572,-35.87488 -53.4199,-66.82227 3.2302,-46.68073 -17.2918,-111.03816 -26.5019,-135.66797 -12.2637,-37.23855 -7.0603,-72.07781 -10.3965,-108.31836 -2.8755,-13.96488 1.1733,-27.27666 9.5957,-34.79687 -7.187,-4.79946 -13.3551,-6.95266 -18.5,-6.91016 z"/>
      </g>
      <g inkscape:groupmode="layer" id="layer2" inkscape:label="V2" style="display:inline">
        <path id="path308" style="stroke:white;fill:none;display:inline;filter:url(#dropshadow);stroke-width:2;stroke-opacity:1;fill-opacity:0" d="m 1313.1543,301.36133 c -11.1958,-0.22129 -19.3183,7.79808 -24.7324,17.90625 6.6985,2.47056 11.7495,7.11367 13.248,14.28125 3.0141,12.17559 4.4493,29.82141 6.7949,42.08789 0.3774,16.72009 -6.1163,40.06609 -6.3867,56.77344 -1.9067,16.47139 -4.6201,32.95395 -11.4023,48.21679 -6.625,16.07446 -10.8789,33.16362 -20.3555,47.95117 -14.1201,21.51658 -11.1957,53.06825 -24.9785,74.71876 -3.6346,6.15577 -11.2729,9.41173 -19.2734,11.11523 0.1985,22.16278 34.27,25.55796 40.7089,3.73633 6.251,-27.34117 18.8035,-66.96949 33.5147,-91.51956 11.601,-19.35983 26.113,-23.38224 29.1393,-45.63545 2.166,-39.38137 1.9803,-77.37608 7.9925,-116.36648 6.4218,-20.57517 8.0982,-51.7162 -15.6484,-61.58984 -3.0541,-1.09244 -5.9271,-1.62253 -8.6211,-1.67578 z" sodipodi:nodetypes="scccccccccscccs"/>
        <path id="path505" style="stroke:white;fill:none;display:inline;filter:url(#dropshadow);stroke-width:2;stroke-opacity:1;fill-opacity:0" d="m 1060.2383,384.71289 c -18.6935,0.12584 -30.3417,19.86468 -25.9675,41.10784 3.3362,36.24055 -1.8665,71.07939 10.3972,108.31794 9.2101,24.62981 29.7321,88.98724 26.5019,135.66797 -3.9393,36.52928 33.0515,76.73388 70.3516,64.81641 8.277,-5.37236 13.2337,-12.22562 16.0449,-19.98438 -32.5422,-7.55788 -56.4381,-71.2428 -62.4492,-103.88867 -4.2441,-25.23088 -3.9674,-58.04704 -10.1836,-80.51953 -5.369,-19.40942 -17.2682,-28.15247 -20.9648,-52.87305 -6.7586,-27.10779 -13.3749,-58.73682 2.4726,-84.05469 1.1446,-2.18477 2.4373,-4.3221 3.8516,-6.39648 -3.1626,-1.52391 -6.5715,-2.21681 -10.0547,-2.19336 z m 86.8515,100.84766 c -0.5177,11.97204 -1.0283,23.94298 -1.4316,35.91601 0.6979,27.09772 -6.2547,56.19997 7.3106,81.25782 1.2017,1.7685 2.3881,3.55493 3.5664,5.3496 0.5218,-40.53158 2.7705,-81.39046 -8.1387,-120.80468 -0.4324,-0.57525 -0.8722,-1.14515 -1.3067,-1.71875 z" sodipodi:nodetypes="sccccccscccscccccc"/>
      </g>
      <g inkscape:groupmode="layer" id="layer1" inkscape:label="V1" style="display:inline">
        <path id="path301" style="stroke:white;fill:none;display:inline;filter:url(#dropshadow);stroke-width:2;stroke-opacity:1;fill-opacity:0" d="m 1237.8595,334.35482 c 13.6243,-20.66827 58.7664,-24.93239 63.8106,-0.80535 3.0141,12.17559 4.4501,29.82102 6.7957,42.0875 0.3774,16.72009 -6.1176,40.06618 -6.388,56.77353 -1.9067,16.47139 -4.6197,32.95411 -11.4019,48.21695 -6.625,16.07446 -10.879,33.1623 -20.3556,47.94985 -14.1201,21.51657 -11.1952,53.06959 -24.978,74.7201 -5.5362,9.37642 -20.3561,12.04829 -31.6071,12.70601 -11.9371,0.86081 -25.2652,-0.275 -35.1704,-7.53525 -15.6523,-13.54839 -19.2375,-36.35566 -17.1477,-55.9983 5.0258,-39.05213 34.0714,-68.57647 47.0596,-104.67576 11.4727,-28.67593 16.9741,-59.29652 21.288,-89.68785 2.8861,-7.38222 -0.6841,-20.09172 8.0948,-23.75143 z" sodipodi:nodetypes="ccccccccccccc"/>
        <path id="path497" style="stroke:white;fill:none;display:inline;filter:url(#dropshadow);stroke-width:2;stroke-opacity:1;fill-opacity:0" d="m 1129.1735,365.05241 c -25.0919,-11.47161 -51.1732,6.18676 -62.7329,28.25123 -15.8475,25.31787 -9.2305,56.94625 -2.4719,84.05404 3.6967,24.72058 15.5952,33.4628 20.9642,52.87222 6.2162,22.47249 5.9396,55.28932 10.1837,80.5202 6.2791,34.10151 32.0725,102.08052 66.8521,104.56513 24.115,3.32722 25.7212,-25.38274 21.6417,-42.18642 -3.0808,-26.02829 -16.1947,-49.13404 -30.6412,-70.39417 -13.5652,-25.05784 -6.6136,-54.15989 -7.3115,-81.25761 1.4994,-44.51941 4.4833,-89.02079 3.8001,-133.58728 -2.2941,-9.68412 -6.791,-26.66731 -20.2843,-22.83734 z" sodipodi:nodetypes="cccsccccccc"/>
      </g>
    </g>
    <g inkscape:label="labels" inkscape:groupmode="layer" id="rois_labels" transform="translate(0,0)" style="display:inline;">
      <text x="2037.2823156964178" y="186.29403145620444" style="font-family:Helvetica, sans-serif;font-size:14pt;font-weight:bold;font-style:italic;fill:white;fill-opacity:1;text-anchor:middle;filter:url(#dropshadow)" data-ptidx="281315">mPCS</text>
      <text x="443.69848574786215" y="85.47348603460624" style="font-family:Helvetica, sans-serif;font-size:14pt;font-weight:bold;font-style:italic;fill:white;fill-opacity:1;text-anchor:middle;filter:url(#dropshadow)" data-ptidx="138331">mPCS</text>
      <text x="1947.1633467050333" y="336.72954925948056" style="font-family:Helvetica, sans-serif;font-size:14pt;font-weight:bold;font-style:italic;fill:white;fill-opacity:1;text-anchor:middle;filter:url(#dropshadow)" data-ptidx="250470">sPCS</text>
      <text x="485.7050396604566" y="209.01746519070954" style="font-family:Helvetica, sans-serif;font-size:14pt;font-weight:bold;font-style:italic;fill:white;fill-opacity:1;text-anchor:middle;filter:url(#dropshadow)" data-ptidx="118146">sPCS</text>
      <text x="2023.0943994002987" y="451.70818675647183" style="font-family:Helvetica, sans-serif;font-size:14pt;font-weight:bold;font-style:italic;fill:white;fill-opacity:1;text-anchor:middle;filter:url(#dropshadow)" data-ptidx="230215">iPCS</text>
      <text x="406.1206478915992" y="342.0206431871297" style="font-family:Helvetica, sans-serif;font-size:14pt;font-weight:bold;font-style:italic;fill:white;fill-opacity:1;text-anchor:middle;filter:url(#dropshadow)" data-ptidx="93673">iPCS</text>
      <text x="1617.7196342404538" y="325.31145245998505" style="font-family:Helvetica, sans-serif;font-size:14pt;font-weight:bold;font-style:italic;fill:white;fill-opacity:1;text-anchor:middle;filter:url(#dropshadow)" data-ptidx="267385">sIPS</text>
      <text x="816.6597190980231" y="353.81494149207595" style="font-family:Helvetica, sans-serif;font-size:14pt;font-weight:bold;font-style:italic;fill:white;fill-opacity:1;text-anchor:middle;filter:url(#dropshadow)" data-ptidx="113047">sIPS</text>
      <text x="1497.9024203636602" y="358.3797681445991" style="font-family:Helvetica, sans-serif;font-size:14pt;font-weight:bold;font-style:italic;fill:white;fill-opacity:1;text-anchor:middle;filter:url(#dropshadow)" data-ptidx="251710">iIPS</text>
      <text x="902.4065176990637" y="396.7366975520775" style="font-family:Helvetica, sans-serif;font-size:14pt;font-weight:bold;font-style:italic;fill:white;fill-opacity:1;text-anchor:middle;filter:url(#dropshadow)" data-ptidx="97008">iIPS</text>
      <text x="1379.4415223220703" y="614.7084127244532" style="font-family:Helvetica, sans-serif;font-size:14pt;font-weight:bold;font-style:italic;fill:white;fill-opacity:1;text-anchor:middle;filter:url(#dropshadow)" data-ptidx="153944">VO</text>
      <text x="966.6002379108753" y="701.9664778255847" style="font-family:Helvetica, sans-serif;font-size:14pt;font-weight:bold;font-style:italic;fill:white;fill-opacity:1;text-anchor:middle;filter:url(#dropshadow)" data-ptidx="27530">VO</text>
      <text x="1471.370378812388" y="572.6190274710669" style="font-family:Helvetica, sans-serif;font-size:14pt;font-weight:bold;font-style:italic;fill:white;fill-opacity:1;text-anchor:middle;filter:url(#dropshadow)" data-ptidx="208191">hMT+</text>
      <text x="886.7845257980939" y="613.3941634066977" style="font-family:Helvetica, sans-serif;font-size:14pt;font-weight:bold;font-style:italic;fill:white;fill-opacity:1;text-anchor:middle;filter:url(#dropshadow)" data-ptidx="45014">hMT+</text>
      <text x="1419.3069378471805" y="417.54876374795674" style="font-family:Helvetica, sans-serif;font-size:14pt;font-weight:bold;font-style:italic;fill:white;fill-opacity:1;text-anchor:middle;filter:url(#dropshadow)" data-ptidx="208038">V3AB</text>
      <text x="949.9096075062654" y="473.8238933627297" style="font-family:Helvetica, sans-serif;font-size:14pt;font-weight:bold;font-style:italic;fill:white;fill-opacity:1;text-anchor:middle;filter:url(#dropshadow)" data-ptidx="65520">V3AB</text>
      <text x="1413.1636944160214" y="503.2464128973415" style="font-family:Helvetica, sans-serif;font-size:14pt;font-weight:bold;font-style:italic;fill:white;fill-opacity:1;text-anchor:middle;filter:url(#dropshadow)" data-ptidx="193807">LO</text>
      <text x="968.5646254762318" y="573.2156254736477" style="font-family:Helvetica, sans-serif;font-size:14pt;font-weight:bold;font-style:italic;fill:white;fill-opacity:1;text-anchor:middle;filter:url(#dropshadow)" data-ptidx="50961">LO</text>
      <text x="1361.7282676635039" y="372.468357297585" style="font-family:Helvetica, sans-serif;font-size:14pt;font-weight:bold;font-style:italic;fill:white;fill-opacity:1;text-anchor:middle;filter:url(#dropshadow)" data-ptidx="223392">V3</text>
      <text x="1042.2184723346845" y="624.5149161900802" style="font-family:Helvetica, sans-serif;font-size:14pt;font-weight:bold;font-style:italic;fill:white;fill-opacity:1;text-anchor:middle;filter:url(#dropshadow)" data-ptidx="32681">V3</text>
      <text x="1316.3157156986363" y="445.5749585843509" style="font-family:Helvetica, sans-serif;font-size:14pt;font-weight:bold;font-style:italic;fill:white;fill-opacity:1;text-anchor:middle;filter:url(#dropshadow)" data-ptidx="190488">V2</text>
      <text x="1069.9990865699376" y="560.7364103137713" style="font-family:Helvetica, sans-serif;font-size:14pt;font-weight:bold;font-style:italic;fill:white;fill-opacity:1;text-anchor:middle;filter:url(#dropshadow)" data-ptidx="26868">V2</text>
      <text x="1258.1184316396311" y="427.99372079003115" style="font-family:Helvetica, sans-serif;font-size:14pt;font-weight:bold;font-style:italic;fill:white;fill-opacity:1;text-anchor:middle;filter:url(#dropshadow)" data-ptidx="184965">V1</text>
      <text x="1112.857196323267" y="473.50432191650384" style="font-family:Helvetica, sans-serif;font-size:14pt;font-weight:bold;font-style:italic;fill:white;fill-opacity:1;text-anchor:middle;filter:url(#dropshadow)" data-ptidx="56901">V1</text>
    </g>
  </g>
  <g id="sulci" style="display:inline;" inkscape:label="sulci" inkscape:groupmode="layer" class="display_layer">
    <g id="sulci_shapes" style="display:inline;" inkscape:label="shapes" inkscape:groupmode="layer" clip-path="url(#edgeclip)"/>
    <g id="sulci_labels" style="display:inline;" inkscape:label="labels" inkscape:groupmode="layer"/>
  </g>
  <g id="cutouts" style="display:inline;" inkscape:label="cutouts" inkscape:groupmode="layer" class="display_layer">
    <g id="cutouts_shapes" style="display:inline;" inkscape:label="shapes" inkscape:groupmode="layer" clip-path="url(#edgeclip)"/>
    <g id="cutouts_labels" style="display:inline;" inkscape:label="labels" inkscape:groupmode="layer"/>
  </g>
  <g id="display" style="display:inline;" inkscape:label="display" inkscape:groupmode="layer" class="display_layer">
    <g id="display_shapes" style="display:inline;" inkscape:label="shapes" inkscape:groupmode="layer" clip-path="url(#edgeclip)"/>
    <g id="display_labels" style="display:inline;" inkscape:label="labels" inkscape:groupmode="layer"/>
  </g>
</svg>
