<svg xmlns:dc="http://purl.org/dc/elements/1.1/" xmlns:cc="http://creativecommons.org/ns#" xmlns:rdf="http://www.w3.org/1999/02/22-rdf-syntax-ns#" xmlns:svg="http://www.w3.org/2000/svg" xmlns="http://www.w3.org/2000/svg" xmlns:xlink="http://www.w3.org/1999/xlink" xmlns:sodipodi="http://sodipodi.sourceforge.net/DTD/sodipodi-0.dtd" xmlns:inkscape="http://www.inkscape.org/namespaces/inkscape" sodipodi:docname="overlays.svg" version="1.1" id="svgoverlay" height="1024.0" width="2477.84814453125">
  <defs id="defs4">
    <clipPath id="edgeclip">
      <path d="M1300.000366 587.123169 L1301.902588 591.516602, 1303.043335 598.549683, 1303.700806 604.915405, 1302.765381 612.047852, 1301.063843 615.733887, 1299.867554 621.326050, 1298.405884 624.523682, 1298.504395 627.494080, 1296.240601 631.496948, 1293.064453 634.757080, 1290.460571 637.730713, 1287.730957 641.848022, 1283.366089 647.321167, 1279.296509 650.407349, 1275.052856 654.289795, 1272.815186 659.479004, 1269.317993 663.281067, 1267.168213 666.850220, 1266.336914 670.941895, 1264.619263 676.444824, 1263.600464 679.624329, 1264.291016 680.882935, 1263.838867 685.648315, 1262.236450 689.820679, 1261.020264 690.418213, 1260.180542 692.076965, 1259.895874 694.343811, 1260.424072 697.244385, 1258.417480 701.668335, 1257.940186 706.846436, 1256.228760 711.251648, 1255.273560 716.221436, 1254.867310 720.279419, 1255.917725 722.822021, 1255.808960 727.307617, 1256.282349 731.902222, 1255.083374 733.264282, 1255.578735 734.092773, 1256.386719 735.625793, 1256.396362 739.517334, 1256.787476 743.726562, 1256.054932 744.998657, 1256.818115 747.711182, 1257.897949 751.857544, 1258.789551 755.534180, 1258.524048 757.406128, 1259.877441 759.625977, 1262.074341 765.047974, 1263.785034 769.730286, 1263.917480 773.215942, 1264.054199 775.510925, 1264.271118 777.633118, 1264.057617 779.686768, 1265.800415 780.041138, 1266.759766 783.122925, 1268.318237 786.137695, 1266.800293 787.550903, 1267.901123 788.334290, 1269.718872 789.714722, 1269.901733 791.693726, 1272.345947 792.538513, 1275.458618 794.877075, 1279.326538 796.656067, 1280.217773 799.224304, 1282.745361 800.599182, 1281.514771 801.901733, 1282.099365 802.423889, 1282.848877 803.575439, 1283.333252 805.429443, 1284.658936 806.768066, 1286.301270 809.492493, 1285.947998 811.247742, 1285.792725 812.491211, 1287.881470 813.181458, 1287.122314 815.789429, 1287.280396 818.652100, 1288.787598 822.705933, 1288.062134 825.656738, 1289.978516 829.129639, 1291.678711 832.874878, 1293.843262 835.881104, 1296.278564 838.541260, 1296.670410 841.518677, 1299.140503 843.650452, 1301.496826 845.847412, 1303.804688 848.392029, 1306.325439 850.976501, 1308.557129 853.105591, 1309.498779 855.131042, 1311.734375 856.932434, 1314.384644 856.765015, 1317.278931 859.573181, 1320.143921 862.272705, 1322.967773 864.922607, 1325.462036 867.615540, 1328.719971 867.797119, 1331.865356 869.002258, 1333.814819 869.427002, 1336.117310 869.473022, 1336.061035 871.791016, 1337.687012 872.131348, 1340.264282 872.839233, 1342.503906 874.957153, 1344.598389 874.760376, 1346.129272 874.792297, 1348.425659 873.679688, 1352.237061 873.783508, 1355.402222 873.490112, 1357.360962 873.085815, 1359.401001 872.299377, 1363.058228 871.484314, 1365.269409 869.893433, 1367.363281 869.051758, 1370.689941 869.010437, 1372.242310 871.009888, 1374.397095 869.897705, 1376.989136 871.369507, 1379.760742 870.333679, 1383.623779 871.044128, 1385.159424 869.682739, 1385.939453 868.023743, 1387.756104 867.702454, 1386.792236 865.810547, 1386.213623 862.843140, 1388.117310 861.835083, 1389.723755 861.359619, 1391.304688 861.341553, 1392.608032 860.685486, 1394.784912 861.365234, 1396.390015 861.936951, 1396.384644 860.403137, 1398.414673 860.433533, 1399.806641 860.748108, 1402.078613 861.041870, 1405.639404 859.982117, 1409.516113 859.358826, 1411.697998 861.196045, 1414.822021 861.793701, 1418.576050 863.874573, 1421.850464 865.177795, 1423.614868 865.864868, 1425.073120 866.636108, 1427.510864 865.590088, 1430.363159 865.232361, 1433.536255 864.968811, 1434.442871 867.381592, 1436.861572 867.006287, 1440.395996 867.981323, 1443.552002 868.574951, 1447.053223 868.623291, 1450.424561 869.947083, 1453.363159 870.983826, 1456.255127 869.529175, 1459.171631 870.660522, 1462.229858 871.009644, 1465.040527 871.462646, 1468.455566 871.513855, 1471.609741 872.873108, 1475.331055 873.844055, 1476.558838 875.901550, 1478.484619 875.248047, 1482.152588 874.833374, 1485.993896 874.886169, 1486.377930 877.653748, 1488.385498 876.556152, 1490.133545 878.007874, 1489.565430 880.105164, 1491.954712 879.562988, 1491.672974 881.673279, 1491.963501 883.462402, 1493.121704 885.444092, 1494.456909 887.391907, 1494.263184 889.522095, 1496.045654 889.287048, 1496.363892 891.072510, 1496.890747 892.833740, 1497.953125 895.334229, 1496.700562 897.673767, 1498.543579 900.009888, 1500.740234 902.543335, 1503.105591 905.624756, 1503.849121 907.661011, 1504.238403 908.585632, 1505.749512 907.866760, 1506.112671 909.486816, 1507.878418 910.173706, 1510.968140 912.849487, 1511.080566 915.877808, 1512.018677 917.221863, 1513.570312 919.116028, 1514.332520 922.683350, 1515.319946 925.610779, 1515.926025 927.824890, 1516.693970 929.579712, 1517.726929 931.710083, 1515.311523 930.797363, 1514.364380 930.650330, 1516.058594 931.764282, 1515.320557 933.622131, 1512.578491 934.543091, 1509.615601 935.352356, 1506.542114 936.143738, 1503.032837 937.252930, 1501.125854 938.244507, 1499.817139 939.874268, 1497.389038 941.088501, 1495.661255 942.692627, 1495.009644 945.479065, 1495.252319 947.824341, 1493.973145 949.652344, 1494.203613 952.879456, 1492.475220 953.812683, 1491.683350 954.027710, 1493.448242 956.288940, 1494.060059 959.755737, 1491.651245 960.746582, 1489.032593 961.177856, 1487.132446 961.544067, 1485.934692 961.042664, 1485.668701 963.277588, 1484.008301 964.710144, 1481.849243 964.456299, 1480.596802 967.051392, 1477.216064 966.073792, 1475.738770 964.203979, 1474.970825 963.276123, 1474.197021 965.853271, 1470.525757 964.861328, 1470.969849 962.341553, 1470.264771 962.592712, 1469.687988 962.863220, 1468.908325 962.370850, 1468.438354 961.603333, 1467.638672 963.061584, 1465.053711 965.715088, 1463.791382 963.826233, 1461.626709 962.139099, 1459.668213 963.918030, 1461.599731 965.367798, 1460.201172 967.075256, 1461.215820 969.107117, 1462.821533 969.645386, 1464.357544 970.146057, 1465.216675 971.710999, 1464.976685 973.511902, 1465.758301 975.104736, 1465.875854 977.640076, 1467.634155 978.392273, 1467.409424 981.130005, 1469.040649 983.470093, 1467.359741 986.453491, 1466.946533 989.046570, 1468.127563 990.966064, 1469.411499 992.364624, 1471.379028 993.794250, 1469.814331 996.137329, 1471.628052 997.962585, 1472.014526 1001.096130, 1472.997803 1003.013916, 1475.127808 1003.659912, 1477.232910 1006.397217, 1479.254517 1009.271606, 1480.864014 1012.386169, 1482.570190 1014.904297, 1483.804443 1017.333557, 1486.071167 1017.154846, 1488.686646 1016.790222, 1491.238647 1016.568298, 1491.850586 1017.916260, 1492.735352 1018.851013, 1493.509399 1019.766418, 1495.839966 1018.477295, 1498.670898 1020.132812, 1500.411987 1021.247925, 1502.419067 1020.751892, 1504.848877 1020.709961, 1507.143311 1020.895996, 1508.653687 1022.112671, 1509.247192 1023.199158, 1510.568481 1022.464844, 1512.498901 1023.956421, 1514.741577 1024.000000, 1516.940308 1023.670593, 1518.756836 1021.926453, 1521.034790 1019.511841, 1524.038696 1019.934937, 1526.678589 1019.769897, 1528.962036 1019.273010, 1530.868530 1017.385193, 1533.609131 1015.852844, 1535.896484 1014.766296, 1536.887085 1013.080139, 1538.765137 1010.305542, 1541.719971 1008.209900, 1544.030762 1006.942810, 1545.330688 1004.405029, 1548.090820 1002.964172, 1549.539429 1003.414490, 1550.664307 1001.699036, 1552.041626 998.716125, 1555.094727 996.839233, 1557.900879 995.233398, 1558.793823 992.384644, 1559.319214 989.533997, 1559.562988 986.935791, 1558.427124 984.531250, 1560.491821 981.315552, 1562.491333 978.264465, 1564.573608 975.464722, 1566.364990 973.058838, 1566.766602 970.492798, 1569.447388 967.804077, 1571.639404 964.924622, 1574.846191 962.120544, 1577.094727 957.576538, 1578.567017 953.519043, 1579.408447 950.362244, 1580.309570 947.197632, 1579.884277 942.198914, 1580.222290 938.848755, 1578.886719 935.819946, 1579.655151 931.969971, 1579.729492 927.683350, 1579.520020 923.924133, 1581.975586 921.164246, 1583.807983 919.024109, 1585.322876 918.659668, 1586.016968 918.325439, 1585.333496 917.017761, 1586.008179 914.078918, 1584.878540 911.631409, 1585.811279 908.257568, 1588.697876 906.542114, 1587.990356 904.626465, 1589.449829 902.271240, 1587.998413 899.978943, 1589.039917 897.694580, 1586.920166 895.573914, 1585.823364 892.898193, 1584.083496 890.901367, 1584.354370 888.467468, 1584.615479 886.088379, 1584.783813 883.903381, 1585.824585 883.253296, 1585.827148 881.771606, 1586.562134 880.687317, 1584.817383 879.882935, 1584.470947 876.832764, 1586.176880 877.632996, 1585.976196 876.083435, 1587.652588 875.946289, 1590.525757 877.006531, 1593.444214 877.738770, 1597.804932 876.797974, 1601.662231 874.979248, 1601.350586 871.920044, 1602.864746 869.520630, 1604.283447 867.130981, 1606.391846 864.792053, 1606.847778 860.499512, 1609.861938 860.950562, 1611.767334 859.983887, 1612.754883 859.419739, 1612.476807 858.012390, 1614.517456 858.586670, 1614.991577 857.221741, 1614.227173 855.169067, 1615.906128 852.747925, 1615.685791 849.935791, 1617.432495 849.390259, 1617.506836 847.707336, 1619.054932 845.610168, 1619.782471 843.132080, 1620.624146 840.446960, 1619.087158 837.378967, 1619.520142 833.679871, 1619.279663 830.878357, 1620.721313 829.222717, 1621.782104 827.075500, 1622.582642 824.948303, 1621.481812 822.215637, 1622.140869 819.185242, 1622.953369 816.899231, 1623.666504 814.635620, 1624.716187 812.555359, 1622.930054 810.510742, 1621.056641 808.510254, 1619.058838 806.631104, 1617.698975 804.838989, 1618.288330 802.947083, 1620.138062 801.411499, 1621.490967 800.399902, 1622.939453 798.800537, 1625.569458 798.221069, 1624.735474 797.269287, 1623.249512 795.379822, 1623.729126 792.210815, 1623.812012 790.189880, 1624.910156 788.693787, 1625.494019 786.621826, 1626.532227 784.021301, 1626.347656 781.504150, 1630.682251 779.450256, 1636.839233 778.108887, 1642.255005 778.545288, 1648.334717 779.513916, 1654.493042 780.349487, 1657.692505 781.752197, 1662.457397 782.348572, 1667.826294 782.823120, 1673.160034 783.104004, 1674.280640 784.279541, 1677.060669 783.897827, 1680.728027 785.212769, 1682.265015 787.031616, 1685.621704 789.319153, 1688.863037 792.646729, 1691.475220 795.271851, 1695.298462 796.414001, 1699.681030 798.274902, 1701.496216 800.172180, 1703.511841 800.957275, 1707.303223 803.895874, 1708.878906 806.221985, 1711.347534 808.504761, 1713.898560 810.641296, 1716.644043 812.844849, 1719.615723 815.034729, 1722.762939 817.846191, 1725.876465 821.967346, 1730.027222 822.279602, 1731.881958 823.427368, 1733.988159 822.946838, 1735.489746 824.666260, 1738.226440 823.849060, 1741.698120 825.977661, 1744.447388 828.445190, 1745.862915 829.413696, 1747.764282 827.877258, 1750.523193 830.901001, 1753.772095 831.272461, 1755.832397 832.922485, 1757.980713 832.762695, 1760.385864 832.821533, 1764.717529 834.918945, 1769.090210 836.934326, 1772.920532 837.706299, 1775.649780 837.819519, 1777.723511 839.245483, 1779.535889 837.639893, 1784.686768 838.371338, 1789.459839 838.841919, 1791.799927 842.614014, 1795.437988 843.701111, 1795.855103 846.603638, 1798.559814 845.217041, 1798.714233 847.374939, 1801.011230 846.950684, 1804.552856 848.680908, 1807.271484 850.930420, 1806.669800 854.124756, 1808.040039 855.639832, 1810.724854 856.514648, 1814.879761 857.763672, 1815.662964 859.677246, 1816.449585 860.511536, 1818.364136 860.292847, 1822.113770 860.149536, 1823.187622 861.101440, 1824.247437 860.404480, 1825.849121 860.236084, 1825.938477 859.733398, 1826.746460 858.209534, 1830.015259 858.093323, 1831.769043 858.893738, 1834.204346 858.110962, 1834.995972 856.285889, 1838.762329 855.387939, 1842.351318 855.138733, 1844.990723 854.642761, 1846.715454 854.213074, 1846.196045 852.839905, 1847.480713 850.481384, 1848.553833 847.792908, 1851.212891 846.696533, 1851.781982 842.844360, 1854.424683 843.755493, 1855.246338 840.952637, 1856.565674 836.959167, 1857.679321 833.837463, 1859.857056 834.325195, 1861.774902 832.367920, 1865.083374 831.080078, 1868.456543 830.365234, 1871.899536 829.663696, 1874.663208 828.684448, 1876.033813 826.940918, 1878.611328 826.098999, 1881.706543 825.133972, 1884.798462 824.153564, 1885.404785 821.516968, 1886.017456 818.465698, 1888.669922 817.551575, 1889.459106 816.299194, 1891.300659 815.383728, 1893.529785 814.945679, 1894.794800 814.138306, 1896.306396 812.796509, 1896.388062 809.728210, 1899.168091 807.130310, 1901.416016 805.979736, 1903.202637 804.774780, 1903.386597 802.450317, 1904.670410 799.757263, 1907.981323 798.814331, 1910.232056 797.108521, 1911.815796 796.352905, 1911.218750 794.534424, 1912.752441 793.203491, 1913.916504 792.004272, 1915.077148 788.777954, 1917.681274 786.621033, 1918.477661 783.009644, 1920.517700 780.653320, 1920.696899 778.430542, 1922.288696 777.656738, 1922.741333 777.068848, 1922.166992 776.765259, 1922.806152 774.833008, 1925.202393 773.808350, 1926.997314 771.557373, 1930.614136 768.885864, 1932.026978 765.648560, 1934.946045 763.984802, 1937.251465 761.384827, 1939.743774 759.143677, 1941.841309 756.836792, 1943.934204 754.605103, 1945.519653 752.309570, 1946.461060 750.771423, 1945.754028 749.504028, 1946.607666 748.330078, 1947.251465 746.252502, 1948.445190 742.921021, 1950.379395 739.782593, 1952.758667 736.607422, 1955.149780 733.571533, 1957.668457 730.623169, 1956.998047 728.324768, 1958.764404 725.701355, 1961.033081 723.943420, 1962.531860 721.188843, 1964.560303 717.784790, 1965.796143 715.265625, 1966.422729 712.879822, 1968.155151 711.861328, 1968.141846 710.509766, 1968.600220 707.939880, 1970.636353 703.456482, 1972.581299 701.852051, 1972.702881 699.813965, 1975.008423 696.942078, 1975.557495 693.525757, 1977.496216 689.935547, 1978.237427 686.517761, 1981.032104 682.295288, 1983.321899 678.765198, 1985.465454 674.717468, 1988.539185 670.224915, 1991.437256 667.601685, 1994.287231 663.892639, 1998.164185 659.420288, 2003.644653 654.049561, 2007.412109 652.111572, 2009.987793 649.533264, 2012.705566 649.303589, 2016.590332 647.856689, 2021.314941 648.188354, 2026.409180 648.372681, 2031.629761 651.151306, 2033.341187 653.033691, 2035.635498 652.406555, 2038.867188 652.243835, 2039.652222 653.407715, 2040.312378 653.908875, 2041.021484 653.787476, 2041.575195 652.865234, 2044.579468 652.274414, 2049.291992 651.676514, 2053.999512 654.897705, 2054.795166 656.716797, 2056.716797 657.228638, 2058.223389 657.175293, 2060.394775 655.427124, 2063.008057 654.713440, 2065.619141 654.243286, 2070.080566 654.791138, 2074.202637 655.463745, 2075.469482 656.576294, 2077.162598 656.348083, 2079.992676 657.517090, 2082.262695 658.541687, 2083.179199 659.563721, 2084.491943 659.422974, 2087.408691 661.482788, 2090.885010 664.269409, 2094.288818 667.526306, 2095.274902 670.217529, 2095.403320 671.405090, 2096.781738 672.007690, 2097.652588 674.867065, 2098.493652 677.644287, 2099.226318 680.429016, 2101.116699 681.855469, 2101.742432 683.849121, 2103.213623 683.158264, 2106.056885 684.798035, 2109.262207 686.444458, 2113.071777 688.014648, 2115.068848 690.940552, 2116.373535 693.235962, 2119.080811 694.526001, 2122.655518 696.014038, 2123.361084 699.175293, 2124.062744 702.619629, 2126.759766 700.078857, 2129.452148 700.901428, 2132.084229 700.112122, 2134.569580 698.260315, 2138.194336 697.086182, 2141.596436 695.667542, 2145.209473 693.995239, 2149.009277 692.058228, 2153.879639 691.471069, 2158.441895 690.469910, 2162.774414 689.384399, 2166.991211 688.338501, 2171.021729 687.196777, 2174.883057 686.111938, 2178.690186 685.144409, 2182.215820 684.237061, 2185.716797 682.044678, 2191.178955 680.230957, 2195.719727 679.622070, 2199.779541 678.933899, 2203.751953 678.305847, 2207.577881 677.672241, 2210.817383 677.222778, 2214.368164 675.664490, 2218.715576 674.992676, 2221.093994 674.829102, 2222.353027 672.768921, 2225.108887 672.876831, 2226.663330 671.039185, 2230.142822 669.679749, 2233.611328 668.510498, 2235.763916 665.576660, 2238.388184 662.229980, 2240.999756 658.582397, 2244.165771 657.429321, 2246.558838 655.855164, 2248.191406 653.534912, 2250.875244 650.816406, 2253.874268 650.062439, 2256.385986 648.511230, 2258.703125 646.282471, 2262.055664 642.977783, 2266.064209 639.795288, 2269.418457 636.363770, 2274.135010 633.468140, 2278.411133 630.506226, 2281.266846 626.086792, 2284.622314 621.455933, 2287.078369 616.773560, 2289.104492 611.292969, 2292.522461 610.434814, 2295.239746 608.912720, 2297.737793 607.754150, 2297.274170 606.298950, 2296.155762 604.520752, 2295.590332 602.070251, 2296.007812 598.028198, 2296.801758 593.344238, 2299.396729 587.792358, 2301.566895 584.488708, 2302.958252 580.257568, 2304.300537 576.243408, 2305.411377 572.411987, 2307.737305 570.154907, 2309.820068 567.180542, 2311.829834 563.480469, 2313.651855 559.805908, 2314.427490 555.056519, 2316.397705 552.195068, 2315.879639 549.095337, 2316.349609 547.495972, 2316.928711 546.017944, 2316.750244 543.725952, 2319.092285 539.693115, 2321.428223 537.231750, 2321.770752 532.609131, 2324.206299 529.583618, 2325.080566 526.093384, 2325.128418 522.537598, 2326.562012 520.999023, 2324.245850 519.704590, 2324.816162 516.140625, 2324.319580 513.639160, 2325.211426 509.556885, 2325.518311 506.822510, 2326.049561 504.110291, 2326.197754 500.412537, 2326.825439 495.120544, 2328.346191 492.552429, 2327.455322 490.178711, 2327.785400 485.607666, 2328.026611 480.961548, 2329.950439 476.368103, 2331.351562 474.004150, 2331.743408 471.838623, 2332.014160 469.737488, 2331.278564 467.060852, 2331.549805 462.913208, 2331.794434 458.190613, 2333.308105 453.779419, 2334.606445 449.202271, 2335.780029 444.417419, 2335.929443 441.714966, 2335.525146 439.265991, 2334.045898 435.287964, 2332.583496 431.807312, 2331.020020 428.616699, 2330.561768 424.648560, 2329.429932 420.104675, 2328.365967 416.923950, 2326.263916 414.786194, 2324.398682 409.794739, 2322.511719 404.937439, 2320.899902 400.725891, 2321.474854 398.986206, 2319.900879 397.065002, 2318.533691 393.844727, 2317.518066 391.196960, 2317.028809 387.951172, 2316.641602 385.331909, 2316.422363 382.100037, 2316.231445 377.916931, 2317.072021 374.771545, 2316.984619 370.961731, 2316.485596 366.350159, 2315.612061 361.732117, 2314.311279 358.239868, 2312.891113 355.656433, 2311.036621 352.706360, 2309.390869 347.752625, 2307.843018 343.241089, 2307.610596 340.264465, 2306.099365 337.313354, 2303.566162 334.797607, 2300.773926 331.864441, 2298.097168 328.264221, 2297.395752 325.353455, 2295.748291 324.309998, 2295.415771 320.677795, 2294.084961 317.699158, 2294.865723 310.341125, 2296.376221 305.643127, 2299.070557 305.627319, 2301.118408 301.970032, 2303.658203 298.690552, 2306.164062 295.558167, 2308.792236 295.957458, 2310.785156 296.885193, 2313.069092 296.792786, 2315.739258 297.375427, 2317.978027 297.811584, 2320.106445 296.788269, 2323.055664 295.777466, 2326.370850 294.802979, 2329.792725 293.858643, 2333.013428 292.540283, 2335.753662 290.986816, 2338.146729 290.223083, 2338.091064 286.965515, 2339.632324 286.100769, 2341.157227 288.204651, 2343.830811 287.550903, 2346.959229 289.740967, 2350.440430 291.444336, 2353.634033 292.616699, 2355.854492 290.908325, 2358.519531 292.077454, 2361.109863 293.137878, 2363.094238 291.263977, 2365.139893 289.224731, 2367.094482 286.952637, 2369.867432 287.102783, 2371.575684 284.240173, 2374.530029 283.868713, 2377.406982 284.514282, 2380.394043 285.670410, 2382.156494 283.378235, 2383.946045 281.565063, 2385.824463 280.313477, 2387.552002 281.679199, 2389.751709 283.114197, 2392.408447 283.433289, 2394.937012 283.730713, 2397.875488 283.804199, 2400.566650 284.593384, 2402.513672 282.949341, 2406.177002 282.485596, 2408.565918 282.353821, 2410.402588 283.235535, 2410.031250 280.361267, 2413.505127 280.212158, 2415.823242 278.143555, 2417.839355 276.847778, 2420.537598 276.203369, 2422.873047 275.454041, 2424.840576 273.809753, 2427.324463 272.652649, 2430.895752 271.613586, 2433.382812 271.379028, 2433.081787 268.809387, 2435.970947 267.298035, 2437.102539 264.610596, 2436.723633 261.130066, 2437.452393 259.534851, 2435.358154 256.262756, 2437.343018 256.528320, 2437.750000 255.937866, 2435.230957 253.691711, 2437.433350 254.202454, 2438.465576 253.616150, 2439.267578 251.392517, 2443.718506 250.373962, 2446.891357 249.947571, 2447.794922 246.613220, 2448.349609 243.601929, 2448.897217 240.528748, 2449.932617 237.791199, 2451.794922 238.552612, 2451.385986 237.439880, 2450.600586 235.604492, 2452.104248 234.241211, 2454.526367 233.428101, 2456.648193 232.103088, 2458.632080 232.760010, 2458.393799 231.702271, 2456.413574 228.894409, 2457.486328 226.759766, 2456.942871 224.924316, 2457.035889 222.397217, 2456.923828 219.564514, 2458.154053 216.711060, 2461.383545 214.965271, 2467.313721 214.224304, 2470.050293 213.536011, 2470.858154 211.214050, 2473.929443 210.638062, 2474.538330 208.574951, 2475.575928 204.646851, 2476.006348 200.580322, 2476.116943 196.565735, 2477.469971 194.209717, 2477.791016 191.549500, 2477.159668 188.698120, 2476.522705 185.397766, 2476.700439 182.577698, 2477.848145 179.978577, 2477.275879 176.119873, 2476.522461 173.027527, 2476.612061 169.862488, 2476.064941 166.731995, 2476.437988 162.196777, 2476.371338 159.638245, 2473.966553 158.026367, 2474.364258 155.195312, 2472.103516 153.416565, 2470.343018 150.308167, 2468.793457 146.964661, 2467.397461 143.460876, 2465.537354 139.711426, 2463.239746 135.391052, 2460.104004 131.470337, 2456.842285 128.493225, 2453.363037 126.332397, 2450.110352 125.189026, 2447.276611 124.153992, 2445.612793 122.731445, 2443.667236 122.096191, 2443.366699 119.987427, 2443.147217 117.576477, 2443.036865 115.059387, 2443.010254 112.254639, 2443.577148 109.407471, 2444.226807 106.724304, 2444.151611 103.493835, 2443.203369 100.596252, 2442.276123 99.230591, 2440.625488 98.006042, 2442.298584 96.101624, 2441.173584 94.552490, 2439.890137 92.494446, 2440.105713 90.026917, 2438.745850 87.246460, 2440.196045 82.586060, 2440.868652 78.983215, 2439.390625 76.793884, 2437.903076 73.624023, 2435.309814 72.379456, 2433.601318 71.506348, 2430.092529 69.941223, 2427.050537 68.707703, 2423.311035 69.073181, 2421.601807 71.645569, 2422.724365 74.477478, 2424.184326 78.339539, 2423.090576 80.904907, 2422.610107 82.794983, 2423.943359 83.389587, 2424.659668 85.981018, 2423.302002 88.294922, 2422.842529 90.653015, 2423.640625 93.085510, 2421.447510 94.330444, 2419.623535 94.939209, 2419.057129 97.092224, 2419.088867 100.661011, 2417.183105 103.904663, 2415.106689 106.982910, 2411.760010 105.677917, 2408.784668 104.620605, 2406.153809 103.277161, 2404.676758 103.254395, 2404.055908 104.664734, 2402.689697 104.974915, 2401.810059 107.075317, 2398.099854 108.757263, 2395.546387 106.795776, 2392.584717 107.233337, 2389.695557 107.300476, 2387.307129 107.266357, 2385.391113 107.157837, 2383.722656 106.931091, 2382.001709 105.919434, 2379.611572 107.693542, 2376.678467 109.077026, 2374.483887 110.923523, 2371.844482 110.202148, 2368.762207 109.954590, 2365.007812 109.784790, 2361.398926 110.622070, 2358.343506 111.941162, 2356.287354 113.283325, 2355.739502 115.869629, 2353.879150 116.414368, 2352.358887 116.541321, 2353.405029 120.351257, 2351.697998 118.091064, 2350.662354 116.625610, 2349.138428 117.244690, 2348.089111 120.828552, 2345.652344 119.362305, 2343.172363 119.827881, 2342.172607 117.847168, 2340.938721 116.600098, 2338.898682 116.098755, 2336.677979 117.839844, 2333.105957 116.917358, 2330.972656 119.114197, 2327.518799 118.469727, 2324.211914 118.046204, 2321.164795 119.222046, 2318.131592 117.616638, 2315.604248 117.834900, 2312.730225 117.460144, 2310.332764 117.108398, 2308.806641 117.660461, 2306.729004 118.306335, 2303.287354 119.780701, 2300.068848 121.402649, 2298.047852 120.579651, 2296.385498 122.419189, 2294.428955 121.023132, 2292.535400 122.849304, 2289.580078 120.119812, 2287.923584 118.086792, 2286.047852 120.134033, 2284.628418 118.152344, 2283.224365 116.601074, 2281.222412 114.078186, 2279.626221 111.914795, 2276.862549 111.271851, 2273.705811 112.109924, 2270.313477 111.015381, 2268.251465 107.318604, 2268.198242 104.966675, 2267.209961 102.973694, 2264.455078 101.300110, 2262.721191 99.406311, 2261.705811 98.326294, 2259.584473 97.598572, 2257.425293 95.566711, 2255.662354 94.044556, 2253.211670 93.348511, 2250.547119 91.166992, 2248.539062 89.447693, 2246.330811 88.745178, 2243.977295 88.389954, 2241.363525 86.924988, 2238.237305 84.762634, 2237.683838 82.356750, 2235.452637 81.264282, 2232.735840 79.818054, 2230.119873 77.661926, 2227.761475 75.147583, 2228.722900 73.733276, 2227.995850 72.426392, 2227.882812 69.609253, 2226.153320 67.950745, 2224.280029 66.043640, 2222.700928 64.473267, 2222.949707 62.638855, 2221.208252 63.297058, 2219.694580 61.762329, 2217.683838 60.354919, 2215.678467 58.344299, 2214.114990 55.610291, 2213.206787 52.803589, 2212.537598 51.061218, 2211.594238 49.022095, 2210.453613 45.512634, 2209.015137 41.996521, 2207.695068 39.996521, 2206.730713 38.525452, 2204.547119 37.779602, 2201.663086 36.556885, 2198.459473 35.129944, 2197.843262 32.890564, 2195.639160 32.922241, 2193.471924 30.851990, 2191.420410 28.607239, 2189.546631 25.615112, 2188.413574 28.647095, 2186.018799 28.682251, 2184.136719 28.358398, 2185.199707 31.587585, 2181.834229 34.064819, 2178.401123 36.054565, 2175.923096 35.620789, 2175.177002 35.797058, 2174.645996 36.012634, 2173.149902 36.779419, 2170.749023 39.204468, 2168.170410 41.485474, 2165.558594 43.624939, 2162.942871 45.547546, 2160.491455 47.223633, 2158.144531 48.950378, 2154.372070 48.077942, 2151.880615 50.434998, 2149.263672 53.527039, 2146.711914 54.309631, 2145.436768 54.573975, 2146.896729 56.614563, 2144.264160 57.272034, 2143.013428 57.589844, 2144.296875 59.570679, 2141.210693 60.976257, 2140.272217 63.432190, 2137.866455 63.652954, 2135.286377 64.202637, 2132.733154 64.403259, 2132.713623 66.708923, 2130.000732 66.926758, 2128.119385 66.857727, 2125.468750 67.461304, 2122.368652 68.436523, 2119.876465 67.776245, 2119.182861 68.881958, 2115.395508 69.141785, 2112.006592 70.653076, 2108.460693 71.453979, 2105.462891 71.755859, 2102.578125 73.224487, 2099.724854 73.432190, 2097.447510 74.946655, 2095.051025 76.660828, 2093.882812 77.261963, 2094.362061 78.509827, 2092.354980 80.017578, 2091.378906 81.803223, 2089.462891 84.467834, 2085.578369 86.832703, 2082.615967 88.913696, 2079.719482 90.559570, 2078.668945 93.674255, 2076.427002 96.335510, 2074.419922 100.058655, 2071.256104 101.106934, 2068.482910 102.586792, 2065.239746 103.505127, 2062.625977 104.756897, 2062.832275 103.348267, 2060.845947 106.175232, 2057.281250 108.319336, 2053.098633 107.151855, 2049.566895 105.639038, 2046.900146 101.442932, 2044.805298 100.822754, 2040.800781 100.135376, 2037.437622 98.206604, 2035.304688 97.603455, 2033.559814 99.208984, 2030.062378 100.954651, 2028.017700 104.095764, 2025.170654 105.908325, 2022.419800 110.492981, 2020.064575 115.949097, 2017.633789 121.637634, 2014.702026 125.063843, 2011.606689 128.938293, 2008.855835 132.904602, 2003.569946 134.336426, 1995.373291 132.028320, 1989.407837 127.979797, 1986.855713 124.976685, 1982.415894 121.597290, 1983.369507 120.372620, 1981.936401 119.119690, 1979.167480 117.082458, 1979.506226 115.535156, 1977.830566 114.943237, 1974.513916 113.550537, 1974.229980 111.334717, 1972.043579 110.626526, 1968.566528 108.132263, 1963.820923 106.752747, 1958.533203 105.724548, 1955.147095 103.232483, 1951.889038 102.677063, 1948.075195 100.984009, 1944.512695 98.730530, 1941.656616 98.133606, 1938.500610 96.015076, 1934.997314 94.307434, 1931.657715 94.489136, 1928.955078 92.885620, 1926.442383 91.127136, 1923.309570 88.384460, 1919.940308 87.802368, 1917.100708 87.488831, 1913.098877 87.241699, 1909.034302 86.012146, 1906.627197 83.967957, 1903.744507 82.662476, 1901.149292 80.120728, 1899.626709 79.475891, 1897.970581 80.694580, 1898.178101 78.824890, 1897.054810 78.356201, 1894.868042 77.089661, 1893.148926 75.432739, 1890.490479 74.968445, 1890.226807 71.997742, 1890.864868 70.041199, 1888.575195 69.713257, 1888.111450 66.082336, 1888.301147 63.546204, 1887.409180 61.742310, 1885.912720 60.462158, 1884.787476 58.788330, 1883.315674 57.535767, 1883.046387 53.673950, 1882.615967 51.050842, 1881.618530 49.100891, 1879.026978 46.156250, 1878.163330 43.070374, 1876.112061 43.197449, 1874.699707 41.392822, 1872.369873 43.164062, 1870.963501 40.849915, 1870.400146 39.687256, 1868.392212 41.657837, 1865.707764 39.138245, 1864.355469 38.136658, 1863.679321 37.779175, 1862.491455 37.031311, 1860.750366 36.218384, 1859.430664 34.750977, 1858.455566 32.517456, 1860.016968 30.085449, 1860.394287 27.964783, 1858.695679 26.755554, 1856.481079 24.376221, 1854.096558 21.967896, 1851.468262 19.434570, 1850.480713 17.009277, 1849.111328 15.545898, 1847.759033 14.053955, 1846.292847 12.169739, 1844.336182 9.794983, 1842.439087 7.923523, 1839.960205 7.551880, 1839.717651 5.500610, 1839.543213 3.901245, 1838.773193 2.781616, 1836.816040 2.508118, 1836.522095 0.000000, 1834.471436 1.611755, 1832.097778 2.811768, 1831.137451 5.563843, 1829.546265 8.180359, 1826.097046 8.088196, 1822.653320 7.916931, 1820.308105 10.292236, 1817.638794 12.380615, 1814.890625 14.394653, 1811.936646 16.718140, 1809.417847 15.041992, 1807.286987 15.016785, 1805.700684 16.938416, 1803.216064 19.198547, 1800.221313 20.319824, 1798.974243 23.189026, 1796.307983 24.859863, 1794.110962 26.311768, 1791.856812 26.457520, 1791.247070 29.551208, 1788.592896 29.345215, 1787.106445 29.801453, 1785.712158 30.423096, 1783.409546 31.318176, 1781.194092 29.392944, 1779.708130 28.941406, 1778.229492 29.528809, 1775.522827 28.211060, 1773.061768 26.950806, 1770.799316 25.470581, 1769.247681 23.147522, 1767.936157 21.129028, 1765.744019 21.849548, 1762.910400 22.339355, 1759.832642 22.463135, 1756.832886 22.436829, 1755.040527 20.250000, 1753.062744 19.442566, 1752.132690 17.994080, 1750.311157 19.328552, 1748.891724 17.142090, 1746.724365 18.470520, 1743.243530 20.668640, 1739.848999 19.568115, 1739.365723 21.479492, 1740.141968 23.246826, 1741.280151 26.209534, 1740.131958 29.767761, 1739.010132 33.101868, 1737.974121 35.781799, 1735.489502 36.930054, 1735.102295 39.465454, 1733.656250 40.814331, 1732.549194 43.207092, 1732.148438 45.825439, 1730.051392 48.541748, 1729.453857 52.053955, 1728.314209 55.850037, 1727.819580 59.803162, 1727.073608 62.779663, 1726.304321 65.639893, 1724.164917 66.599670, 1724.827637 67.835388, 1723.182129 70.461853, 1722.246338 74.129761, 1721.390625 76.893066, 1721.346558 79.498901, 1721.007812 82.397522, 1719.548950 83.305847, 1720.150757 85.113586, 1719.598633 88.473022, 1718.167480 91.049316, 1718.816040 93.162354, 1717.646973 95.589355, 1715.994873 96.988892, 1715.765503 98.921387, 1716.184937 101.947266, 1715.099121 105.790955, 1715.987793 108.678772, 1717.122925 111.639648, 1716.139160 114.603149, 1715.078003 116.851440, 1714.723877 119.493347, 1713.266357 121.100281, 1714.178833 121.680237, 1715.061157 123.434265, 1713.359497 124.841858, 1714.676270 126.381165, 1713.742798 128.913330, 1713.379761 131.296997, 1711.525269 132.885803, 1711.311157 134.343384, 1711.424927 135.724487, 1711.617676 137.991699, 1712.115112 140.392700, 1712.699829 142.962524, 1713.424194 145.376526, 1714.315552 147.762207, 1715.244507 150.295532, 1715.862671 152.787354, 1716.205200 155.199280, 1716.718750 158.021851, 1717.042114 161.014893, 1716.647827 163.234619, 1717.753540 165.566467, 1717.066406 170.046082, 1714.963501 172.428894, 1714.864990 175.114624, 1714.438721 178.114075, 1713.654785 181.515198, 1712.791992 185.038391, 1711.126343 188.431091, 1710.103027 192.915833, 1708.903687 197.068787, 1707.845825 200.738892, 1706.782593 201.481018, 1706.397339 204.346558, 1705.578979 209.109558, 1704.158936 213.395325, 1702.113281 218.580750, 1699.728394 222.165344, 1697.398926 224.841614, 1694.706909 228.835449, 1688.557983 235.385742, 1683.064819 241.357666, 1675.336060 247.160095, 1669.751465 248.413391, 1666.399658 248.611389, 1662.351562 248.844421, 1659.164795 247.874451, 1655.681519 246.356140, 1652.316895 244.325073, 1647.784302 243.761414, 1643.153320 242.802979, 1638.557373 241.863525, 1635.336914 239.273926, 1633.109863 236.991150, 1630.054932 236.132996, 1627.354980 236.482849, 1624.580200 234.926270, 1622.287109 233.497375, 1619.181396 233.601013, 1615.226196 233.333313, 1612.180176 231.797180, 1609.104248 232.151794, 1607.379639 230.093628, 1604.115356 229.742920, 1603.789307 227.302551, 1601.925659 227.977966, 1599.146973 228.070251, 1596.072144 228.286560, 1594.673950 225.723999, 1591.821167 225.834473, 1588.892944 224.791748, 1586.325684 223.863220, 1583.713501 223.158508, 1581.000977 222.760986, 1577.916626 222.170288, 1576.617554 220.733521, 1576.075562 221.612671, 1574.986572 221.714355, 1573.175415 222.241699, 1572.037109 220.177246, 1570.269043 222.534180, 1569.211914 220.984436, 1567.491455 223.504700, 1566.439697 221.898132, 1566.011353 220.369385, 1566.180786 217.635437, 1566.438354 214.807678, 1567.128174 211.595947, 1565.206787 209.384277, 1564.483765 207.283203, 1563.692627 205.981506, 1563.651733 203.790894, 1561.745239 204.259583, 1560.693115 201.466431, 1558.364990 199.076294, 1559.901855 196.865540, 1558.407104 195.908997, 1557.806885 194.164795, 1555.728149 194.655884, 1553.587158 190.714783, 1549.907349 189.219788, 1546.339478 188.108093, 1544.837646 186.709595, 1542.202026 187.106812, 1537.831543 186.239990, 1534.241943 186.311462, 1531.147583 186.717346, 1527.096680 185.700317, 1522.468262 184.593628, 1517.679199 183.602234, 1513.023926 181.632324, 1510.170410 180.875854, 1507.964355 180.484497, 1505.441162 178.609070, 1502.620605 176.526306, 1499.332031 176.299194, 1495.576050 176.137695, 1493.550415 174.381104, 1491.490601 174.194580, 1491.322510 176.325928, 1488.106445 176.316711, 1485.843872 176.844177, 1481.595093 176.234131, 1477.679688 175.304382, 1474.464844 174.614807, 1470.624634 176.287354, 1467.602783 177.814880, 1465.745972 179.385376, 1463.670898 179.760620, 1462.132690 180.194946, 1460.996216 179.464844, 1458.677124 178.718140, 1458.721069 181.670166, 1458.249756 184.473389, 1455.667114 186.106567, 1454.862061 188.354431, 1451.951904 190.153320, 1449.097168 191.974548, 1448.718506 195.009705, 1448.001587 198.248291, 1446.830933 201.331482, 1445.567261 204.718445, 1443.190552 206.088013, 1441.921265 208.963379, 1438.679077 210.924622, 1436.820435 213.533325, 1435.104126 216.229126, 1432.887451 218.153931, 1432.457031 221.057861, 1429.531860 222.088379, 1426.517700 223.429016, 1423.446899 224.932556, 1419.758301 226.414978, 1416.242920 228.107483, 1413.280273 231.480469, 1408.113892 233.969666, 1403.812378 234.218567, 1400.748901 236.868530, 1397.947876 236.847717, 1395.461670 239.292664, 1392.149170 241.410400, 1389.136841 240.962463, 1387.307861 241.941162, 1384.197754 241.815369, 1382.286865 239.204773, 1381.262085 238.159363, 1380.667847 239.191711, 1378.667725 239.083801, 1376.588257 237.037048, 1373.643799 237.537720, 1372.096558 235.464417, 1369.894165 234.431763, 1368.262573 234.412598, 1366.515747 234.871277, 1364.874023 232.965332, 1361.516235 233.885559, 1358.709961 232.818054, 1356.707886 231.263062, 1354.219360 232.167725, 1352.228149 230.463379, 1351.843140 234.181396, 1351.502686 237.251892, 1350.025269 237.915527, 1350.060669 239.874451, 1347.895386 239.197205, 1346.245972 239.440918, 1345.647705 240.855347, 1345.231323 243.009583, 1342.994019 245.710022, 1344.218384 248.940491, 1341.567383 250.093140, 1342.447754 252.510315, 1342.916870 256.269348, 1341.530151 260.011963, 1341.567627 263.169556, 1343.854980 265.885925, 1343.084595 270.431824, 1341.273438 274.155945, 1339.279663 277.726868, 1339.838501 281.820496, 1339.365601 285.888977, 1339.326660 289.554382, 1339.318481 293.181519, 1337.583252 296.292480, 1335.943604 298.728882, 1335.308716 301.176270, 1333.945435 302.945251, 1333.397217 305.268616, 1332.043457 307.122986, 1331.471069 309.475525, 1331.680542 312.405090, 1330.338623 317.232788, 1329.235107 321.734985, 1328.828613 325.664612, 1327.433228 327.325562, 1326.219849 329.445984, 1325.522949 332.847595, 1326.223145 336.342957, 1325.151123 341.138672, 1322.859009 344.909058, 1318.065063 347.556824, 1313.724854 350.893127, 1309.554688 353.037842, 1306.595581 356.859436, 1303.851562 358.923340, 1303.334473 361.687927, 1299.757568 365.570862, 1297.948120 366.658081, 1297.584229 369.117920, 1296.059570 372.523376, 1295.229370 376.828247, 1291.925171 383.145630, 1288.566406 386.656433, 1286.651489 390.745483, 1284.559204 394.202942, 1284.066895 397.323181, 1281.980591 401.605530, 1280.166626 402.744568, 1279.840210 405.490356, 1278.160400 409.053406, 1278.235229 412.989380, 1277.197876 417.554138, 1277.991333 422.643066, 1276.921631 425.524597, 1277.259644 428.754883, 1277.814575 433.501770, 1276.706665 438.600281, 1275.326172 440.365662, 1275.480835 443.316040, 1274.082397 447.515686, 1273.255737 451.117737, 1272.565796 455.179565, 1272.063110 458.868835, 1272.607788 461.929382, 1272.318115 467.796143, 1273.087280 473.910339, 1272.088013 477.557800, 1271.939453 480.696533, 1272.746338 483.343323, 1272.663574 487.394531, 1273.749390 491.420044, 1273.152832 497.129089, 1271.718384 500.817749, 1270.769531 503.270447, 1270.832520 505.049805, 1270.967163 508.121460, 1270.910034 513.194946, 1272.848877 516.472168, 1273.399658 521.406128, 1274.433105 526.026062, 1276.491577 529.517456, 1277.266724 532.783630, 1278.721069 535.501709, 1279.898071 538.742554, 1281.748779 541.269531, 1283.801514 545.895630, 1285.332886 550.566895, 1286.791748 554.842957, 1288.804199 558.463745, 1290.359009 561.933716, 1293.103760 565.092346, 1294.739990 570.620300, 1296.444580 575.413513, 1296.534424 578.572876, 1297.722412 582.510864, 1298.677856 585.344727, 1300.000366 587.123169Z M1180.272339 542.344238 L1180.651001 547.756958, 1181.883545 553.575562, 1181.963379 558.643677, 1183.349609 564.414429, 1184.422485 570.367188, 1186.733765 574.695496, 1190.946045 578.229614, 1196.380981 581.641724, 1199.972900 583.329529, 1201.720215 584.896118, 1203.393799 587.048950, 1206.628418 589.375977, 1209.221069 592.386841, 1212.454224 595.977173, 1215.336914 598.459473, 1217.693970 601.424194, 1220.972778 605.784180, 1223.237061 607.273376, 1224.475220 609.598206, 1228.178833 613.559937, 1231.178833 616.651917, 1232.932251 619.160156, 1234.677246 620.562683, 1236.314331 623.764038, 1239.473999 627.462280, 1241.141357 631.683533, 1243.097290 635.327881, 1244.036255 637.306885, 1244.174805 639.207825, 1245.000488 644.522522, 1246.379517 650.178833, 1248.658447 654.439026, 1250.251587 657.533813, 1249.805908 659.958862, 1248.580200 662.063477, 1250.112671 667.269348, 1251.081543 670.559021, 1251.705566 672.913818, 1251.040039 675.750977, 1252.427368 676.797607, 1252.457764 679.034058, 1254.353760 681.564819, 1254.867310 683.639343, 1253.727173 686.291016, 1253.241089 689.790649, 1250.905151 691.208252, 1249.880859 694.721130, 1248.411865 699.024658, 1247.899048 704.094727, 1247.697388 708.851807, 1244.504761 712.016357, 1246.034180 716.813965, 1248.256348 719.238647, 1250.025146 722.576782, 1251.702148 724.029541, 1252.741089 724.717896, 1252.174438 726.041687, 1251.889648 728.582031, 1251.847900 733.530151, 1250.742920 739.662598, 1247.757812 745.294189, 1245.919678 749.082275, 1243.398682 752.237366, 1239.820679 757.026489, 1239.092773 760.138062, 1236.997925 763.275513, 1234.935913 766.729980, 1233.964600 770.356934, 1233.230835 772.345215, 1232.349609 773.903198, 1229.709351 775.588440, 1227.749268 778.448853, 1225.457275 780.740845, 1223.141968 782.868591, 1223.312622 784.513245, 1221.411743 785.504395, 1217.970581 787.671814, 1216.288452 789.681091, 1213.809814 791.141235, 1213.028442 794.595093, 1212.312866 797.771301, 1209.489380 799.056641, 1206.696655 800.599182, 1204.079468 802.211914, 1201.465698 803.957397, 1201.543213 806.070862, 1198.734741 806.292603, 1195.008911 807.192139, 1191.540039 808.245544, 1188.698608 809.103333, 1185.977417 808.483765, 1182.958740 808.063721, 1180.916138 806.794617, 1178.896851 807.578125, 1177.717285 807.870239, 1175.190796 808.197754, 1171.155640 809.882874, 1166.575684 810.535583, 1164.157349 811.908875, 1162.000854 812.032593, 1160.825317 812.983704, 1159.083008 813.575989, 1156.722534 813.046570, 1153.467651 811.995239, 1149.916504 810.537781, 1145.593506 809.566650, 1144.585938 812.457642, 1142.276978 812.052063, 1141.838501 814.263855, 1140.217773 814.191345, 1139.185913 816.447144, 1137.593994 816.655029, 1136.305542 816.553040, 1134.951904 817.633423, 1132.836304 816.351440, 1130.791870 818.814392, 1130.784546 820.799011, 1128.144287 820.615417, 1125.163940 819.280151, 1122.536011 818.705078, 1119.792480 821.078125, 1117.023071 823.707275, 1113.624023 823.442993, 1112.212891 826.464294, 1109.596436 826.333374, 1107.333740 828.895142, 1106.197510 830.468933, 1104.411865 828.612549, 1102.725952 830.938721, 1101.291260 832.546814, 1099.426025 832.005066, 1096.945557 831.397583, 1095.197998 833.234131, 1093.803101 834.698669, 1091.904785 833.858154, 1089.856812 833.003967, 1088.582520 834.066284, 1086.339722 833.372620, 1082.213379 834.355347, 1078.780762 834.457947, 1075.727905 834.036255, 1072.150269 833.512268, 1069.430298 834.683594, 1066.532837 834.723389, 1064.412231 833.756165, 1061.605225 833.324341, 1059.939453 836.059021, 1059.546753 838.018982, 1058.844727 839.347595, 1057.070801 841.358215, 1055.950317 842.726807, 1053.767944 841.813110, 1050.879395 844.675049, 1049.320801 846.210144, 1047.579102 847.879639, 1045.732910 849.583069, 1043.736694 851.324219, 1042.537842 852.905457, 1040.215088 852.171082, 1040.089844 855.488892, 1041.086548 857.632141, 1039.646973 859.032959, 1037.942993 860.774597, 1040.036133 862.969910, 1038.818726 864.548340, 1040.227295 867.610535, 1039.574463 869.055237, 1038.411865 870.722717, 1040.987061 871.719727, 1039.886597 873.760986, 1039.809448 876.992126, 1040.020386 879.501343, 1038.879028 881.358398, 1038.703613 883.979980, 1038.018311 886.703552, 1035.676636 889.005859, 1033.125244 892.203674, 1029.817017 894.988953, 1030.288818 897.538818, 1028.265381 899.889648, 1026.109863 902.941101, 1023.833313 905.690735, 1021.985962 907.453613, 1020.758484 908.933044, 1019.394775 910.640869, 1017.957520 911.828125, 1015.929260 912.141663, 1015.769836 914.367737, 1013.566650 915.231995, 1013.902893 917.730042, 1011.725586 919.810120, 1010.429626 922.422913, 1007.672485 923.724548, 1007.343872 925.732910, 1005.762573 926.580322, 1006.326050 929.373840, 1007.364685 932.449829, 1009.772461 935.613464, 1012.028076 937.359253, 1014.102600 939.185120, 1014.039673 941.993530, 1013.704529 944.860779, 1016.190613 946.470276, 1016.421143 949.425293, 1016.839661 952.691589, 1018.845886 953.564514, 1020.867554 954.584595, 1023.355347 954.411072, 1024.232910 957.185852, 1025.610718 959.356506, 1027.303589 960.279968, 1028.252441 961.930237, 1031.174561 960.741089, 1034.203613 961.880066, 1035.811523 962.161560, 1036.042603 963.552063, 1038.581909 964.311462, 1041.997437 965.890869, 1045.326416 963.940674, 1047.525269 963.300110, 1050.292236 963.138794, 1053.274902 965.124451, 1056.387451 966.734680, 1059.125366 966.695740, 1058.642212 968.502380, 1057.930298 970.160278, 1056.329590 971.646667, 1054.777588 974.345886, 1054.310669 976.090759, 1052.945068 975.065186, 1050.737671 975.889893, 1047.844604 976.383728, 1044.979370 977.269897, 1044.168457 980.340637, 1041.420898 980.891113, 1038.521484 981.249329, 1035.796265 982.207214, 1036.400146 984.295959, 1035.484375 984.082397, 1033.502686 983.850525, 1031.070068 986.528564, 1029.447632 988.551453, 1027.589966 989.775513, 1025.744751 990.878906, 1023.249512 991.372864, 1020.712769 991.962402, 1018.692566 993.271118, 1017.107849 995.309387, 1014.123474 996.754822, 1010.824280 998.690552, 1007.027649 997.714050, 1002.445679 999.265747, 1001.524536 1001.190857, 1000.925598 1000.622437, 998.168091 1000.175781, 997.113220 997.576721, 993.951111 997.381165, 992.077637 995.683533, 989.584229 994.546204, 987.056335 993.251953, 985.810974 990.726013, 983.605286 989.673279, 984.242493 986.013428, 981.039246 983.491516, 979.255005 981.642273, 979.030823 979.296997, 977.910583 978.627319, 976.870117 977.697876, 975.290405 976.242493, 973.695679 974.908386, 973.486023 972.271973, 971.424683 972.413086, 972.025696 970.858459, 971.723511 968.491516, 971.946350 965.072571, 971.808533 962.180237, 968.795105 961.965637, 965.953064 962.037048, 967.969177 959.878296, 967.649048 957.914124, 970.664124 955.338013, 972.574951 951.518799, 969.430176 950.511597, 967.595764 949.175110, 967.023743 946.999390, 965.120361 945.128601, 962.798828 945.866760, 960.723816 945.320312, 958.619019 944.510681, 958.247375 942.332458, 959.278931 939.592773, 958.494202 937.013367, 958.408325 933.882996, 959.730835 931.761780, 958.641235 929.200012, 957.135742 926.441833, 954.485229 924.408020, 951.788391 923.019592, 949.733398 921.972412, 950.724487 920.010864, 948.097351 919.011108, 948.526184 916.961060, 944.376831 915.602600, 941.502869 913.785339, 940.091003 912.093201, 938.499573 910.901367, 937.799255 909.052734, 936.391174 907.478210, 935.701294 904.528198, 934.350403 901.854797, 932.860596 901.615173, 933.131653 899.875854, 931.738464 897.281860, 930.215271 893.927612, 930.142639 890.802124, 928.927917 888.313965, 927.038147 887.379150, 927.877014 884.970276, 926.403931 881.320435, 925.831116 879.242004, 926.086060 877.359863, 925.744263 874.148804, 925.231323 871.825623, 924.039856 870.582642, 924.176514 868.908203, 922.496765 867.698303, 922.278198 864.845337, 921.066895 861.631714, 919.490234 860.283936, 920.142395 858.855347, 920.417847 855.545166, 920.988953 852.532776, 922.975586 850.145874, 924.394409 847.557739, 925.426514 844.855225, 926.434631 842.218079, 926.463562 839.425903, 926.369324 837.330322, 924.514771 837.240906, 923.726990 835.721069, 922.221191 835.028503, 921.177490 835.973633, 920.829834 835.459351, 919.896790 834.315430, 919.658447 832.159912, 917.524109 832.753174, 917.340027 831.279297, 915.816345 829.510620, 915.017700 826.367126, 914.102295 824.280884, 914.120483 821.684082, 911.883240 819.825439, 909.944946 817.024292, 907.663391 815.761414, 905.666748 813.811646, 903.184265 810.753052, 901.222473 807.853882, 898.919312 805.204529, 896.179504 801.946289, 894.599976 798.145142, 893.083618 794.560913, 889.262573 791.645752, 885.544922 788.946289, 881.734314 785.867004, 878.414185 783.004211, 870.505615 782.245605, 863.870422 784.161743, 858.540161 787.274780, 854.723633 790.499756, 851.189453 793.821777, 846.816711 796.048462, 842.673340 798.571045, 839.328552 802.386475, 835.770996 806.129639, 832.892334 809.603577, 832.411987 811.478821, 830.414856 812.033203, 830.620178 813.058228, 829.382690 813.725464, 826.496765 813.888672, 825.389465 815.694702, 824.967529 816.643860, 822.874634 815.932434, 818.694153 817.400208, 814.286316 818.588867, 808.817749 820.991699, 802.936218 823.235840, 799.412354 826.127258, 796.177185 829.019043, 793.619873 831.587402, 791.075806 833.832153, 787.962891 835.950928, 784.307434 838.303467, 780.518066 840.257935, 777.010864 842.249023, 773.290833 841.511841, 769.427856 843.336792, 766.434387 844.385498, 762.661621 845.653015, 763.376404 847.890625, 761.590881 848.986206, 759.009338 849.024719, 755.143799 852.404480, 751.612671 856.381775, 748.324524 859.505737, 744.822754 862.526611, 742.964233 866.083862, 741.717651 868.295288, 739.881042 869.174805, 738.476685 870.704407, 735.575562 871.911621, 732.068665 872.527527, 727.612427 874.331604, 723.152466 875.302795, 721.032898 876.441406, 717.986389 875.848938, 711.077393 875.377197, 708.232971 876.422241, 704.812622 876.967590, 701.009888 877.025574, 697.371521 876.079834, 692.136108 876.541138, 686.518433 877.238953, 683.395081 880.034485, 678.998047 881.057678, 674.680725 881.533569, 670.455627 881.091370, 666.180420 880.746582, 664.333435 878.661011, 659.726196 877.599609, 657.114929 877.299744, 656.431213 874.963562, 652.860596 875.088257, 649.771545 875.316284, 647.524170 875.497498, 647.487610 873.921936, 644.062866 872.794922, 640.604187 871.306641, 636.099854 871.727356, 631.348206 872.141418, 626.870300 871.349548, 623.298157 868.966980, 619.790771 869.120667, 615.791992 868.156616, 612.021973 867.578369, 609.160400 866.971436, 606.378418 864.551697, 603.622620 864.156433, 601.630066 863.644043, 600.091003 863.074341, 599.857300 861.380920, 597.893799 859.317871, 596.122314 857.157593, 593.829102 855.886230, 591.701965 853.935913, 587.240295 853.504639, 584.169250 850.222778, 582.428345 846.472412, 577.666321 844.545837, 574.363770 842.689636, 570.778931 842.270020, 567.955017 842.549072, 565.587097 841.988831, 563.127808 839.578735, 560.210266 838.287415, 558.736084 836.188904, 558.130615 833.666992, 555.066162 830.604858, 553.301453 826.830933, 550.622742 824.005249, 547.767334 820.357422, 545.382874 816.832764, 543.689148 815.424988, 545.116394 813.069824, 542.013916 809.497620, 540.003357 806.833313, 538.868774 804.582031, 538.996582 801.395447, 535.864990 795.496704, 532.660522 790.135620, 530.534546 786.848511, 528.936462 783.160645, 528.372498 779.432495, 527.374146 774.857910, 526.154236 771.091309, 524.752136 766.615173, 523.464905 761.898499, 522.242615 757.255737, 521.290588 752.036621, 519.908630 752.022705, 520.189636 750.707886, 520.513611 748.010376, 519.652710 742.569458, 519.014038 737.584290, 518.134705 732.455872, 516.132019 728.264648, 515.678345 723.866821, 514.733826 719.318970, 512.577209 715.386047, 511.194977 711.435181, 508.653961 710.073242, 507.226196 709.098633, 506.259949 708.916077, 505.637573 707.517273, 502.861908 706.718384, 501.284424 704.022949, 500.323883 700.707214, 498.109375 699.786865, 497.367493 700.229980, 496.800507 699.939575, 497.152985 699.739380, 497.907898 698.032532, 497.088287 694.150269, 493.731995 690.138733, 490.483826 687.273682, 487.160095 684.756592, 484.330444 682.022461, 479.378296 681.015991, 473.475677 680.950562, 468.092743 681.752808, 464.546051 682.209717, 463.263885 683.114685, 462.509918 682.405334, 460.391388 681.521118, 457.101868 682.248535, 454.886902 682.503845, 454.063843 682.637085, 452.910889 682.447510, 452.023285 683.111938, 450.525879 683.425293, 448.707489 682.427368, 445.944763 683.088196, 443.958984 683.072205, 441.588013 682.744507, 438.093201 683.153503, 436.386688 683.569641, 434.380066 683.272827, 431.579803 683.995728, 428.397614 684.454102, 424.111816 684.867676, 422.098358 686.545166, 419.893707 687.131897, 417.436157 688.867432, 413.727661 692.388428, 409.329681 696.824463, 404.868530 698.379944, 399.790955 700.208618, 395.868927 701.355164, 392.971619 704.037476, 390.810791 707.138916, 389.262115 710.132385, 386.819733 710.966980, 384.049408 712.081299, 381.147095 713.165039, 378.198975 714.262146, 375.097321 715.760559, 371.653503 717.663940, 369.920380 721.761108, 365.882629 723.064941, 363.730927 726.236389, 361.763245 728.723083, 359.385345 731.004639, 359.380890 733.778687, 357.302582 733.631592, 353.090820 733.319519, 350.555206 732.737183, 349.279938 732.462708, 346.738159 732.298218, 343.347168 730.531982, 340.490570 729.064819, 336.980286 728.926025, 333.204468 727.796509, 329.295624 726.453247, 325.478760 725.027405, 321.576721 723.194824, 319.002136 724.045776, 315.986481 722.500488, 313.419495 719.788452, 308.895477 717.922852, 304.678131 718.015259, 302.632416 719.312683, 300.119781 717.850769, 296.255188 717.615662, 292.942841 716.109009, 291.538940 717.596863, 289.176300 716.551453, 285.683380 717.086182, 282.410095 715.165649, 278.391998 715.171143, 277.510895 716.804443, 276.074585 715.943237, 272.856018 715.659912, 270.043976 714.606628, 267.047760 713.493164, 263.817047 712.319946, 260.730774 710.936523, 257.529358 709.704712, 254.663162 708.352600, 251.656998 706.951050, 248.514191 705.011902, 244.739807 702.839600, 241.587036 702.010986, 238.876465 698.817871, 236.206207 695.541260, 233.261887 694.368225, 230.285019 692.415161, 227.596268 690.352844, 226.133301 687.902710, 224.081528 684.907471, 222.445114 681.775635, 219.894348 680.041016, 218.309708 677.684875, 218.085815 674.537354, 215.469696 670.947144, 212.942810 667.563721, 211.227127 664.197754, 208.051605 659.459717, 205.290207 654.359863, 202.415192 651.069214, 200.657211 646.598633, 198.136215 642.658752, 197.392349 637.747742, 196.671066 631.623596, 195.864426 625.228638, 194.701797 620.032654, 192.688522 617.126099, 191.477234 613.557739, 189.167816 607.731140, 185.741165 603.200745, 182.614380 599.165527, 179.818375 595.146973, 177.308380 590.835571, 175.346786 586.122070, 172.761398 581.432495, 170.540344 577.424927, 168.433670 576.759155, 167.675400 573.749268, 165.125473 568.797302, 165.211670 564.933228, 162.696365 561.603210, 162.442596 556.793945, 161.297226 552.338135, 159.485092 548.693115, 159.213593 545.603394, 157.973755 540.244629, 156.478271 537.016479, 155.923691 531.879333, 155.018723 527.160339, 154.889648 522.148926, 154.220520 516.773315, 152.925690 511.430298, 151.080841 508.527710, 150.106918 505.510376, 149.097717 502.158691, 147.942673 498.755554, 146.540970 495.374146, 145.148560 491.669922, 143.574936 487.928284, 144.548462 484.773315, 143.385269 481.153992, 144.279343 477.905640, 145.194458 474.216370, 144.453171 469.688660, 143.679810 464.930481, 143.138138 459.619019, 143.032867 453.935120, 142.261520 449.041565, 141.788208 444.770447, 141.212204 442.130920, 141.921066 439.002136, 143.675064 435.744873, 145.246429 431.116882, 145.157852 427.198303, 146.555862 422.695862, 146.569702 418.839355, 148.125519 414.155701, 150.033142 408.950073, 151.571503 404.347290, 152.000610 398.903320, 152.995865 395.338440, 153.491272 388.775024, 152.935074 382.245850, 151.650589 377.824036, 149.886627 374.369202, 148.160034 369.914612, 147.578339 365.001343, 143.627655 361.901794, 141.966690 360.558594, 140.523438 358.081116, 138.511871 357.686096, 138.369446 355.592468, 138.195892 352.598938, 137.309036 350.086182, 135.546494 349.075134, 133.433563 348.521545, 131.261063 349.548950, 129.651962 347.326050, 128.028641 345.595276, 127.247040 348.024719, 125.779236 345.458130, 122.692184 344.946533, 120.160759 345.427979, 118.038521 348.491394, 115.205338 348.854065, 111.757454 351.091125, 107.545425 352.082153, 103.371033 352.174377, 99.700775 351.539978, 96.350945 350.516235, 93.330948 349.228333, 90.440292 347.868713, 87.897293 346.381592, 85.581223 344.971191, 83.623047 343.751892, 82.543869 343.159668, 83.297394 341.136780, 81.341972 339.427124, 79.266869 337.708740, 76.015480 337.184387, 73.435875 335.805054, 70.839386 333.981995, 68.691261 332.351929, 66.258553 331.869507, 64.573875 330.798889, 62.933666 330.220703, 60.503136 330.059021, 58.502384 328.254150, 55.299545 327.733215, 51.802162 327.538391, 48.159306 326.627197, 44.767849 325.422791, 40.539310 325.761841, 35.817181 324.069763, 31.783998 321.003967, 28.253613 317.745300, 24.874388 316.362488, 23.657320 312.129822, 23.128256 308.040466, 23.004217 304.495422, 23.059788 301.946350, 21.768751 300.691772, 20.230492 300.789001, 20.364014 298.763977, 19.723238 295.044983, 17.838652 293.537964, 17.039982 291.710571, 15.921350 288.893982, 13.348950 287.759705, 15.210018 286.450745, 14.215331 284.512878, 12.610214 283.670776, 14.187261 282.363586, 11.632122 279.062256, 9.353512 276.666687, 9.550666 274.388794, 7.318997 271.230347, 6.619141 267.909668, 5.980926 264.376160, 4.667699 261.200073, 3.616777 257.765930, 1.960925 254.926575, 2.052817 250.975342, 2.197909 246.610291, 0.953341 243.560730, 0.680511 239.201294, 0.218018 236.945557, 1.196583 235.283447, 0.000000 232.336670, 0.034993 229.882080, 0.102513 226.728821, 0.370791 223.067871, 1.108485 219.635559, 2.315215 216.160156, 3.884202 213.081360, 5.110088 209.840698, 6.890170 207.867432, 9.778736 205.546509, 8.550289 203.605713, 11.066547 201.780029, 15.478106 198.855408, 14.185933 196.864075, 17.013048 195.380859, 15.398069 193.217773, 16.608213 190.663940, 18.488722 189.099365, 20.268234 187.604309, 19.383646 185.253906, 18.918972 182.587952, 20.301804 179.458679, 22.146276 176.719543, 23.160213 173.791443, 22.441582 172.371948, 23.583258 170.760376, 21.615978 170.061096, 22.307205 168.141296, 25.172728 166.935791, 25.899895 163.231873, 29.085283 161.445190, 30.303110 159.547974, 30.951187 157.891907, 33.413773 156.796143, 36.265163 155.696106, 37.917885 154.077637, 41.561691 153.496704, 43.803410 153.896973, 44.230816 155.692505, 46.013081 154.630981, 47.011845 156.005737, 48.593445 156.919739, 49.750957 158.102539, 50.960625 160.094666, 53.039616 159.202881, 53.867020 161.307678, 55.691010 160.658325, 55.729889 161.583923, 55.649853 163.400879, 57.545723 164.809692, 59.407074 167.026001, 60.444912 171.137329, 61.649651 173.424377, 63.015697 174.785217, 64.456566 176.979858, 66.879982 174.821411, 69.978127 174.307556, 72.505577 174.000000, 74.172997 173.038025, 75.287643 171.425537, 77.998688 170.647705, 79.609024 168.338013, 80.941025 169.956360, 83.548698 169.584045, 85.017639 168.013184, 87.075294 168.266785, 88.480789 167.316528, 90.554947 168.369751, 90.870071 171.000977, 91.116821 174.619446, 94.037247 174.706116, 95.110359 176.737610, 95.923065 179.280945, 96.900208 181.938049, 99.587357 182.490051, 101.685410 181.097534, 105.119637 182.487244, 109.191788 182.705933, 111.314026 182.687439, 113.238914 182.976074, 116.117050 183.093079, 118.884613 182.778137, 120.922539 182.417969, 121.907837 181.183472, 122.957428 183.408875, 125.951828 182.353333, 127.695587 181.688904, 129.470840 182.488098, 130.993256 180.139771, 133.674149 178.175415, 135.272247 177.038330, 136.187561 177.529785, 137.203873 176.083252, 138.814102 174.698792, 141.305420 172.996399, 143.868713 174.894165, 147.976059 172.666748, 149.629532 172.675842, 150.577942 174.518555, 152.667847 173.510498, 154.631241 172.701355, 157.712219 171.591675, 160.924911 170.592102, 164.162170 167.434998, 168.200577 166.192322, 171.823898 165.294006, 176.251099 163.028198, 178.474228 160.455505, 181.234207 158.664062, 183.859238 158.213989, 186.226715 156.497437, 188.335098 155.666992, 190.984207 155.237000, 195.204880 153.743225, 198.637497 154.341309, 202.747864 152.805725, 206.842682 151.264160, 210.095978 149.479431, 212.631393 147.329895, 212.774109 145.761108, 215.437454 145.349915, 219.006912 143.374634, 220.639999 141.216370, 222.554749 140.141663, 226.074326 138.901001, 230.134048 136.881836, 230.727036 133.770203, 231.873077 131.591736, 231.580612 129.771179, 232.398163 127.704956, 234.527695 125.833191, 235.703690 123.222656, 236.333099 121.219849, 238.244034 119.546631, 240.031326 118.157532, 242.442520 117.256836, 241.701309 115.114014, 242.681778 114.925659, 244.528717 114.038330, 246.884323 112.916138, 249.427704 111.949890, 253.228928 109.568115, 255.996780 107.784607, 257.424835 105.877991, 259.923645 104.289978, 262.971832 102.263977, 265.961395 99.559570, 269.309204 97.063721, 270.233734 94.349060, 270.848053 92.492249, 273.255066 91.989746, 273.291840 89.882996, 275.538696 89.113708, 279.028015 87.707886, 280.656738 84.270447, 281.955933 81.404846, 281.956024 79.505371, 283.018433 77.859070, 285.127869 76.715881, 287.387207 75.151062, 289.490204 73.732971, 289.038818 75.974792, 291.536377 76.666199, 293.909821 78.564453, 296.460419 80.013489, 299.184448 81.305664, 301.708679 81.349670, 302.840668 82.988342, 304.782532 84.878601, 308.028534 84.834900, 311.071198 86.292175, 312.948364 87.177307, 315.044067 87.864197, 317.290039 90.405579, 319.987823 89.317200, 320.628693 92.094604, 321.817871 94.429932, 322.431824 96.522888, 325.681793 97.737488, 329.356964 99.155579, 332.893250 100.030884, 336.092377 100.869202, 338.916077 101.765564, 340.915894 100.339966, 342.115112 102.732239, 344.362640 101.628235, 345.956451 103.757935, 348.481537 102.903687, 350.419037 104.761292, 352.024170 102.796448, 352.935760 103.808411, 355.093658 105.440063, 356.771027 103.535828, 357.829559 104.670959, 360.019012 106.396545, 362.567719 105.524658, 364.386658 107.054932, 367.037689 105.661804, 368.978424 107.640930, 371.147217 106.911499, 372.447357 108.582092, 374.928711 108.054565, 376.324341 108.728638, 377.573853 109.864502, 379.856812 112.501038, 382.483368 114.985779, 387.195435 116.751587, 392.300323 119.065857, 394.105438 118.629333, 395.825378 119.780212, 399.688629 120.983887, 404.026703 122.404297, 406.446320 122.893433, 407.379272 124.228394, 411.419098 124.859070, 415.064117 126.286804, 418.443542 127.414307, 421.394501 128.796204, 423.692841 129.035583, 423.822205 130.448242, 427.808044 132.020264, 431.075745 133.933716, 435.643890 134.995422, 439.630493 137.472839, 444.433350 140.511292, 449.533752 144.581665, 456.439301 147.078552, 460.222595 147.820557, 463.564911 147.691467, 469.149780 149.214294, 475.494141 148.568481, 481.520966 148.604248, 487.279510 147.528625, 491.845093 146.137573, 497.368011 145.192566, 501.381439 143.599854, 505.161316 141.298523, 508.285889 139.122192, 509.905792 135.948792, 510.788330 132.208130, 511.070923 129.775146, 513.343994 128.840576, 514.229736 125.473389, 514.736938 123.275146, 516.972351 120.068787, 519.252075 116.060059, 520.475342 114.276672, 521.182251 112.873535, 523.179321 111.531860, 525.290344 110.233215, 527.712646 109.521729, 528.906982 107.248108, 529.064270 105.613342, 531.440613 105.608887, 533.068909 102.957397, 537.166504 103.052185, 540.945190 103.318665, 541.750610 101.196716, 543.059814 99.305420, 544.159180 97.259888, 544.849976 95.406433, 546.892761 94.188049, 545.715820 91.981995, 547.515747 91.895691, 549.492065 90.530396, 549.952515 88.070068, 551.871277 86.382263, 553.063416 84.029968, 552.835205 82.203064, 555.315674 83.113342, 557.270203 80.023071, 557.052795 77.951660, 559.115417 77.747681, 560.885071 74.760559, 562.378540 72.080933, 563.730164 69.494507, 564.908752 66.772827, 566.118225 64.319702, 568.604736 63.849060, 568.825745 60.632324, 568.845459 58.326782, 569.310730 56.487305, 569.731140 54.616272, 570.093079 52.178711, 570.409241 49.872986, 570.633606 48.285645, 572.107849 46.259766, 572.259033 44.318176, 572.272034 43.295593, 573.312134 42.703247, 574.915588 41.614685, 575.770081 37.736694, 576.543640 33.594238, 575.090210 31.584473, 576.930847 30.097961, 576.932617 27.236145, 580.169006 25.658386, 582.354492 24.402405, 583.948303 25.449829, 587.175964 24.832581, 589.942017 26.274414, 593.350525 25.489014, 596.349243 26.785217, 599.939087 25.754822, 603.157593 26.897034, 606.464294 27.809692, 609.904358 26.742859, 612.936157 27.874878, 615.712830 27.129272, 618.373047 27.685852, 621.056641 28.819275, 624.239075 28.207336, 627.123474 29.864685, 630.050537 31.592712, 633.955444 31.418823, 637.479065 31.182190, 640.403687 30.357178, 643.666870 31.145813, 646.983887 31.584839, 649.630493 32.612000, 651.698669 32.426392, 653.451538 31.414551, 655.796448 33.481689, 658.507080 33.480896, 661.461609 33.077148, 662.609497 30.649170, 664.752686 31.237976, 666.971313 32.984070, 669.691711 32.081482, 672.069092 31.147766, 674.010620 30.244019, 675.737122 31.881409, 677.660156 30.399475, 679.066772 28.257996, 679.780334 25.017212, 682.231750 24.808411, 685.046204 23.920410, 687.917419 22.809143, 689.934021 25.084351, 692.090149 25.660645, 692.298523 27.577454, 692.905640 30.169800, 695.023315 31.142761, 696.429077 32.187439, 697.331299 34.681946, 700.443115 35.158386, 702.889099 36.155823, 705.683655 38.232361, 708.220398 40.591370, 711.239197 42.582153, 713.324036 45.379395, 716.053406 48.306580, 717.708984 52.537476, 720.174683 56.873108, 721.724243 60.296204, 722.625732 63.342285, 723.296204 66.744568, 726.038574 70.868530, 728.556152 76.709839, 730.621460 79.358948, 729.811584 81.977234, 731.111633 82.764526, 730.906982 84.802063, 731.762268 87.653503, 730.180664 90.925476, 731.300964 93.260986, 732.814941 95.069092, 733.753418 97.172546, 734.816223 99.377014, 735.999512 101.826782, 739.222961 101.943176, 740.409424 104.381592, 738.847595 106.830017, 740.122620 109.287781, 740.560608 112.071899, 742.629150 113.995972, 742.180847 117.209412, 744.965698 120.667175, 746.972229 122.039185, 746.176270 124.034241, 746.563843 127.250854, 746.109497 130.207764, 745.005859 132.802368, 745.624451 136.007751, 748.127136 137.839722, 748.265015 141.277649, 748.466064 144.489990, 748.607300 147.544678, 748.661987 150.055725, 749.667114 152.444031, 750.970520 155.426575, 752.654907 158.397095, 753.747070 161.088501, 753.465332 163.713257, 753.436646 167.395081, 755.044373 171.055603, 756.158203 174.763184, 757.495972 178.663818, 759.158203 182.349976, 758.628784 185.862488, 760.579163 188.736633, 761.216614 191.733215, 763.502930 195.738281, 765.395386 199.232117, 767.930664 203.497314, 769.920166 207.944336, 772.787170 213.266846, 775.809692 218.527466, 779.107422 222.225586, 784.012878 225.021423, 790.755066 227.988770, 795.750610 228.330750, 800.708313 228.033813, 805.534180 226.712646, 809.874634 224.503906, 813.083435 221.554749, 815.756287 218.586426, 818.511597 215.659912, 821.438293 212.651428, 822.668152 210.736389, 824.456665 210.770508, 827.141357 208.741150, 830.178894 207.364197, 834.050293 206.902405, 837.587341 205.290894, 840.734680 204.324463, 843.809021 203.440308, 846.945312 202.740784, 849.836243 202.092041, 852.358276 200.649719, 854.637634 198.620422, 857.973083 198.670776, 861.294128 198.245178, 864.553406 197.589111, 867.436462 196.516418, 867.905518 194.398987, 869.949158 194.576233, 873.073730 194.190002, 875.362305 193.962891, 877.271667 192.884705, 879.649719 191.838562, 882.075012 190.830750, 884.569092 189.999878, 885.483643 187.233154, 886.887939 185.728210, 888.227722 187.082764, 891.601624 186.038574, 893.458496 184.937561, 894.680237 186.264099, 897.375061 185.157410, 900.392029 183.650330, 901.983765 180.550598, 905.039551 179.246094, 907.825012 177.780518, 910.463196 176.690918, 913.115845 176.248047, 914.908081 174.940918, 917.980408 174.738708, 921.850403 175.103455, 925.264709 174.320618, 928.229431 172.878357, 928.958740 168.747070, 931.078430 167.585693, 933.601624 167.266602, 936.421814 166.664124, 940.079956 166.456909, 945.936829 165.143188, 951.513123 163.549744, 956.311096 162.335754, 960.236816 160.513367, 964.049133 160.447449, 967.816162 160.680359, 969.051819 159.337524, 969.718872 158.130981, 971.351257 157.924561, 973.304626 155.880615, 974.879578 153.175659, 976.210449 156.360413, 976.342041 159.226746, 976.534973 161.549927, 979.137878 162.138123, 980.123291 165.047729, 983.001221 167.357056, 984.091797 170.516052, 985.820862 173.476135, 987.443237 175.923828, 990.585266 177.689392, 992.285522 180.933899, 997.299988 183.315735, 1001.382507 185.398193, 1003.620239 185.599976, 1005.253784 187.457458, 1009.168152 189.923645, 1013.751953 193.570862, 1017.393494 194.618225, 1021.362549 197.374268, 1022.777039 196.305847, 1024.981445 197.920471, 1029.412354 198.215698, 1032.462158 197.414612, 1035.011230 197.695068, 1036.573120 200.181824, 1038.439453 202.624573, 1041.843262 202.500061, 1045.025146 201.611572, 1047.536255 202.452637, 1050.609131 200.827271, 1052.991821 199.735657, 1055.533691 198.505981, 1058.713989 198.859680, 1063.437988 199.717224, 1067.522705 201.110046, 1070.708496 202.404785, 1072.560181 201.104065, 1074.279785 199.546143, 1077.059814 200.758179, 1078.532593 200.514282, 1080.046265 201.040039, 1082.297607 200.831238, 1084.465088 200.890198, 1084.851685 198.480347, 1086.642090 197.393005, 1089.532593 197.648132, 1089.810791 195.625854, 1091.187988 196.465576, 1093.325928 196.610962, 1094.629883 194.445374, 1095.598267 192.900085, 1097.862183 194.098755, 1098.532837 192.174988, 1099.463379 190.833435, 1100.292725 189.509460, 1102.383911 190.633545, 1103.311401 188.867981, 1105.121948 189.842651, 1105.329346 192.152039, 1107.079712 193.090820, 1106.075806 194.495178, 1107.089111 196.766174, 1108.562378 197.111206, 1108.287964 198.880737, 1109.765747 200.966064, 1109.550537 203.312866, 1110.715454 204.422852, 1109.729126 205.351257, 1108.551514 207.845154, 1108.356323 212.040405, 1107.372681 215.987854, 1109.224854 216.612061, 1108.847168 217.387390, 1108.530762 218.974182, 1109.621582 221.484924, 1110.601074 225.059814, 1112.069214 228.079712, 1113.721191 230.202332, 1114.630249 233.574524, 1115.902344 235.952759, 1115.979736 238.369812, 1114.846558 241.014526, 1113.744385 244.705994, 1112.465576 248.266052, 1113.545654 251.207458, 1114.431396 253.714111, 1113.985718 256.630920, 1113.251221 259.767090, 1114.869873 262.591797, 1116.295288 263.695374, 1116.041138 265.150574, 1116.447266 268.211060, 1117.155762 270.811340, 1118.680664 272.373352, 1121.490723 272.822571, 1124.611572 273.656982, 1126.198120 274.043701, 1127.028320 274.081482, 1125.768433 276.034363, 1126.711548 280.125061, 1128.259399 283.133606, 1130.460693 285.007263, 1131.001099 288.079712, 1131.830444 291.448303, 1132.855713 294.754089, 1133.980957 298.246826, 1135.658203 302.028137, 1139.570435 305.242310, 1143.852905 308.816284, 1147.333618 312.397095, 1150.836670 315.894592, 1155.098755 320.263611, 1159.175171 323.411865, 1162.008301 328.120056, 1165.425903 332.287170, 1166.834717 336.720398, 1168.077393 338.142090, 1167.853638 339.556702, 1168.485596 343.124023, 1169.353027 346.863831, 1169.903687 349.983887, 1170.946411 351.982239, 1171.207886 353.915222, 1171.894165 356.485596, 1172.420166 360.219421, 1174.640015 363.953491, 1177.166382 368.586853, 1180.026001 373.032532, 1182.681519 376.377808, 1182.774780 379.656555, 1182.374634 382.855835, 1184.903320 387.481750, 1187.050659 390.693604, 1188.692139 392.452820, 1190.140015 395.808533, 1192.150024 398.729065, 1193.281372 401.944824, 1194.035889 405.555969, 1194.166870 409.880737, 1195.605103 415.156494, 1197.028320 417.668701, 1196.942139 421.521423, 1197.593872 426.538086, 1198.067139 431.299866, 1198.637573 436.794556, 1198.593994 442.797241, 1198.519531 448.320984, 1199.355835 450.123291, 1198.699219 452.817627, 1197.985718 456.627380, 1197.597656 462.201965, 1197.357178 468.041992, 1197.455688 472.416870, 1196.619873 477.480774, 1194.618774 483.917236, 1193.904419 489.547302, 1193.253540 494.312866, 1191.513916 497.876282, 1191.081787 503.915100, 1191.217773 507.124817, 1190.759644 510.693054, 1189.411865 514.139893, 1187.644165 519.530701, 1186.563477 523.044922, 1185.051147 526.688354, 1183.217896 531.659851, 1181.593018 537.000854, 1180.272339 542.344238Z " id="clippath"/>
    </clipPath>
    <filter id="dropshadow">
      <feGaussianBlur id="feGaussianBlur12" stdDeviation="2" in="SourceAlpha"/>
      <feMerge id="feMerge18">
        <feMergeNode id="feMergeNode14"/>
        <feMergeNode id="feMergeNode16" in="SourceGraphic"/>
      </feMerge>
    </filter>
  </defs>
  <g style="display:inline;" transform="translate(0,0)" id="rois" inkscape:groupmode="layer" inkscape:label="rois" class="display_layer">
    <g clip-path="url(#edgeclip)" style="display:inline;" transform="translate(0,0)" id="rois_shapes" inkscape:groupmode="layer" inkscape:label="shapes">
      <g inkscape:groupmode="layer" id="layer12" inkscape:label="mPCS">
        <path id="path176" style="stroke:white;fill:none;display:inline;filter:url(#dropshadow);stroke-width:2;stroke-opacity:1;fill-opacity:0" d="m 1850.0561,5.6062305 c -38.2023,1.3665912 -69.7468,48.0426215 -45.0211,81.4447935 26.7857,35.466616 79.6151,30.649866 115.825,13.949406 28.6201,-16.495561 60.8937,-28.913645 94.5201,-22.385734 26.6179,-1.919502 42.1319,19.692828 57.5899,37.293104 20.7447,21.198 54.1949,24.50262 81.9034,19.12174 34.7805,-9.43699 31.4048,-61.223539 5.7166,-79.128516 -46.0726,-32.462249 -103.5971,-12.967659 -155.0196,-11.958542 -39.1971,0.564911 -81.4379,3.308658 -117.3323,-14.79099 -12.0762,-8.679447 -22.2919,-22.2064993 -38.182,-23.5452615 z"/>
        <path id="path187" style="stroke:white;fill:none;display:inline;filter:url(#dropshadow);stroke-width:2;stroke-opacity:1;fill-opacity:0" d="m 336.37383,87.597351 c -47.12992,17.321109 -27.18896,87.658579 20.79504,86.854149 51.66102,18.44699 103.60965,-9.9576 155.43455,-1.62097 47.73191,18.55384 98.7733,-29.72654 74.50983,-77.256382 C 566.02786,50.789537 509.07328,72.551036 470.72037,72.458917 425.9187,77.328595 381.38915,84.799241 336.37383,87.597351 Z"/>
      </g>
      <g inkscape:groupmode="layer" id="layer11" inkscape:label="sPCS" style="display:inline;opacity:1">
        <path id="path151" style="stroke:white;fill:none;display:inline;filter:url(#dropshadow);stroke-width:2;stroke-opacity:1;fill-opacity:0" d="m 536.79657,213.03676 c -22.02848,-4.0848 -52.32465,-8.02774 -67.99328,11.27896 -13.01006,23.34058 -5.94805,52.10123 7.00142,73.87714 8.25785,21.1344 23.45561,38.04815 42.4227,50.28484 19.61279,27.48207 46.27188,-0.52317 44.67625,-25.78871 0.90267,-29.40144 -3.57205,-103.21156 -26.10709,-109.65223 z" sodipodi:nodetypes="cccccc"/>
        <path id="path159" style="stroke:white;fill:none;display:inline;filter:url(#dropshadow);stroke-width:2;stroke-opacity:1;fill-opacity:0" d="m 1963.4453,142.80078 c -18.3219,-0.11929 -36.4803,3.57575 -51.5566,10.79688 -44.2459,36.65815 -19.1992,109.08433 24.7129,135.71484 9.3278,-4.01662 20.9314,-3.75521 31.6152,-1 41.9647,-11.40033 82.616,-41.18784 87.4414,-86.26172 -10.805,-40.26339 -51.9046,-58.98756 -92.2129,-59.25 z"/>
      </g>
      <g inkscape:groupmode="layer" id="layer9" inkscape:label="iPCS">
        <path id="path128" style="stroke:white;fill:none;display:inline;filter:url(#dropshadow);stroke-width:2;stroke-opacity:1;fill-opacity:0" d="m 1986.0071,295.72866 c -19.5117,-11.99721 -54.7204,-16.29277 -64.8591,9.6894 -6.3036,35.58247 28.2358,66.60994 62.1984,67.07579 23.8283,8.60283 40.353,-12.71499 37.6883,-35.22248 3.5087,-22.81059 -16.4646,-35.22766 -35.0276,-41.54271 z"/>
        <path id="path138" style="stroke:white;fill:none;display:inline;filter:url(#dropshadow);stroke-width:2;stroke-opacity:1;fill-opacity:0" d="m 519.97788,362.30264 c -30.37753,9.77153 -61.91326,-37.20872 -87.28217,-9.8086 -18.56504,28.04938 -6.52937,65.42139 18.09027,85.51755 16.97915,28.52342 64.45565,47.19504 71.12579,0.83523 3.34389,-25.13414 40.70015,-52.52724 14.94471,-76.18625 -5.20186,-2.77297 -11.47317,-2.04287 -16.8786,-0.35793 z"/>
      </g>
      <g style="display:inline;opacity:0.75242718" inkscape:label="sIPS" id="layer10" inkscape:groupmode="layer">
        <path sodipodi:nodetypes="sccccccccs" d="m 1623.2773,266.07617 c -20.6982,-0.088 -41.972,5.0591 -61.3652,10.33203 -35.6035,20.7334 -67.6671,54.30735 -76.3828,95.82618 0.2235,0.97292 0.4211,1.95417 0.6074,2.93945 12.3977,2.75641 23.5284,9.99138 30.3731,22.67773 10.6617,18.83007 18.6502,39.54698 23.8144,60.91016 2.2691,0.18255 4.6962,0.10631 7.3106,-0.2793 50.2093,2.41974 109.1934,-1.69511 143.9453,-42.875 37.0456,-43.69292 21.0698,-119.96458 -32.1992,-142.61523 -11.4734,-4.9264 -23.6846,-6.8632 -36.1036,-6.91602 z" style="stroke:white;fill:none;display:inline;filter:url(#dropshadow);stroke-width:2;stroke-opacity:1;fill-opacity:0" id="path295"/>
        <path d="m 848.35938,265.01172 c -14.37839,0.12016 -28.96508,2.72567 -43.05079,8.0625 -59.50701,2.87961 -143.40809,-7.14303 -169.06054,62.01953 -34.85578,71.54729 43.23297,155.05114 117.54101,134.81836 38.55076,-0.77154 82.65789,-4.77747 121.07227,-18.67188 0.85733,-6.41017 2.72698,-12.77492 5.71679,-18.84765 18.70827,-33.40882 46.18656,-66.13269 82.58985,-80.37305 -12.07902,-54.39846 -62.03478,-87.44884 -114.80859,-87.00781 z" style="stroke:white;fill:none;display:inline;filter:url(#dropshadow);stroke-width:2;stroke-opacity:1;fill-opacity:0" id="path531"/>
      </g>
      <g style="display:inline" inkscape:label="iIPS" id="layer8" inkscape:groupmode="layer">
        <path d="m 1473.5605,373.87109 c -30.392,0.22603 -62.2802,23.54144 -56.2871,57.31055 1.8386,1.348 3.5277,2.96788 5.002,4.89844 16.3794,23.57797 12.4007,44.53257 10.4922,69.17187 -1.2131,13.21509 2.8967,17.64399 10.748,17.875 5.9995,0.17652 13.2424,-0.53744 17.418,4.55469 6.9817,8.80724 -1.7126,26.7114 -5.6504,33.96094 -1.6954,3.57987 -6.9334,8.13038 -13.5332,11.98828 0.028,-0.0164 0.058,-0.0324 0.086,-0.0488 2.7876,0.99216 5.5253,2.17987 8.1934,3.63672 12.6225,6.18214 24.6454,16.45286 27.8164,30.73437 10.4691,-19.40701 31.6465,-35.51275 53.6992,-38.87695 9.0911,-16.44913 14.3979,-35.49901 15.75,-52.8164 -0.069,-40.63542 -10.6682,-82.87911 -30.7851,-118.40821 -9.103,-16.87201 -25.7856,-24.10811 -42.9493,-23.98047 z m 4.2852,234.08203 c 0.1127,0.81358 0.1956,1.64021 0.293,2.46094 0,-2.8e-4 0,-0.002 0.01,-0.002 -0.097,-0.82069 -0.1861,-1.64544 -0.2988,-2.45899 z m -38.6035,-32.92578 c -0.086,0.0458 -0.1711,0.0932 -0.2578,0.13868 0.087,-0.0457 0.1712,-0.0927 0.2578,-0.13868 z m -2.9277,1.46875 c -0.1758,0.0828 -0.3546,0.1608 -0.5313,0.24219 0.1768,-0.0817 0.3554,-0.15912 0.5313,-0.24219 z m -2.5665,1.13868 c -0.3235,0.13623 -0.6471,0.27144 -0.9726,0.40234 0.3258,-0.13142 0.6488,-0.26556 0.9726,-0.40234 z m -2.916,1.14453 c -0.2132,0.0776 -0.425,0.16324 -0.6386,0.23828 9e-4,0.002 9e-4,0.004 0,0.006 0.2136,-0.0752 0.4236,-0.16633 0.6367,-0.24414 z" style="stroke:white;fill:none;display:inline;filter:url(#dropshadow);stroke-width:2;stroke-opacity:1;fill-opacity:0" id="path276"/>
        <path d="m 994.70703,344.1582 c -5.2529,0.0467 -10.5886,1.00705 -15.81055,3.0293 -44.31058,9.96222 -77.00434,47.14296 -98.31836,85.20508 -18.04037,36.64245 4.47922,83.93512 46.56446,87.48437 0.20984,0.095 0.42596,0.17646 0.63672,0.26953 1.41973,-6.88335 3.9684,-13.36772 7.61132,-18.48046 14.96057,-17.3805 43.22392,6.65218 43.71876,-18.95899 0.21739,-26.50321 1.66374,-54.87211 19.58789,-76.81836 7.68823,-14.08126 21.63933,-20.14551 36.01563,-19.93945 2.8121,0.0403 5.6406,0.32489 8.4414,0.83203 -2.174,-23.97756 -24.4594,-42.83648 -48.44727,-42.62305 z" style="stroke:white;fill:none;display:inline;filter:url(#dropshadow);stroke-width:2;stroke-opacity:1;fill-opacity:0" id="path357"/>
      </g>
      <g style="display:inline" inkscape:label="hMT+" id="layer6" inkscape:groupmode="layer">
        <path d="m 1540.5957,568.42773 c -25.1256,-0.33088 -50.8523,17.47022 -62.75,39.52539 1.5134,10.9232 1.7301,22.5582 -1.9238,33.0879 15.4533,27.8508 56.9627,34.95566 85.7676,24.13671 41.4383,-10.55224 40.5851,-67.59194 7.2597,-87.20117 -8.7832,-6.51359 -18.5218,-9.41935 -28.3535,-9.54883 z" style="stroke:white;fill:none;display:inline;filter:url(#dropshadow);stroke-width:2;stroke-opacity:1;fill-opacity:0" id="path232"/>
        <path d="m 934.93164,560.40039 c -35.95362,12.78614 -57.79489,62.80763 -28.92578,93.41992 23.65697,25.51946 62.77542,48.03781 97.25974,29.81641 0.1928,-0.0809 0.3768,-0.17517 0.5684,-0.25781 9.0467,-16.44475 19.6318,-32.25994 29.8652,-47.72461 -7.8495,-0.0184 -15.473,-2.5167 -22.1855,-8.85547 -15.58143,-18.20662 -7.2089,-43.67386 0.3476,-63.77149 -21.59147,4.72227 -44.42672,4.19394 -61.05857,4.10743 -6.71277,0.24656 -11.97928,-2.35699 -15.87109,-6.73438 z" style="stroke:white;fill:none;display:inline;filter:url(#dropshadow);stroke-width:2;stroke-opacity:1;fill-opacity:0" id="path463"/>
      </g>
      <g style="display:inline" inkscape:label="VO" id="layer7" inkscape:groupmode="layer">
        <path d="m 1367.8203,626.70312 c 0,0.002 -0.01,0.006 -0.01,0.008 -0.2423,2.32163 -0.4707,4.70504 -0.6914,7.12304 0.2218,-2.42989 0.4579,-4.79707 0.7012,-7.13086 z m -0.7012,7.13086 c -2.0635,22.61395 -3.1426,49.13193 -2.4921,74.07227 0.4557,17.47483 1.4604,34.1234 1.4433,48.13672 37.8469,24.98364 80.7385,49.51563 127.0645,47.54687 44.3113,-14.56591 42.2457,-71.33471 34.8593,-108.66211 -0.573,-9.57305 -2.8187,-18.16829 -6.373,-25.8164 -18.9587,-2.73299 -36.7246,-11.89574 -45.6992,-28.07031 0.019,-0.0557 0.036,-0.11221 0.055,-0.16797 -0.4899,1.43374 -1.0428,2.85002 -1.6836,4.23828 -5.5276,7.87353 -16.223,7.98338 -24.8164,6.81836 -8.6115,-1.60451 -17.3659,-1.45683 -26.086,-1.33399 -9.5623,0.36041 -18.967,-1.47636 -28.1211,-4.0625 -9.8776,-2.46994 -20.5658,-5.70667 -28.1504,-12.69922 z m 111.2247,-3.36914 c -0.065,0.51322 -0.1406,1.0243 -0.2188,1.53516 0.079,-0.51063 0.1535,-1.02213 0.2188,-1.53516 z m -0.2969,2.04688 c -0.063,0.38725 -0.1343,0.77257 -0.2051,1.1582 0.071,-0.38544 0.142,-0.77113 0.2051,-1.1582 z m -0.3809,2.07812 c -0.062,0.31058 -0.1293,0.62035 -0.1972,0.92969 0.068,-0.30928 0.1344,-0.61916 0.1972,-0.92969 z m -0.459,2.05664 c -0.058,0.2373 -0.1166,0.47449 -0.1777,0.71094 0.061,-0.23645 0.1197,-0.47364 0.1777,-0.71094 z m -0.5625,2.10938 c -0.045,0.15501 -0.088,0.31025 -0.1347,0.46484 0.047,-0.15451 0.09,-0.30991 0.1347,-0.46484 z" style="stroke:white;fill:none;display:inline;filter:url(#dropshadow);stroke-width:2;stroke-opacity:1;fill-opacity:0" id="path246"/>
        <path sodipodi:nodetypes="ccccccccc" d="m 1115.2363,573.21484 c -5.2431,18.74441 -21.9545,33.87118 -38.123,44.1543 -11.946,8.90824 -28.1097,18.32107 -43.4141,18.28516 -19.1823,28.98818 -39.6538,59.18592 -48.76561,92.51367 -6.50464,26.68567 29.77421,61.90404 60.83011,65.08008 31.6706,-2.14524 56.2502,-22.81838 71.6601,-49.43164 -0.7516,-1.08344 -1.3648,-2.43069 -1.8066,-4.08399 -4.1034,-33.50396 23.5605,-65.54839 22.623,-100.39062 -1.086,-20.31643 -10.9646,-42.67052 -23.0039,-66.12696 z" style="stroke:white;fill:none;display:inline;filter:url(#dropshadow);stroke-width:2;stroke-opacity:1;fill-opacity:0" id="path450"/>
      </g>
      <g style="display:inline" inkscape:label="LO" id="layer5" inkscape:groupmode="layer">
        <path d="m 1441.8359,573.58203 c -7.1862,4.22048 -15.9991,7.62634 -23.6621,8.02344 -13.0965,2.45792 -26.48,0.51346 -39.2304,-2.68555 -1.0378,-0.44265 -1.9573,-0.98744 -2.7813,-1.61133 -1.5227,9.14173 -3.3066,18.20372 -5.4531,27.13672 -1.3734,8.46594 -2.5944,18.47909 -3.5899,29.38867 7.5846,6.99255 18.2728,10.22928 28.1504,12.69922 9.1541,2.58614 18.5588,4.42291 28.1211,4.0625 8.7201,-0.12284 17.4745,-0.27052 26.086,1.33399 8.5934,1.16502 19.2888,1.05517 24.8164,-6.81836 5.3281,-11.54338 5.2639,-24.80731 3.5527,-37.15821 -3.171,-14.28152 -15.1939,-24.55223 -27.8164,-30.73437 -2.6681,-1.45685 -5.4058,-2.64456 -8.1934,-3.63672 z" style="stroke:white;fill:none;display:inline;filter:url(#dropshadow);stroke-width:2;stroke-opacity:1;fill-opacity:0" id="path216"/>
        <path d="m 1078.5957,498.7832 c 0.056,0.15064 0.1166,0.33054 0.1719,0.47852 -4.8726,16.94792 -14.7933,32.59575 -26.4805,44.66016 -11.2598,10.10516 -25.5476,15.85147 -40.4258,19.10546 -7.5565,20.09763 -15.92897,45.56487 -0.3476,63.77149 19.8,18.69757 47.5265,4.04755 65.5996,-9.42969 16.1685,-10.28312 32.8799,-25.40989 38.123,-44.1543 -1.2726,-2.47957 -2.5496,-4.95948 -3.8633,-7.46289 -11.0746,-21.10531 -23.3275,-43.01948 -32.0957,-65.0957 -0.2162,-0.563 -0.4568,-1.26489 -0.6816,-1.87305 z" style="stroke:white;fill:none;display:inline;filter:url(#dropshadow);stroke-width:2;stroke-opacity:1;fill-opacity:0" id="path391"/>
      </g>
      <g style="display:inline" inkscape:label="V3AB" id="layer4" inkscape:groupmode="layer">
        <path d="m 1400.5664,426.08594 c -8.8756,0.0587 -18.0064,3.68185 -24.3144,9.86133 5.606,9.03164 8.8835,24.11057 8.5722,41.1289 -1.2969,33.2839 -3.1775,67.30493 -8.6621,100.23242 0.824,0.62389 1.7435,1.16868 2.7813,1.61133 12.7504,3.19901 26.1339,5.14347 39.2304,2.68555 14.6531,-0.75932 33.572,-12.49374 37.1094,-19.96289 3.9378,-7.24954 12.6321,-25.1537 5.6504,-33.96094 -4.1756,-5.09213 -11.4185,-4.37817 -17.418,-4.55469 -7.8513,-0.23101 -11.9611,-4.65991 -10.748,-17.875 1.9085,-24.6393 5.8872,-45.5939 -10.4922,-69.17187 -5.3386,-6.99078 -13.4126,-10.04899 -21.709,-9.99414 z" style="stroke:white;fill:none;display:inline;filter:url(#dropshadow);stroke-width:2;stroke-opacity:1;fill-opacity:0" id="path204"/>
        <path sodipodi:nodetypes="scccccccs" d="m 1034.7129,385.94922 c -14.3763,-0.20606 -28.3274,5.85819 -36.01563,19.93945 -17.92415,21.94625 -19.37049,50.31515 -19.58789,76.81836 -0.49484,25.61117 -28.75725,1.57921 -43.71781,18.95971 -15.20101,21.33422 -11.59881,66.46012 15.41116,65.46803 28.09243,0.14613 73.88397,1.5571 101.48437,-23.21289 11.6872,-12.06441 21.6079,-27.71224 26.4805,-44.66016 -8.0278,-21.49495 -21.2756,-71.3101 1.1133,-85.11524 -7.4823,-17.2872 -26.6736,-27.93217 -45.168,-28.19726 z" style="stroke:white;fill:none;display:inline;filter:url(#dropshadow);stroke-width:2;stroke-opacity:1;fill-opacity:0" id="path346"/>
      </g>
      <g style="display:inline" inkscape:label="V3" id="layer3" inkscape:groupmode="layer">
        <path d="m 1093.5723,410.54883 c -41.2076,0.65774 -23.4992,66.14554 -14.295,90.10742 8.7682,22.07622 21.0211,43.99039 32.0957,65.0957 13.7402,26.18527 25.6664,51.12578 26.8672,73.58985 0.9375,34.84223 -26.7264,66.88666 -22.623,100.39062 3.096,11.58436 14.334,8.60682 26.1836,-0.90234 -1.9464,-5.63089 -2.4178,-11.90517 -0.8399,-18.59766 11.6814,-47.19233 22.5631,-46.41712 26.168,-66.86328 3.8278,-24.87208 -14.5581,-49.22284 -30.7051,-70.64844 -27.2983,-48.10455 -57.2338,-110.28434 -42.6054,-170.8457 0.2139,-0.45359 0.4361,-0.88679 0.6601,-1.31641 -0.3011,-0.002 -0.6112,-0.0145 -0.9062,-0.01 z" style="stroke:white;fill:none;display:inline;filter:url(#dropshadow);stroke-width:2;stroke-opacity:1;fill-opacity:0" id="path179"/>
        <path d="m 1363.6699,427.10547 c -3.9632,-0.0536 -8.3131,2.01589 -12.8926,6.69141 13.0403,18.35051 8.1512,57.21022 4.3438,83.10546 -4.0313,29.32099 -14.6625,58.00008 -17.334,87.51758 -3.4765,38.41291 1.8171,77.72017 4.4453,116.33789 2.4274,27.31052 4.8845,55.42966 -4.8066,67.86719 4.1847,3.62523 9.9119,5.71961 17.6484,5.54492 15.0867,-6.17083 10.6571,-43.9204 9.5528,-86.26367 -0.9642,-36.97224 1.8617,-77.44638 6.082,-103.46094 9.8779,-41.10869 12.4582,-84.84457 14.1152,-127.36914 0.5013,-27.4058 -8.3008,-49.79695 -21.1543,-49.9707 z" style="stroke:white;fill:none;display:inline;filter:url(#dropshadow);stroke-width:2;stroke-opacity:1;fill-opacity:0" id="path191"/>
      </g>
      <g style="display:inline" inkscape:label="V2" id="layer2" inkscape:groupmode="layer">
        <path d="m 1330.0625,423.49805 c -2.4849,-0.0161 -5.1676,0.22757 -8.0605,0.75195 -1.3818,1.06394 -2.6744,2.16003 -3.8946,3.2832 3.6793,10.19778 5.1486,23.63376 3.3672,39.37891 -6.2894,44.20054 1.3309,93.08131 -6.0918,133.64648 -7.003,38.04611 -10.466,96.36507 1.2559,143.46094 4.5957,19.63832 -2.8851,35.93168 -15.4785,45.10938 49.0945,23.09939 45.0407,-23.72175 41.0722,-68.3711 -2.6282,-38.61772 -7.9218,-77.92498 -4.4453,-116.33789 2.6715,-29.5175 13.3027,-58.19659 17.334,-87.51758 5.1227,-34.8412 12.2144,-93.16348 -25.0586,-93.40429 z" style="stroke:white;fill:none;display:inline;filter:url(#dropshadow);stroke-width:2;stroke-opacity:1;fill-opacity:0" id="path154"/>
        <path d="m 1114.4961,398.97461 c -10.5419,-0.19382 -16.5235,4.09332 -20.6777,12.90039 -14.6284,60.56136 15.3071,122.74115 42.6054,170.8457 16.147,21.4256 34.5329,45.77636 30.7051,70.64844 -3.6049,20.44616 -14.4866,19.67095 -26.168,66.86328 -7.6167,32.30499 32.3803,54.92526 56.711,41.95703 -6.3174,-6.04293 -11.037,-13.6412 -13.084,-22.41797 -5.4529,-36.17285 18.1145,-70.58214 9.8105,-106.77929 -6.3375,-16.37643 -14.1657,-32.35335 -19.3359,-49.25586 -8.3978,-27.67861 -17.1102,-55.24125 -26.7383,-82.52539 -9.3466,-30.55652 -15.2916,-64.77532 -6.1191,-95.97461 -11.7556,-4.03749 -20.7356,-6.13351 -27.709,-6.26172 z" style="stroke:white;fill:none;display:inline;filter:url(#dropshadow);stroke-width:2;stroke-opacity:1;fill-opacity:0" id="path167"/>
      </g>
      <g style="display:inline" inkscape:label="V1" id="layer1" inkscape:groupmode="layer">
        <path sodipodi:nodetypes="cccccccc" d="m 1247.5223,786.39944 c 32.6256,26.8922 79.0448,0.0463 69.1161,-42.38074 -11.7219,-47.09587 -8.2591,-105.4148 -1.2561,-143.46091 7.4227,-40.56517 -0.198,-89.44597 6.0914,-133.64651 6.3534,-56.15526 -28.6203,-82.94776 -57.8619,-38.16019 -2.2972,39.05835 -5.4359,80.31003 -8.1405,120.43008 1.098,48.03175 -1.6767,96.42376 -0.496,144.39227 -1.0399,31.17227 -0.6528,62.21011 -7.453,92.826 z" style="stroke:white;fill:none;display:inline;filter:url(#dropshadow);stroke-width:2;stroke-opacity:1;fill-opacity:0" id="path139"/>
        <path d="m 1208.2778,401.50144 c -11.3794,-21.72692 -47.2973,-28.17021 -62.2907,-6.92793 -14.2951,33.92 -8.087,72.55846 2.3372,106.63799 9.6281,27.28414 18.3409,54.84651 26.7387,82.52512 5.1702,16.90251 12.9977,32.87991 19.3352,49.25634 8.304,36.19715 -15.2638,70.60574 -9.8109,106.77859 5.7645,24.71619 32.6537,40.15065 57.059,37.52611 17.0115,-29.40394 9.8443,-64.51734 13.6123,-96.73872 2.9292,-46.82566 5.3161,-95.91827 -13.8783,-139.93255 -7.6154,-28.11027 -11.389,-57.17035 -20.8445,-84.8008 -4.2955,-16.15743 -7.3573,-32.62918 -9.4673,-49.20961 l -1.2818,-2.61611 z" style="stroke:white;fill:none;display:inline;filter:url(#dropshadow);stroke-width:2;stroke-opacity:1;fill-opacity:0" id="path146"/>
      </g>
    </g>
    <g style="display:inline;" transform="translate(0,0)" id="rois_labels" inkscape:groupmode="layer" inkscape:label="labels">
      <text x="1907.989343923339" y="65.54746639286786" style="font-family:Helvetica, sans-serif;font-size:14pt;font-weight:bold;font-style:italic;fill:white;fill-opacity:1;text-anchor:middle;filter:url(#dropshadow)" data-ptidx="264869">mPCS</text>
      <text x="450.36569829147345" y="119.9915764483303" style="font-family:Helvetica, sans-serif;font-size:14pt;font-weight:bold;font-style:italic;fill:white;fill-opacity:1;text-anchor:middle;filter:url(#dropshadow)" data-ptidx="135480">mPCS</text>
      <text x="511.35901671748286" y="271.1139541892659" style="font-family:Helvetica, sans-serif;font-size:14pt;font-weight:bold;font-style:italic;fill:white;fill-opacity:1;text-anchor:middle;filter:url(#dropshadow)" data-ptidx="115561">sPCS</text>
      <text x="1973.7155459147298" y="210.58430954396343" style="font-family:Helvetica, sans-serif;font-size:14pt;font-weight:bold;font-style:italic;fill:white;fill-opacity:1;text-anchor:middle;filter:url(#dropshadow)" data-ptidx="254619">sPCS</text>
      <text x="1975.087158585431" y="324.4991528025412" style="font-family:Helvetica, sans-serif;font-size:14pt;font-weight:bold;font-style:italic;fill:white;fill-opacity:1;text-anchor:middle;filter:url(#dropshadow)" data-ptidx="240554">iPCS</text>
      <text x="486.1406932970154" y="395.80911646985885" style="font-family:Helvetica, sans-serif;font-size:14pt;font-weight:bold;font-style:italic;fill:white;fill-opacity:1;text-anchor:middle;filter:url(#dropshadow)" data-ptidx="101038">iPCS</text>
      <text x="1595.0769621316022" y="363.38223284225637" style="font-family:Helvetica, sans-serif;font-size:14pt;font-weight:bold;font-style:italic;fill:white;fill-opacity:1;text-anchor:middle;filter:url(#dropshadow)" data-ptidx="257744">sIPS</text>
      <text x="804.1799677981497" y="363.5078223246695" style="font-family:Helvetica, sans-serif;font-size:14pt;font-weight:bold;font-style:italic;fill:white;fill-opacity:1;text-anchor:middle;filter:url(#dropshadow)" data-ptidx="102688">sIPS</text>
      <text x="1453.3028089446263" y="653.793425902533" style="font-family:Helvetica, sans-serif;font-size:14pt;font-weight:bold;font-style:italic;fill:white;fill-opacity:1;text-anchor:middle;filter:url(#dropshadow)" data-ptidx="161879">iIPS</text>
      <text x="940.7839710609145" y="444.5998416413888" style="font-family:Helvetica, sans-serif;font-size:14pt;font-weight:bold;font-style:italic;fill:white;fill-opacity:1;text-anchor:middle;filter:url(#dropshadow)" data-ptidx="104974">iIPS</text>
      <text x="1529.9628504465259" y="618.0676418199107" style="font-family:Helvetica, sans-serif;font-size:14pt;font-weight:bold;font-style:italic;fill:white;fill-opacity:1;text-anchor:middle;filter:url(#dropshadow)" data-ptidx="188243">hMT+</text>
      <text x="964.5908849168984" y="622.9272542748522" style="font-family:Helvetica, sans-serif;font-size:14pt;font-weight:bold;font-style:italic;fill:white;fill-opacity:1;text-anchor:middle;filter:url(#dropshadow)" data-ptidx="39217">hMT+</text>
      <text x="1484.4902678280782" y="596.7493102479317" style="font-family:Helvetica, sans-serif;font-size:14pt;font-weight:bold;font-style:italic;fill:white;fill-opacity:1;text-anchor:middle;filter:url(#dropshadow)" data-ptidx="199343">VO</text>
      <text x="1066.6360179595222" y="698.1317490370427" style="font-family:Helvetica, sans-serif;font-size:14pt;font-weight:bold;font-style:italic;fill:white;fill-opacity:1;text-anchor:middle;filter:url(#dropshadow)" data-ptidx="6945">VO</text>
      <text x="1425.7139321191507" y="615.7491732341418" style="font-family:Helvetica, sans-serif;font-size:14pt;font-weight:bold;font-style:italic;fill:white;fill-opacity:1;text-anchor:middle;filter:url(#dropshadow)" data-ptidx="177134">LO</text>
      <text x="1063.1705831041816" y="580.318032266282" style="font-family:Helvetica, sans-serif;font-size:14pt;font-weight:bold;font-style:italic;fill:white;fill-opacity:1;text-anchor:middle;filter:url(#dropshadow)" data-ptidx="38887">LO</text>
      <text x="1408.4351867922826" y="529.6072684807867" style="font-family:Helvetica, sans-serif;font-size:14pt;font-weight:bold;font-style:italic;fill:white;fill-opacity:1;text-anchor:middle;filter:url(#dropshadow)" data-ptidx="207609">V3AB</text>
      <text x="1030.7508286260825" y="478.750590131141" style="font-family:Helvetica, sans-serif;font-size:14pt;font-weight:bold;font-style:italic;fill:white;fill-opacity:1;text-anchor:middle;filter:url(#dropshadow)" data-ptidx="73465">V3AB</text>
      <text x="1095.8942848127685" y="484.4488313682232" style="font-family:Helvetica, sans-serif;font-size:14pt;font-weight:bold;font-style:italic;fill:white;fill-opacity:1;text-anchor:middle;filter:url(#dropshadow)" data-ptidx="69978">V3</text>
      <text x="1353.5617592931385" y="648.311851515174" style="font-family:Helvetica, sans-serif;font-size:14pt;font-weight:bold;font-style:italic;fill:white;fill-opacity:1;text-anchor:middle;filter:url(#dropshadow)" data-ptidx="161767">V3</text>
      <text x="1331.875666298721" y="527.8856051420623" style="font-family:Helvetica, sans-serif;font-size:14pt;font-weight:bold;font-style:italic;fill:white;fill-opacity:1;text-anchor:middle;filter:url(#dropshadow)" data-ptidx="195741">V2</text>
      <text x="1128.508050616621" y="461.36757442685877" style="font-family:Helvetica, sans-serif;font-size:14pt;font-weight:bold;font-style:italic;fill:white;fill-opacity:1;text-anchor:middle;filter:url(#dropshadow)" data-ptidx="61792">V2</text>
      <text x="1285.3624557509104" y="604.0535005530908" style="font-family:Helvetica, sans-serif;font-size:14pt;font-weight:bold;font-style:italic;fill:white;fill-opacity:1;text-anchor:middle;filter:url(#dropshadow)" data-ptidx="173993">V1</text>
      <text x="1198.4134488810466" y="527.4710110443489" style="font-family:Helvetica, sans-serif;font-size:14pt;font-weight:bold;font-style:italic;fill:white;fill-opacity:1;text-anchor:middle;filter:url(#dropshadow)" data-ptidx="29382">V1</text>
    </g>
  </g>
  <g inkscape:groupmode="layer" inkscape:label="sulci" style="display:inline;" id="sulci" class="display_layer">
    <g clip-path="url(#edgeclip)" inkscape:groupmode="layer" inkscape:label="shapes" style="display:inline;" id="sulci_shapes"/>
    <g inkscape:groupmode="layer" inkscape:label="labels" style="display:inline;" id="sulci_labels"/>
  </g>
  <g inkscape:groupmode="layer" inkscape:label="cutouts" style="display:inline;" id="cutouts" class="display_layer">
    <g clip-path="url(#edgeclip)" inkscape:groupmode="layer" inkscape:label="shapes" style="display:inline;" id="cutouts_shapes"/>
    <g inkscape:groupmode="layer" inkscape:label="labels" style="display:inline;" id="cutouts_labels"/>
  </g>
  <g inkscape:groupmode="layer" inkscape:label="display" style="display:inline;opacity:1" id="display" class="display_layer">
    <g clip-path="url(#edgeclip)" inkscape:groupmode="layer" inkscape:label="shapes" style="display:inline" id="display_shapes"/>
    <g inkscape:groupmode="layer" inkscape:label="labels" style="display:inline" id="display_labels"/>
  </g>
</svg>
